<svg width="100" height="50" viewBox="0 0 100 50" fill="none" xmlns="http://www.w3.org/2000/svg">
<g clip-path="url(#clip0_4520_7136)">
<path d="M36.1717 30.3535L35.2853 28.3375H29.723L28.8144 30.3535H26.6426L31.4072 19.6239H33.6011L38.3656 30.3535H36.1717ZM34.4654 26.4335L32.4931 21.8639L30.5208 26.4335H34.4654ZM48.6703 30.2191V30.3535H46.277L43.1745 26.7695H41.2465V30.3535H39.2521V19.6015C40.9363 19.6015 42.6205 19.6239 44.3047 19.6239C46.8088 19.6463 48.1385 21.3263 48.1385 23.1855C48.1385 24.6639 47.4737 26.1423 45.457 26.5679L48.6703 30.2191ZM44.3268 21.5055H41.2687V24.9327H44.3268C45.6122 24.9327 46.144 24.0815 46.144 23.2079C46.144 22.3567 45.5678 21.5055 44.3268 21.5055ZM57.4903 27.5983L58.8642 28.9871C57.7784 30.0847 56.3601 30.5775 54.831 30.5775C50.8864 30.5775 49.2244 27.8223 49.2022 25.0447C49.18 22.2447 50.975 19.3999 54.831 19.3999C56.2714 19.3999 57.6454 19.9599 58.7313 21.0351L57.4016 22.3343C56.7147 21.6399 55.7618 21.3263 54.831 21.3263C52.2604 21.3263 51.1523 23.2527 51.1745 25.0447C51.1967 26.8143 52.216 28.6735 54.831 28.6735C55.7396 28.6959 56.8033 28.3151 57.4903 27.5983ZM69.2133 30.3759H67.2188V26.0303H61.9889V30.3759H59.9944V19.6239H61.9889V24.1487H67.2188V19.6239H69.2133V30.3759ZM79.0083 28.3599V30.3535H71.0526V19.6239H79.0083V21.5951H73.0471V24.0591H78.8088V25.9407H73.0471V28.3599H79.0083ZM90 30.2191V30.3535H87.6066L84.5041 26.7695H82.5762V30.3535H80.5817V19.6015C82.2659 19.6015 83.9501 19.6239 85.6343 19.6239C88.1385 19.6463 89.4681 21.3263 89.4681 23.1855C89.4681 24.6639 88.8033 26.1423 86.7867 26.5679L90 30.2191ZM85.6343 21.5055H82.5762V24.9327H85.6343C86.9196 24.9327 87.4515 24.0815 87.4515 23.2079C87.4515 22.3567 86.8975 21.5055 85.6343 21.5055Z" fill="#043673"/>
<path d="M10 30.3984L15.8947 24.3728L20.7036 30.3984H10Z" fill="#043673"/>
<path d="M26.0222 25L20.7036 19.624H10L20.7036 30.3984L26.0222 25Z" fill="#15BEF0"/>
</g>
<defs>
<clipPath id="clip0_4520_7136">
<rect width="80" height="11.2" fill="white" transform="translate(10 19.3999)"/>
</clipPath>
</defs>
</svg>
