<svg width="100" height="50" viewBox="0 0 100 50" fill="none" xmlns="http://www.w3.org/2000/svg">
<path d="M77.9804 29.1234C77.358 28.5083 77.0565 27.788 77.0565 26.9275C77.0565 26.067 77.3598 25.3449 77.9804 24.7315C78.585 24.1164 79.3316 23.8185 80.2022 23.8185C81.0729 23.8185 81.8194 24.1164 82.4418 24.7315C83.0464 25.3467 83.3479 26.067 83.3479 26.9275C83.3479 27.788 83.0464 28.5083 82.4418 29.1234C81.8194 29.7386 81.0729 30.0365 80.2022 30.0365C79.3316 30.0365 78.585 29.7386 77.9804 29.1234ZM83.3514 22.2692C82.3904 21.6365 81.3424 21.3193 80.204 21.3193C78.64 21.3193 77.3066 21.8644 76.2036 22.9545C75.083 24.0621 74.5315 25.38 74.5315 26.9257C74.5315 28.4715 75.083 29.7894 76.2036 30.8795C77.3066 31.9871 78.64 32.5321 80.204 32.5321C81.768 32.5321 83.1014 31.9871 84.2221 30.8795C85.325 29.7894 85.8765 28.4715 85.8765 26.9257V17.5776H83.3514V22.2692ZM73.5899 21.3211H71.0649V32.5339H73.5899V21.3211ZM57.7818 29.1234C57.1594 28.5083 56.8579 27.788 56.8579 26.9275C56.8579 26.067 57.1594 25.3449 57.7818 24.7315C58.4042 24.1164 59.1329 23.8185 60.0036 23.8185C60.8742 23.8185 61.6048 24.1164 62.2254 24.7315C62.8478 25.3467 63.1493 26.067 63.1493 26.9275C63.1493 27.788 62.8478 28.5083 62.2254 29.1234C61.603 29.7386 60.8742 30.0365 60.0036 30.0365C59.1329 30.0365 58.4042 29.7386 57.7818 29.1234ZM56.0032 22.9545C54.8826 24.0621 54.3311 25.38 54.3311 26.9257C54.3311 28.4715 54.8826 29.7894 56.0032 30.8795C57.1062 31.9871 58.4396 32.5321 60.0036 32.5321C61.1597 32.5321 62.19 32.2149 63.1333 31.5823C63.0801 32.3902 62.7414 33.0754 62.1563 33.638C61.5516 34.183 60.8405 34.4634 60.0054 34.4634C58.9024 34.4634 58.0318 34.0236 57.4094 33.128L55.3294 34.5336C56.3792 36.0267 58.1027 36.9591 60.0054 36.9591C61.5693 36.9591 62.9028 36.414 64.0235 35.324C65.1264 34.2163 65.6779 32.8984 65.6779 31.3527V26.924C65.6779 25.3782 65.1264 24.0603 64.0235 22.9527C62.9028 21.8626 61.5693 21.3176 60.0054 21.3176C58.4414 21.3176 57.1079 21.8626 56.005 22.9527M53.3363 21.3211H50.8113V32.5339H53.3363V21.3211ZM44.1086 30.0383C43.2379 30.0383 42.5074 29.7403 41.8867 29.1252C41.2643 28.51 40.9629 27.7897 40.9629 26.9292C40.9629 26.0687 41.2643 25.3467 41.8867 24.7333C42.5091 24.1182 43.2379 23.8202 44.1086 23.8202C44.9792 23.8202 45.7257 24.1182 46.3481 24.7333C46.9705 25.3484 47.272 26.0687 47.272 26.9292C47.272 27.7897 46.9705 28.51 46.3481 29.1252C45.7257 29.7403 44.9792 30.0383 44.1086 30.0383ZM44.1086 21.3211C42.9702 21.3211 41.9222 21.6383 40.9611 22.271V17.5794H38.4538V26.9292C38.4538 28.475 39.0053 29.7929 40.1082 30.883C41.2111 31.9906 42.5446 32.5356 44.1086 32.5356C45.6725 32.5356 47.0255 31.9906 48.1266 30.883C49.2296 29.7929 49.781 28.475 49.781 26.9292C49.781 25.3835 49.2296 24.0656 48.1266 22.958C47.0237 21.8679 45.6903 21.3228 44.1086 21.3228" fill="#2E2D31"/>
<path d="M74.0141 37.7804H75.9795V37.5394H74.0141C73.7202 37.5394 73.4461 37.486 73.1937 37.3793C72.9412 37.2726 72.7429 37.1263 72.5968 36.9421C72.4508 36.7579 72.3787 36.5565 72.3787 36.3397C72.3787 36.1228 72.4508 35.9231 72.5968 35.7372C72.7429 35.553 72.9412 35.4067 73.1937 35.3C73.4461 35.1933 73.7202 35.1399 74.0141 35.1399H75.9795V34.8989H74.0141C73.4714 34.8989 73.008 35.0401 72.6239 35.3207C72.2416 35.6012 72.0487 35.942 72.0487 36.3414C72.0487 36.7407 72.2398 37.0798 72.6239 37.3621C73.0062 37.6427 73.4696 37.7838 74.0141 37.7838M66.4986 36.3397V37.7821H66.8268V36.3397C66.8268 36.1228 66.8989 35.9231 67.045 35.7372C67.191 35.553 67.3894 35.4067 67.6418 35.3C67.8942 35.1933 68.1683 35.1399 68.4622 35.1399C68.7561 35.1399 69.0302 35.1933 69.2827 35.3C69.5351 35.4067 69.7334 35.553 69.8795 35.7372C70.0256 35.9231 70.0977 36.1228 70.0977 36.3397V37.7821H70.4259V36.3397C70.4259 35.9403 70.2347 35.6012 69.8506 35.3189C69.4684 35.0384 69.005 34.8972 68.4604 34.8972C67.9159 34.8972 67.4543 35.0384 67.0702 35.3189C66.6879 35.5995 66.495 35.9403 66.495 36.3397" fill="white"/>
<path d="M75.9796 34.4864V35.3458H73.7612C73.5094 35.3458 73.2797 35.3956 73.0704 35.4926C72.8613 35.5895 72.707 35.7174 72.5961 35.8708C72.4875 36.0227 72.4396 36.1753 72.4396 36.3394C72.4396 36.5046 72.4882 36.6588 72.5961 36.808C72.707 36.9614 72.8613 37.0893 73.0704 37.1862C73.2797 37.2832 73.5094 37.3332 73.7612 37.3332H75.9796V38.1923H74.0475V38.196H73.7612C73.1709 38.196 72.6519 38.027 72.2199 37.6793L72.2198 37.6791C71.7844 37.3283 71.5425 36.8802 71.5425 36.3412C71.5426 35.802 71.7864 35.3522 72.2199 35.0033L72.2204 35.0029C72.6538 34.6558 73.1724 34.4864 73.7612 34.4864H75.9796ZM69.6246 36.3394C69.6246 36.1749 69.5763 36.0219 69.4672 35.8697V35.8695C69.3564 35.7166 69.2022 35.5893 68.9936 35.4926C68.7844 35.3956 68.5548 35.3458 68.3031 35.3458C68.0513 35.3458 67.8216 35.3956 67.6123 35.4926C67.4032 35.5895 67.2489 35.7174 67.138 35.8708C67.0294 36.0227 66.9815 36.1753 66.9815 36.3394V38.1941H66.0863V36.6391H66.0827V36.3394C66.0827 35.8002 66.3265 35.3504 66.7601 35.0015L66.7606 35.0009C67.1938 34.6539 67.7107 34.4846 68.3013 34.4846C68.8916 34.4846 69.4106 34.6538 69.8426 35.0015H69.8427C70.278 35.3523 70.5198 35.8003 70.5198 36.3394V38.1941H69.6246V36.3394Z" fill="#2E2E31"/>
<path d="M74.33 36.5462C74.5581 36.5462 74.7424 36.4535 74.7424 36.34C74.7424 36.2265 74.5581 36.1338 74.33 36.1338C74.102 36.1338 73.9177 36.2265 73.9177 36.34C73.9177 36.4535 74.102 36.5462 74.33 36.5462Z" fill="#2E2D31"/>
<path d="M82.1649 34.4866V35.0668H83.4818V38.196H84.1453V35.7795H84.1402V34.4846H82.1649V34.4866ZM84.7362 35.0668H85.4639V34.4866H84.7362V35.0668Z" fill="#2E2E31"/>
<path d="M83.9532 34.4846V34.6004H84.0681V35.6961H84.0735V38.196H83.143V35.2637H81.7526V34.4846H83.9532ZM81.9824 35.0283H83.373V37.9606H83.8436V35.9315H83.8382V34.72H81.9824V35.0283ZM85.464 34.4846V35.2637H84.4675V34.4846H85.464ZM84.6975 35.0283H85.234V34.72H84.6975V35.0283Z" fill="#2E2E31"/>
<path d="M80.0244 38.196H80.7536C80.8111 38.196 80.8398 38.174 80.8398 38.1318C80.8398 38.1044 80.8309 38.0806 80.8111 38.0622L79.8736 36.9558C79.8538 36.932 79.8305 36.9192 79.8017 36.9192C79.7676 36.9192 79.7281 36.9393 79.6832 36.9778C79.6383 37.0162 79.5754 37.0822 79.4964 37.1756C79.4174 37.269 79.3653 37.3295 79.3419 37.3588C79.3078 37.3936 79.2917 37.4302 79.2917 37.465C79.2917 37.4907 79.306 37.5218 79.3348 37.5603L79.8251 38.1373C79.8592 38.1758 79.9257 38.196 80.0262 38.196M76.973 38.196H77.7022C77.8027 38.196 77.8728 38.1758 77.9123 38.1373L80.8991 34.622C80.9189 34.5964 80.9278 34.5707 80.9278 34.5432C80.9278 34.5048 80.9045 34.4846 80.856 34.4846L80.134 34.4901C80.0657 34.4901 80.0173 34.4919 79.9867 34.4974C79.9562 34.5029 79.9328 34.5139 79.9185 34.5322L78.866 35.7706L77.8207 34.5322C77.7973 34.5048 77.7435 34.4901 77.6626 34.4901H77.6195L76.876 34.4846C76.8275 34.4846 76.8041 34.5048 76.8041 34.5432C76.8041 34.5707 76.8131 34.5982 76.8329 34.622L78.3398 36.3897L76.9191 38.0622C76.8993 38.0806 76.8904 38.1025 76.8904 38.1318C76.8904 38.174 76.9191 38.196 76.9766 38.196" fill="#2E2E31"/>
<path d="M76.9501 34.4846L77.6661 34.4899H77.7072C77.75 34.4899 77.7894 34.4937 77.8234 34.5028C77.8521 34.5105 77.8826 34.5235 77.9068 34.5465L77.9168 34.557L77.9169 34.5571L78.8661 35.6761L79.8221 34.557C79.8523 34.5203 79.8946 34.5049 79.9321 34.4982C79.9689 34.4916 80.0219 34.4901 80.0867 34.4901L80.7819 34.4846H80.7824C80.8142 34.4846 80.8519 34.4909 80.8826 34.5162C80.9163 34.5439 80.9278 34.583 80.9278 34.6182C80.9278 34.6639 80.9121 34.7049 80.8839 34.7413L80.8827 34.7428L80.8816 34.7442L78.0051 38.1132L78.0028 38.1159L78.0001 38.1183C77.9402 38.1762 77.8477 38.196 77.7452 38.196H77.043C77.0088 38.1956 76.9706 38.1889 76.9391 38.1654C76.9023 38.138 76.8873 38.0974 76.8872 38.0573C76.8872 38.0116 76.902 37.9706 76.9352 37.9378L78.2583 36.3878L76.8506 34.7444L76.8499 34.7435C76.819 34.7064 76.8042 34.6623 76.8041 34.6182C76.8041 34.583 76.8157 34.5439 76.8494 34.5162C76.8801 34.4909 76.9178 34.4846 76.9496 34.4846H76.9501ZM79.7672 36.8178C79.8209 36.8178 79.8631 36.8432 79.8938 36.8796L80.7954 37.9383C80.8288 37.9717 80.8431 38.0143 80.8431 38.0573C80.843 38.0974 80.828 38.138 80.7912 38.1654C80.7587 38.1897 80.719 38.196 80.6839 38.196H79.9816C79.8814 38.1957 79.7888 38.1766 79.7333 38.1144L79.7321 38.1132L79.26 37.5601L79.2583 37.5582L79.2569 37.5563C79.2273 37.5169 79.1999 37.4695 79.1999 37.4181C79.1999 37.3616 79.2254 37.3102 79.2652 37.2676C79.2887 37.2383 79.3406 37.1785 79.4156 37.0903C79.4924 36.9999 79.5561 36.933 79.6041 36.8922C79.6511 36.8521 79.7068 36.8178 79.7672 36.8178ZM80.0877 34.6444H80.0872C80.0207 34.6444 79.9805 34.6463 79.9586 34.6502C79.9489 34.652 79.943 34.6542 79.94 34.6557C79.9382 34.6566 79.9378 34.657 79.9382 34.6567L79.938 34.6571L79.9372 34.6581L78.8657 35.9125L78.8083 35.8447L77.8024 34.659C77.8009 34.658 77.7959 34.6553 77.7847 34.6523C77.7676 34.6477 77.7421 34.6444 77.7072 34.6444H77.6651L76.9629 34.6393C76.9637 34.6404 76.9645 34.6417 76.9655 34.6429L78.4166 36.337L78.46 36.3876L77.0486 38.0411L77.0482 38.0415H77.7452C77.8337 38.0415 77.876 38.0234 77.8933 38.0079L80.7645 34.6451C80.7661 34.643 80.7674 34.6411 80.7686 34.6393L80.0877 34.6444ZM79.3554 37.4267C79.3592 37.4349 79.3659 37.4464 79.3772 37.4615L79.8461 38.0106L79.8586 38.0201C79.8768 38.0303 79.9138 38.0415 79.9834 38.0415H80.6821L80.6817 38.041L79.7787 36.9806L79.7782 36.9801C79.7739 36.9749 79.7712 36.9733 79.7704 36.9729C79.77 36.9727 79.7697 36.9726 79.7694 36.9726C79.7691 36.9725 79.7684 36.9724 79.7672 36.9724C79.762 36.9724 79.7415 36.9768 79.702 37.0104C79.6635 37.0433 79.6061 37.1027 79.5308 37.1913C79.4535 37.2822 79.405 37.3382 79.3835 37.3652L79.3809 37.3682L79.3782 37.371C79.3556 37.394 79.3521 37.4105 79.352 37.4181C79.352 37.416 79.3516 37.4183 79.3554 37.4267Z" fill="#2E2E31"/>
<path d="M52.062 18.8143C52.7446 18.8143 53.2991 18.26 53.2991 17.5772C53.2991 16.8944 52.7446 16.3401 52.062 16.3401C51.3794 16.3401 50.8249 16.8944 50.8249 17.5772C50.8249 18.26 51.3794 18.8143 52.062 18.8143Z" fill="#ED2069"/>
<path d="M72.0619 18.8143C72.8583 18.8143 73.5052 18.26 73.5052 17.5772C73.5052 16.8944 72.8583 16.3401 72.0619 16.3401C71.2655 16.3401 70.6186 16.8944 70.6186 17.5772C70.6186 18.26 71.2655 18.8143 72.0619 18.8143Z" fill="#6753A3"/>
<path d="M68.1444 28.2994C68.827 28.2994 69.3815 27.6528 69.3815 26.8561C69.3815 26.0595 68.827 25.4128 68.1444 25.4128C67.4618 25.4128 66.9073 26.0595 66.9073 26.8561C66.9073 27.6528 67.4618 28.2994 68.1444 28.2994Z" fill="#F6884B"/>
<path d="M35.1508 17.3196C34.5811 16.8692 33.8538 16.4362 33.0083 16.0434C33.2214 16.6771 33.4185 17.3423 33.6012 18.0406C33.8663 19.0497 32.3114 19.4356 32.0463 18.4265C31.7418 17.2602 31.4014 16.211 31.0288 15.2717C30.4305 15.0779 29.7999 14.9033 29.146 14.7549C30.9338 17.1328 30.1958 20.6664 33.3916 20.0955C34.4432 19.907 34.7334 21.4451 33.6818 21.6336C26.9677 22.8365 31.0897 14.2783 24.0764 14.2783C20.2016 14.2783 19.3364 17.2934 19.3364 20.2526C19.3364 21.1081 19.4797 21.9845 19.4797 22.6497C19.4797 24.9595 18.0233 26.6704 15.7733 27.1994C15.9883 27.6097 16.2194 28.0112 16.463 28.4023C18.0054 28.123 19.2289 27.3268 20.1461 26.1606C20.7964 25.3331 22.07 26.2846 21.4198 27.1121C20.3449 28.4774 19.0032 29.38 17.4303 29.8025C17.6399 30.0783 17.8585 30.3489 18.0842 30.6125C19.0014 30.2913 19.6714 29.9963 20.1909 29.7466C20.9558 29.3817 22.0199 28.6659 22.9012 28.6659C23.3133 28.6659 23.7575 28.7637 24.2179 28.8981C26.4034 29.5406 28.2736 30.3646 30.5093 30.7732C30.7619 30.4834 31.0055 30.1883 31.2384 29.8845C25.0151 28.6973 20.5474 25.5565 20.5474 19.6817C20.5474 17.7456 21.3195 15.4795 24.0925 15.4795C26.3353 15.4795 27.0555 16.9303 27.6663 18.6482C28.9382 22.2237 30.5988 23.3306 34.47 23.3009C34.968 21.4276 35.2009 19.4251 35.1472 17.3196" fill="url(#paint0_linear_4520_6950)"/>
<path d="M21.5466 33.8394C22.43 34.5313 23.3798 35.1586 24.3925 35.7213C25.1268 35.3145 26.4483 34.4458 26.495 34.3963C26.2652 34.2899 26.1 34.2196 25.9941 34.172C25.1681 33.7899 24.3099 33.3337 23.3978 33.2558C23.1589 33.2349 22.9183 33.2501 22.6867 33.3185C22.4731 33.3793 22.2702 33.4744 22.0709 33.5751C21.9685 33.6265 21.868 33.6816 21.7656 33.7348C21.7423 33.7462 21.5699 33.8603 21.5466 33.8413V33.8394Z" fill="#F68749"/>
<path d="M19.0723 31.9477C19.3874 32.2816 19.7131 32.6043 20.0512 32.9159L20.2566 32.8102C21.0124 32.4207 21.9276 31.7344 22.8003 31.7344C23.2056 31.7344 23.8146 31.8365 24.2677 31.9811C25.5776 32.3947 26.6751 32.8325 27.939 33.2479C28.1213 33.0884 28.2647 32.9679 28.4417 32.8009C28.6081 32.6451 28.8825 32.3539 28.9692 32.2705C28.8223 32.2148 27.477 31.7344 27.169 31.6232C26.4857 31.3783 25.8378 31.0964 25.1475 30.8775C24.4801 30.6661 23.7154 30.3656 23.0109 30.3656C22.2356 30.3174 21.5682 30.6828 20.8814 31.0278C20.2796 31.332 19.6936 31.6825 19.0723 31.9459V31.9477Z" fill="url(#paint1_linear_4520_6950)"/>
<path d="M15.3608 16.3401C14.7239 16.6716 14.1696 17.0273 13.7186 17.3951C13.6669 19.4913 13.8941 21.4856 14.3796 23.3504C15.051 22.9999 15.113 22.3368 15.0734 21.0833C15.02 19.3428 14.9563 17.8561 15.3608 16.3418V16.3401Z" fill="url(#paint2_linear_4520_6950)"/>
<path d="M19.4846 14.6909C18.7978 14.8599 18.1394 15.0574 17.52 15.2797C17.0586 16.2225 16.8563 17.1476 16.7764 18.037C16.5546 20.499 17.6318 23.7846 14.9485 24.9053C15.0567 25.2166 15.1721 25.5225 15.2945 25.8249C20.5902 24.2933 15.8891 18.2914 19.4846 14.6909Z" fill="url(#paint3_linear_4520_6950)"/>
<path d="M33.8824 25.0308L33.9176 24.9224L33.7487 24.9079C31.8057 24.7616 30.2464 24.2827 28.9792 23.446C27.8634 22.7088 27.1331 21.7817 26.7424 20.609C26.6139 20.2204 26.5048 19.8608 26.4009 19.5121C25.9222 17.911 25.5773 16.7527 24.0972 16.7527C22.6171 16.7527 21.9589 17.6942 21.9589 19.6313C22.1366 24.458 25.4981 27.6456 31.95 29.1148L31.9905 29.1238L32.0503 29.0226L32.0908 28.954C32.1454 28.8618 32.1999 28.7606 32.251 28.6594C32.2527 28.654 32.2562 28.6504 32.258 28.6468C32.3231 28.5221 32.3847 28.3956 32.4463 28.2691C32.4762 28.2076 32.5062 28.1462 32.5361 28.0866C32.5678 28.0215 32.5994 27.9583 32.6311 27.8986L32.6716 27.8191L32.7156 27.736L32.7701 27.6312L32.5854 27.5987C29.9015 27.1144 27.6329 26.162 26.0226 24.8465C24.2081 23.3647 23.3545 21.3155 23.5551 18.9248C23.5921 18.4911 23.8385 18.3357 24.0585 18.3357C24.3031 18.3357 24.597 18.529 24.6973 18.9591C25.6107 22.8624 27.3689 25.4699 33.2964 26.4006L33.358 26.4114L33.402 26.2922L33.4143 26.2614L33.4759 26.1133C33.5375 25.9669 33.5885 25.8422 33.6378 25.7157C33.6994 25.5639 33.7575 25.4067 33.8279 25.1989L33.8437 25.1501L33.8824 25.0363V25.0308Z" fill="url(#paint4_linear_4520_6950)"/>
<defs>
<linearGradient id="paint0_linear_4520_6950" x1="19.1913" y1="24.4165" x2="37.9205" y2="19.5828" gradientUnits="userSpaceOnUse">
<stop offset="0.03" stop-color="#F68749"/>
<stop offset="0.06" stop-color="#F47D4B"/>
<stop offset="0.1" stop-color="#F26354"/>
<stop offset="0.16" stop-color="#ED3961"/>
<stop offset="0.19" stop-color="#EB2069"/>
<stop offset="0.67" stop-color="#6854A3"/>
<stop offset="0.74" stop-color="#6854A3"/>
<stop offset="0.81" stop-color="#6854A3"/>
<stop offset="0.86" stop-color="#6854A3"/>
<stop offset="0.97" stop-color="#6854A3"/>
</linearGradient>
<linearGradient id="paint1_linear_4520_6950" x1="19.0723" y1="31.8068" x2="28.9692" y2="31.8068" gradientUnits="userSpaceOnUse">
<stop stop-color="#F68749"/>
<stop offset="0.28" stop-color="#F3864A"/>
<stop offset="0.45" stop-color="#EB834F"/>
<stop offset="0.58" stop-color="#DD7E58"/>
<stop offset="0.7" stop-color="#C97665"/>
<stop offset="0.8" stop-color="#AF6D75"/>
<stop offset="0.9" stop-color="#906289"/>
<stop offset="0.99" stop-color="#6B55A0"/>
<stop offset="1" stop-color="#6854A3"/>
</linearGradient>
<linearGradient id="paint2_linear_4520_6950" x1="12.9284" y1="22.5095" x2="16.214" y2="16.8339" gradientUnits="userSpaceOnUse">
<stop stop-color="#F68749"/>
<stop offset="0.02" stop-color="#F5834A"/>
<stop offset="0.21" stop-color="#F15F55"/>
<stop offset="0.41" stop-color="#EE435D"/>
<stop offset="0.6" stop-color="#EC2F64"/>
<stop offset="0.8" stop-color="#EB2367"/>
<stop offset="1" stop-color="#EB2069"/>
</linearGradient>
<linearGradient id="paint3_linear_4520_6950" x1="13.8819" y1="25.1703" x2="16.4315" y2="21.41" gradientUnits="userSpaceOnUse">
<stop stop-color="#F68749"/>
<stop offset="0.2" stop-color="#F5834A"/>
<stop offset="0.4" stop-color="#F4774D"/>
<stop offset="0.59" stop-color="#F26453"/>
<stop offset="0.78" stop-color="#EF495C"/>
<stop offset="0.97" stop-color="#EB2666"/>
<stop offset="1" stop-color="#EB2069"/>
</linearGradient>
<linearGradient id="paint4_linear_4520_6950" x1="22.4182" y1="21.274" x2="33.9673" y2="24.4675" gradientUnits="userSpaceOnUse">
<stop stop-color="#EB2069"/>
<stop offset="0.07" stop-color="#D22973"/>
<stop offset="0.18" stop-color="#B13682"/>
<stop offset="0.29" stop-color="#96418E"/>
<stop offset="0.42" stop-color="#824997"/>
<stop offset="0.57" stop-color="#734F9D"/>
<stop offset="0.73" stop-color="#6A52A1"/>
<stop offset="1" stop-color="#6854A3"/>
</linearGradient>
</defs>
</svg>
