<svg width="100" height="50" viewBox="0 0 100 50" fill="none" xmlns="http://www.w3.org/2000/svg">
<path d="M95.1303 28.6413H95.5103C95.5959 28.6413 95.6603 28.6208 95.7043 28.5813C95.7489 28.541 95.7709 28.4832 95.7709 28.4093C95.7709 28.3331 95.7518 28.2753 95.713 28.2358C95.6742 28.197 95.6113 28.1772 95.5256 28.1772H95.1311V28.6413H95.1303ZM95.0198 29.265V28.0784H95.5491C95.6552 28.0784 95.7379 28.1069 95.7972 28.164C95.8565 28.2204 95.8858 28.2995 95.8858 28.3983C95.8858 28.5462 95.8192 28.6421 95.6867 28.6838V28.6889C95.7467 28.7094 95.7884 28.7431 95.8133 28.7914C95.8382 28.8397 95.8529 28.9107 95.8573 29.0044C95.8639 29.1552 95.8814 29.2394 95.9085 29.2585V29.265H95.7892C95.776 29.2563 95.7665 29.235 95.7621 29.2021C95.757 29.1691 95.7518 29.1018 95.7467 28.9993C95.7423 28.899 95.7204 28.8295 95.6823 28.7921C95.6442 28.7548 95.5813 28.7358 95.492 28.7358H95.1303V29.265H95.0198Z" fill="black"/>
<path d="M95.4319 27.5285C94.8009 27.5285 94.2884 28.0417 94.2884 28.672C94.2884 29.3031 94.8009 29.8155 95.4319 29.8155C96.0629 29.8155 96.5754 29.3023 96.5754 28.672C96.5754 28.0417 96.0622 27.5285 95.4319 27.5285ZM95.4319 29.8902C94.7599 29.8902 94.2137 29.3433 94.2137 28.6713C94.2137 28 94.7599 27.4531 95.4319 27.4531C96.1039 27.4531 96.6508 28 96.6508 28.6713C96.6508 29.3433 96.1039 29.8902 95.4319 29.8902Z" fill="black"/>
<path d="M11.8485 24.2211H7.08784V22.7299H11.8111C12.3206 22.7299 12.6567 23.041 12.6567 23.4759C12.6567 23.9107 12.3206 24.2211 11.8485 24.2211ZM14.6837 24.8844C15.2694 24.4136 15.59 23.7013 15.59 23.1025C15.59 21.6604 14.4714 20.5667 12.582 20.5667H4.22839V22.7299L7.08784 26.2358H12.3711C12.8931 26.2358 13.2416 26.5337 13.2416 26.9817C13.2416 27.429 12.8931 27.7277 12.4085 27.7277H7.08784V26.2365H4.22839V29.8917H12.8924C15.1054 29.8917 16.1742 28.7475 16.1742 27.1809C16.1742 26.2548 15.664 25.3229 14.6837 24.8844Z" fill="black"/>
<path d="M22.6017 23.0037H26.8653V29.8902H29.7994V23.0037H34.0622V20.5667H22.6017V23.0037Z" fill="black"/>
<path d="M20.7745 20.5659H17.8411V29.8895H20.7745V20.5659Z" fill="black"/>
<path d="M82.1464 20.5667V23.0037H86.4107V29.8902H89.3441V23.0037H93.6076V20.5667H82.1464Z" fill="black"/>
<path d="M42.877 24.06L40.3411 23.948C38.9239 23.8857 38.4392 23.6866 38.4392 23.2891C38.4392 22.8916 38.9736 22.7166 40.5403 22.7166H41.97C43.4495 22.7166 44.2445 22.9524 44.4436 23.5622H47.5271C47.3031 21.4238 45.2892 20.3923 41.8704 20.3923H40.6779C37.0725 20.3923 35.4063 21.4868 35.4063 23.3887C35.4063 25.2906 36.9231 26.1859 39.8814 26.3096L42.6288 26.4216C44.1083 26.4838 44.6054 26.6698 44.6054 27.1303C44.6054 27.5527 44.1076 27.7393 42.467 27.7393H40.8638C39.2731 27.7393 38.5263 27.478 38.3155 26.8067H35.2328C35.4436 29.0563 37.2335 30.0629 40.9751 30.0629H42.3924C46.1581 30.0629 47.6127 28.9809 47.6127 27.0424C47.6127 24.8682 45.7731 24.1844 42.877 24.06Z" fill="black"/>
<path d="M77.3851 23.8485H70.9708V20.5667H68.0747V29.8902H70.9708V26.235H77.3851V29.8902H80.2811V20.5667H77.3851V23.8485Z" fill="black"/>
<path d="M52.3368 20.5659H49.4034V29.8895H52.3368V20.5659Z" fill="black"/>
<path d="M54.0893 25.2284C54.0893 27.6157 55.8419 29.8902 59.2108 29.8902H65.7613V25.2409H62.9019V27.4539H59.5703C58.0044 27.4539 57.0468 26.4847 57.0468 25.2292C57.0468 23.9744 58.0044 23.0044 59.5703 23.0044H65.7613V20.5674H59.2108C55.8419 20.5667 54.0893 22.8544 54.0893 25.2284Z" fill="black"/>
</svg>
