<svg width="100" height="50" viewBox="0 0 100 50" fill="none" xmlns="http://www.w3.org/2000/svg">
<g clip-path="url(#clip0_4520_7002)">
<mask id="mask0_4520_7002" style="mask-type:luminance" maskUnits="userSpaceOnUse" x="0" y="14" width="100" height="22">
<path d="M100 14H0V36H100V14Z" fill="white"/>
</mask>
<g mask="url(#mask0_4520_7002)">
<path d="M96.51 29.8008L95.6374 31.245V32.2932H95.1311V31.2434L94.2595 29.8008H94.8079L95.3858 30.8107L95.9564 29.8008H96.51Z" fill="#082233"/>
<path d="M93.0921 29.8008H93.5984V32.2932H93.1426L91.9505 30.5782V32.2932H91.4458V29.8008H91.9469L93.0921 31.4502V29.8008Z" fill="#082233"/>
<path d="M88.3937 32.2932L89.2921 29.8008H89.8268L90.7237 32.2932H90.2184L90.0137 31.7158H89.1121L88.9021 32.2932H88.3937ZM89.2242 31.2764H89.8926L89.561 30.287L89.2242 31.2764Z" fill="#082233"/>
<path d="M86.2058 32.2932V29.8008H87.129C87.3116 29.8008 87.4748 29.8322 87.6195 29.8954C87.7642 29.9575 87.8779 30.0493 87.9611 30.1713C88.0458 30.2932 88.0879 30.442 88.0879 30.6175C88.0879 30.7828 88.0516 30.9241 87.9769 31.0416C87.9027 31.159 87.799 31.2484 87.6648 31.3106C87.5316 31.3727 87.3753 31.4035 87.1948 31.4035H86.7158V32.2932H86.2058ZM86.7105 31.0142H87.1806C87.3079 31.0142 87.4121 30.9737 87.4932 30.8934C87.5742 30.8119 87.6142 30.711 87.6142 30.5919C87.6142 30.4728 87.5716 30.3696 87.4863 30.2972C87.4005 30.2237 87.2963 30.1866 87.1737 30.1866H86.7105V31.0142Z" fill="#082233"/>
<path d="M82.6731 32.2932V29.8008H83.4089L83.9831 31.5779L84.5626 29.8008H85.2968V32.2932H84.7841V30.3867L84.181 32.2932H83.7831L83.1831 30.3953V32.2932H82.6731Z" fill="#082233"/>
<path d="M80.73 32.3277C80.4932 32.3277 80.2874 32.2764 80.1137 32.1744C79.9416 32.0712 79.8079 31.9242 79.7132 31.7349C79.6195 31.544 79.5726 31.3166 79.5726 31.0522C79.5726 30.7877 79.62 30.558 79.7153 30.366C79.8111 30.1739 79.9458 30.0263 80.1189 29.9231C80.2926 29.8182 80.4963 29.7664 80.73 29.7664C80.9632 29.7664 81.1647 29.8182 81.3368 29.9214C81.5095 30.0251 81.6426 30.1727 81.7358 30.3642C81.8305 30.5563 81.8784 30.7854 81.8784 31.0522C81.8784 31.3189 81.8311 31.5423 81.7379 31.7333C81.6453 31.9242 81.5126 32.0712 81.3405 32.1744C81.1679 32.277 80.9642 32.3277 80.73 32.3277ZM80.73 31.9139C80.8526 31.9139 80.9579 31.8854 81.0468 31.8279C81.1379 31.7691 81.2068 31.6774 81.2553 31.552C81.3042 31.4255 81.3279 31.2613 81.3279 31.059C81.3279 30.8567 81.3037 30.6828 81.2537 30.554C81.2053 30.4252 81.1358 30.3312 81.0453 30.2713C80.9563 30.2103 80.8516 30.1802 80.73 30.1802C80.6084 30.1802 80.5026 30.2109 80.4126 30.2713C80.3221 30.3312 80.2521 30.4258 80.2026 30.5557C80.1526 30.6845 80.1279 30.8521 80.1279 31.059C80.1279 31.2659 80.1526 31.4266 80.2026 31.552C80.2521 31.6774 80.3221 31.7691 80.4126 31.8279C80.5026 31.8854 80.6084 31.9139 80.73 31.9139Z" fill="#082233"/>
<path d="M77.8716 29.7659C78.0595 29.7659 78.2274 29.8041 78.3742 29.8799C78.5226 29.9545 78.6416 30.0571 78.7316 30.1865C78.8232 30.3164 78.8768 30.4629 78.8932 30.6259H78.3626C78.3458 30.5398 78.3163 30.4635 78.2737 30.3968C78.2311 30.329 78.1747 30.276 78.1053 30.2383C78.0358 30.199 77.9526 30.1796 77.8558 30.1796C77.7389 30.1796 77.6384 30.2075 77.5537 30.264C77.4695 30.3204 77.4042 30.411 77.3595 30.5364C77.3142 30.6618 77.2921 30.8271 77.2921 31.0329C77.2921 31.3429 77.3411 31.568 77.4411 31.7065C77.5416 31.8445 77.68 31.9134 77.8558 31.9134C77.9526 31.9134 78.0358 31.8917 78.1053 31.8479C78.1747 31.8029 78.2311 31.7447 78.2737 31.6723C78.3163 31.5988 78.3458 31.5184 78.3626 31.4313H78.8932C78.8779 31.5498 78.8495 31.6626 78.8063 31.7709C78.7632 31.8781 78.7026 31.9733 78.6242 32.0571C78.5453 32.1408 78.4442 32.2069 78.3205 32.2554C78.1968 32.3038 78.0468 32.3278 77.8716 32.3278C77.6379 32.3278 77.4358 32.2736 77.2658 32.1659C77.0958 32.0582 76.9642 31.906 76.8721 31.7111C76.78 31.5156 76.7347 31.2876 76.7347 31.0266C76.7347 30.7656 76.78 30.5399 76.8721 30.3523C76.9632 30.1637 77.0942 30.0189 77.2637 29.918C77.4342 29.8171 77.6368 29.7664 77.8716 29.7664V29.7659Z" fill="#082233"/>
<path d="M75.189 29.8008L74.3163 31.245V32.2932H73.81V31.2434L72.939 29.8008H73.4869L74.0642 30.8107L74.6353 29.8008H75.189Z" fill="#082233"/>
<path d="M70.3511 30.2487V29.8008H72.3584V30.2487H71.6179V32.2932H71.1095V30.2487H70.3511Z" fill="#082233"/>
<path d="M69.151 29.8008H69.6557V32.2932H69.151V29.8008Z" fill="#082233"/>
<path d="M68.3352 32.2932H67.81L67.4021 31.3328H66.8937V32.2932H66.3889V29.8008H67.4473C67.6468 29.8008 67.811 29.8322 67.9379 29.8954C68.0652 29.9587 68.1594 30.0464 68.2189 30.1593C68.2794 30.271 68.3094 30.3992 68.3094 30.5452C68.3094 30.6762 68.2884 30.7868 68.2468 30.878C68.2063 30.9675 68.1526 31.0422 68.0858 31.102C68.02 31.1618 67.9479 31.2102 67.8684 31.2484L68.3352 32.2932ZM67.3568 30.9453C67.4921 30.9453 67.5994 30.9093 67.6779 30.837C67.7579 30.7646 67.7973 30.6717 67.7973 30.5577C67.7973 30.4437 67.7594 30.3519 67.6831 30.2853C67.6068 30.2186 67.51 30.1855 67.3937 30.1855H66.8937V30.9458H67.3568V30.9453Z" fill="#082233"/>
<path d="M65.5379 31.3437C65.5379 31.5448 65.5053 31.7192 65.4389 31.8674C65.3731 32.0145 65.2658 32.1284 65.1179 32.2088C64.971 32.288 64.7758 32.328 64.5331 32.328C64.2905 32.328 64.0937 32.2875 63.9468 32.2071C63.8 32.1256 63.6937 32.0099 63.6274 31.8606C63.5626 31.7113 63.5305 31.5329 63.5305 31.326V29.8008H64.0458V31.3641C64.0458 31.5505 64.091 31.6862 64.181 31.7728C64.271 31.8577 64.3889 31.9005 64.5331 31.9005C64.6289 31.9005 64.7142 31.8822 64.7884 31.8452C64.8626 31.807 64.92 31.7495 64.9616 31.6714C65.0047 31.5922 65.0258 31.4895 65.0258 31.3647V29.8014H65.5379V31.3437Z" fill="#082233"/>
<path d="M61.7153 29.7659C61.9037 29.7659 62.0716 29.8041 62.2185 29.8799C62.3663 29.9545 62.4853 30.0571 62.5758 30.1865C62.6669 30.3164 62.7211 30.4629 62.7369 30.6259H62.2058C62.19 30.5398 62.1606 30.4635 62.1174 30.3968C62.0753 30.329 62.019 30.276 61.9495 30.2383C61.88 30.199 61.7969 30.1796 61.6995 30.1796C61.5832 30.1796 61.4821 30.2075 61.3974 30.264C61.3132 30.3204 61.2485 30.411 61.2032 30.5364C61.1585 30.6618 61.1353 30.8271 61.1353 31.0329C61.1353 31.3429 61.1853 31.568 61.2848 31.7065C61.3858 31.8445 61.5237 31.9134 61.6995 31.9134C61.7969 31.9134 61.88 31.8917 61.9495 31.8479C62.019 31.8029 62.0753 31.7447 62.1174 31.6723C62.1606 31.5988 62.19 31.5184 62.2058 31.4313H62.7369C62.7221 31.5498 62.6932 31.6626 62.6506 31.7709C62.6074 31.8781 62.5469 31.9733 62.4679 32.0571C62.3895 32.1408 62.2885 32.2069 62.1648 32.2554C62.0406 32.3038 61.8911 32.3278 61.7153 32.3278C61.4816 32.3278 61.2795 32.2736 61.1095 32.1659C60.94 32.0582 60.8085 31.906 60.7158 31.7111C60.6242 31.5156 60.579 31.2876 60.579 31.0266C60.579 30.7656 60.6242 30.5399 60.7158 30.3523C60.8074 30.1637 60.9379 30.0189 61.1079 29.918C61.2779 29.8171 61.48 29.7664 61.7153 29.7664V29.7659Z" fill="#082233"/>
<path d="M58.158 32.2932V29.8008H59.8806L59.8785 30.2249H58.6659V30.8295H59.719V31.245H58.6627V31.864L59.898 31.8657V32.2932H58.158Z" fill="#082233"/>
<path d="M56.3505 32.3279C56.2268 32.3279 56.1058 32.3125 55.9863 32.2811C55.8668 32.2504 55.7584 32.2037 55.66 32.1415C55.5616 32.0794 55.4805 32.0019 55.4158 31.909C55.3521 31.8161 55.3142 31.7067 55.301 31.5813H55.8194C55.8368 31.6571 55.87 31.7209 55.9179 31.7728C55.9668 31.8246 56.0284 31.864 56.1021 31.8919C56.1763 31.9192 56.2584 31.9335 56.3484 31.9335C56.4384 31.9335 56.5258 31.9221 56.601 31.8987C56.6773 31.8759 56.7389 31.8411 56.7852 31.795C56.8321 31.7477 56.8547 31.6895 56.8547 31.6195C56.8547 31.5562 56.8358 31.5043 56.7973 31.4644C56.76 31.424 56.7105 31.3914 56.6468 31.3664C56.5831 31.3413 56.5105 31.3202 56.43 31.3043L55.9963 31.2165C55.8063 31.1811 55.6558 31.1065 55.5452 30.9925C55.4337 30.8774 55.3768 30.7246 55.3737 30.5343C55.3726 30.3781 55.4142 30.243 55.4989 30.129C55.5842 30.0139 55.7 29.9256 55.8458 29.8634C55.9926 29.8013 56.1568 29.7705 56.3384 29.7705C56.5547 29.7705 56.7368 29.8047 56.8837 29.872C57.0316 29.9387 57.1442 30.0293 57.22 30.1444C57.2979 30.2584 57.3379 30.3849 57.34 30.5252H56.8321C56.8226 30.4379 56.7963 30.3684 56.7521 30.3165C56.7079 30.2647 56.6516 30.2276 56.5821 30.2043C56.5142 30.1814 56.4363 30.1701 56.3484 30.1701C56.281 30.1701 56.22 30.1775 56.1642 30.1923C56.1094 30.2071 56.0637 30.2282 56.0252 30.2561C55.9873 30.2823 55.9579 30.3143 55.9368 30.3507C55.9163 30.3878 55.9058 30.4288 55.9058 30.475C55.9058 30.5474 55.93 30.6061 55.9789 30.6505C56.0273 30.6956 56.1184 30.732 56.2516 30.7605L56.6816 30.8483C56.8352 30.8779 56.9573 30.9224 57.0473 30.9811C57.1389 31.0398 57.2068 31.1059 57.2526 31.1795C57.2989 31.2529 57.3284 31.3282 57.3426 31.4052C57.3573 31.481 57.3647 31.551 57.3647 31.6155C57.3647 31.75 57.3216 31.8714 57.2363 31.9791C57.1521 32.0862 57.0337 32.1711 56.8826 32.2344C56.731 32.2965 56.5537 32.3273 56.351 32.3273L56.3505 32.3279Z" fill="#082233"/>
<path d="M53.7478 29.8008L52.8752 31.245V32.2932H52.3689V31.2434L51.498 29.8008H52.0465L52.6242 30.8107L53.1947 29.8008H53.7478Z" fill="#082233"/>
<path d="M48.9109 30.2487V29.8008H50.9181V30.2487H50.1775V32.2932H49.6693V30.2487H48.9109Z" fill="#082233"/>
<path d="M47.7108 29.8008H48.2157V32.2932H47.7108V29.8008Z" fill="#082233"/>
<path d="M45.0095 30.2487V29.8008H47.0167V30.2487H46.2762V32.2932H45.7679V30.2487H45.0095Z" fill="#082233"/>
<path d="M43.8089 29.8008H44.3154V32.2932H43.8594L42.6673 30.5782V32.2932H42.1625V29.8008H42.6639L43.8089 31.4502V29.8008Z" fill="#082233"/>
<path d="M39.5947 32.2932V29.8008H41.3174L41.3157 30.2249H40.103V30.8295H41.1562V31.245H40.0995V31.864L41.3346 31.8657V32.2932H39.5947Z" fill="#082233"/>
<path d="M36.7495 29.8008H37.0616C37.1413 29.8008 37.2205 29.8014 37.299 29.8025C37.3788 29.8025 37.4454 29.8031 37.4987 29.8042C37.8027 29.811 38.0511 29.8652 38.2433 29.9661C38.4355 30.067 38.576 30.2083 38.6649 30.3901C38.755 30.5719 38.8003 30.7868 38.8003 31.0347C38.8003 31.2826 38.7527 31.5169 38.658 31.7056C38.5634 31.8931 38.4183 32.0378 38.2226 32.1399C38.0282 32.2419 37.7815 32.2932 37.482 32.2932H36.7501V29.8008H36.7495ZM37.2595 30.2077V31.8868H37.4918C37.6352 31.8868 37.7655 31.8595 37.8819 31.8041C38 31.7489 38.0941 31.6588 38.1647 31.5334C38.2353 31.408 38.2708 31.241 38.2708 31.0319C38.2708 30.8375 38.2393 30.6802 38.1773 30.5594C38.1148 30.4374 38.0259 30.3485 37.91 30.2921C37.7941 30.2356 37.657 30.2077 37.4987 30.2077H37.2595Z" fill="#082233"/>
<path d="M35.3365 29.8008H35.8414V32.2932H35.3365V29.8008Z" fill="#082233"/>
<path d="M31.7036 32.2932V29.8008H33.4263L33.4246 30.2249H32.2119V30.8295H33.2651V31.245H32.2085V31.864L33.4435 31.8657V32.2932H31.7036Z" fill="#082233"/>
<path d="M30.2889 31.2228H29.1909V32.2932H28.6862V29.8008H29.1909V30.8005H30.2889V29.8008H30.7955V32.2932H30.2889V31.2228Z" fill="#082233"/>
<path d="M25.986 30.2487V29.8008H27.9932V30.2487H27.2526V32.2932H26.7443V30.2487H25.986Z" fill="#082233"/>
<path d="M19.3316 19.7525L18.9593 19.541L9.59784 14.167L0.134277 19.602V30.4231L0.26507 30.496L9.59784 35.8336L18.6524 30.6544L19.1922 30.3455V24.3172L18.6524 24.6261L14.3316 27.098V22.6102L19.323 19.7565L19.3311 19.7525H19.3316ZM9.88868 20.3543L13.8004 22.6062V27.098L9.88868 24.8501V20.3538V20.3543ZM9.32021 14.9478V19.7359L5.13884 22.1423L0.95231 19.7525L9.31963 14.9473L9.32021 14.9478ZM9.32021 20.3543V24.8501L5.40905 27.098V22.6062L9.32021 20.3543ZM0.683263 20.2158L4.86865 22.6062V27.4069L0.682689 29.8132V20.2158H0.683263ZM0.9655 30.2726L5.13884 27.8703L9.32879 30.2686L9.33684 35.0573L0.964926 30.2726H0.9655ZM9.60242 29.8012H9.59842L5.67463 27.5613L9.58579 25.3135L9.60242 25.3215L9.61905 25.3135L13.5303 27.5613L13.0799 27.8173L9.60647 29.8052H9.60242V29.8012ZM14.6064 27.5613L18.657 25.24V30.0286L18.2399 30.2686L9.86863 35.0533L9.87663 30.2646L14.6064 27.5574V27.5613ZM14.0706 22.1428L9.88926 19.7365V14.9473L18.2566 19.7519L14.0712 22.1423L14.0706 22.1428Z" fill="#082233"/>
<path d="M9.60295 35.996L0 30.504V19.5166L9.60295 14L19.619 19.7519L14.4842 22.6912V26.8534L19.3448 24.0733V30.431L9.60295 36V35.996ZM0.286254 30.3376L0.343619 30.37L9.607 35.6666L19.0625 30.26V24.5612L14.2019 27.3419V22.5247L19.0505 19.7525L9.607 14.3294L0.286254 19.683V30.3376ZM9.72916 35.3052L9.73721 30.1871L18.8038 24.996V30.1136L9.72916 35.3007V35.3046V35.3052ZM10.0235 30.3501L10.0154 34.8094L18.5176 29.9477V25.4845L10.0235 30.3461V30.3501ZM9.47905 35.3052L0.679205 30.2726L5.13879 27.7073L9.47163 30.1871L9.47963 35.3052H9.47905ZM1.25172 30.2726L9.19337 34.8134L9.18537 30.3541L5.13879 28.0412L1.25172 30.2772V30.2726ZM0.539811 30.0612V19.9713L5.01202 22.5281V27.4912L0.539811 30.0651V30.0612ZM0.826637 20.4632V29.5687L4.72576 27.3248V22.6906L0.826637 20.4632ZM9.607 29.9671H9.59895L5.3889 27.5608L9.58689 25.1505L13.8176 27.5608L9.60758 29.9671H9.607ZM9.59895 29.6377H9.60295L13.2445 27.5602L9.59895 25.4708L5.96142 27.5602L9.59895 29.6416V29.6377ZM5.26616 27.3448V22.5236L9.46416 20.1087V24.9339L5.26616 27.3442V27.3448ZM5.54837 22.686V26.8484L9.17332 24.7669V20.6017L5.54837 22.6872V22.686ZM13.9444 27.3448L9.74637 24.9345V20.1098L13.9444 22.5247V27.3459V27.3448ZM10.0332 24.7675L13.6582 26.8489V22.6866L10.0332 20.6012V24.7675ZM14.0717 22.3081L9.74695 19.8203V14.7033L18.5434 19.7559L14.0712 22.3127V22.3087L14.0717 22.3081ZM10.0332 19.6539L14.0717 21.9793L17.9708 19.7513L10.0321 15.1952V19.6545L10.0332 19.6539ZM5.13994 22.3081L0.667158 19.7519L9.46358 14.6993V19.8169L5.13879 22.3047V22.3087L5.13994 22.3081ZM1.23967 19.7519L5.13879 21.9798L9.17732 19.6545V15.1952L1.23967 19.7519Z" fill="#082233"/>
<path d="M72.6385 18.1497H74.3332L77.9143 26.5131H75.9937L75.2285 24.6511H71.6932L70.928 26.5131H69.0532L72.6343 18.1497H72.6385ZM74.5716 23.0381L73.4627 20.3445L72.3537 23.0381H74.5716Z" fill="#082233"/>
<path d="M79.4458 18.2119H83.2658C84.3284 18.2119 85.1526 18.5071 85.7005 19.056C86.1653 19.5177 86.4158 20.1703 86.4158 20.9557V20.9807C86.4158 22.319 85.6879 23.163 84.6253 23.5535L86.6669 26.5172H84.5163L82.7263 23.8612H81.2826V26.5172H79.4458V18.2119ZM83.1442 22.2438C84.04 22.2438 84.5542 21.7701 84.5542 21.0714V21.0463C84.5542 20.2649 84.0058 19.8619 83.1111 19.8619H81.2826V22.2477H83.1442V22.2438Z" fill="#082233"/>
<path d="M88.6753 18.2119H90.5121V21.8408L93.9011 18.2119H96.1227L92.7211 21.7325L96.2774 26.5126H94.0684L91.4785 22.9795L90.5121 23.9769V26.5166H88.6753V18.2119Z" fill="#082233"/>
<path d="M99.0421 18.8268C99.0421 18.9391 98.9627 19.0178 98.8121 19.0178H98.5148V18.6268H98.8037C98.95 18.6268 99.0379 18.6935 99.0379 18.8223M99.3432 18.8097C99.3432 18.531 99.1385 18.3692 98.8206 18.3692H98.2264V19.6994H98.5232V19.2714H98.7574L99.0421 19.6994H99.3848L99.0585 19.2212C99.23 19.1591 99.3479 19.0258 99.3479 18.8058M99.8537 19.0674C99.8537 19.6824 99.3721 20.1816 98.7406 20.1816C98.109 20.1816 97.6327 19.6869 97.6327 19.0719C97.6327 18.4569 98.109 17.9577 98.7448 17.9577C99.3806 17.9577 99.8537 18.4524 99.8537 19.0634M100 19.0674C100 18.3857 99.4522 17.8203 98.7448 17.8203C98.0374 17.8203 97.4858 18.3897 97.4858 19.0713C97.4858 19.753 98.0343 20.3184 98.7406 20.3184C99.4474 20.3184 100 19.749 100 19.0674Z" fill="#082233"/>
<path d="M30.2579 26.5287C27.852 26.5287 26.0359 24.6877 26.0359 22.2467C26.0359 19.8055 27.8767 17.915 30.3199 17.915C31.9296 17.915 32.825 18.5152 33.4773 19.1188L32.7012 20.0124C31.917 19.3171 31.1741 19.0071 30.3033 19.0071C28.5989 19.0071 27.3151 20.3806 27.3151 22.201C27.3151 24.0215 28.6276 25.4446 30.3033 25.4446C31.364 25.4446 32.0615 25.0228 32.7672 24.3811L33.5307 25.1591C32.5566 26.1354 31.6032 26.5367 30.2494 26.5367L30.2574 26.5281L30.2579 26.5287Z" fill="#082233"/>
<path d="M37.7872 26.5372V23.2229L34.4187 18.1111H35.8769L38.4257 22.1127L41.0037 18.1111H42.4069L39.051 23.1477L39.0383 26.5377H37.7872V26.5372Z" fill="#082233"/>
<path d="M43.9884 26.537V18.1104H47.8227C48.7876 18.1104 49.5517 18.3617 50.0387 18.8393C50.4104 19.2041 50.5894 19.6441 50.5894 20.1804C50.5894 21.0182 50.2137 21.6053 49.4025 22.0157L49.0778 22.1792L49.4237 22.2926C50.5722 22.6779 51.0845 23.2855 51.0845 24.2703C51.0845 25.6906 49.9102 26.537 47.946 26.537H43.9878H43.9884ZM45.2137 25.4855H47.9632C49.1547 25.4855 49.8333 24.9953 49.8333 24.1364C49.8333 23.2775 49.1289 22.7873 47.8479 22.7873H45.2137V25.486V25.4855ZM45.2137 21.7899H47.5066C48.6723 21.7899 49.3383 21.3038 49.3383 20.4534C49.3383 19.6487 48.6935 19.167 47.6179 19.167H45.2137V21.7899Z" fill="#082233"/>
<path d="M52.8605 26.537V18.1104H58.8152V19.179H54.0457V21.7518H58.2731V22.8204H54.0457V25.4729H58.8757V26.537H52.8605Z" fill="#082233"/>
<path d="M66.5879 26.537L64.5511 23.4952H62.5063V26.537H61.3411V18.1104H64.8895C65.86 18.1104 66.6516 18.3953 67.1805 18.9402C67.6021 19.3967 67.8248 20.0088 67.8248 20.7167C67.8248 21.982 67.1605 22.8745 65.9511 23.2393L65.7521 23.298L67.9484 26.537H66.5879ZM62.5063 22.4391H64.7816C65.9079 22.4391 66.6316 21.8064 66.6316 20.8261C66.6316 19.7951 65.9511 19.2001 64.77 19.2001H62.5063V22.4391Z" fill="#082233"/>
<path d="M98.1742 29.8474C98.1742 29.8987 98.1378 29.9346 98.0689 29.9346H97.9336V29.7562H98.0652C98.132 29.7562 98.172 29.7864 98.172 29.8452M98.3115 29.8394C98.3115 29.7123 98.2178 29.6383 98.0731 29.6383H97.8015V30.2452H97.9373V30.0498H98.0441L98.1742 30.2452H98.3305L98.1815 30.027C98.2599 29.9985 98.3136 29.938 98.3136 29.8371M98.5447 29.9568C98.5447 30.2373 98.3247 30.4652 98.0363 30.4652C97.7478 30.4652 97.5305 30.2395 97.5305 29.9586C97.5305 29.6776 97.7484 29.4502 98.0389 29.4502C98.3289 29.4502 98.5447 29.6759 98.5447 29.9546M98.611 29.9563C98.611 29.6451 98.361 29.3875 98.0389 29.3875C97.7163 29.3875 97.4636 29.6474 97.4636 29.9586C97.4636 30.2698 97.7141 30.5274 98.0363 30.5274C98.3589 30.5274 98.611 30.2675 98.611 29.9563Z" fill="#082233"/>
</g>
</g>
<defs>
<clipPath id="clip0_4520_7002">
<rect width="100" height="22" fill="white" transform="translate(0 14)"/>
</clipPath>
</defs>
</svg>
