<svg width="100" height="50" viewBox="0 0 100 50" fill="none" xmlns="http://www.w3.org/2000/svg">
<g clip-path="url(#clip0_4520_6991)">
<path d="M79.8162 18.5361L73.596 31.2924H86.0365L79.8162 18.5361ZM76.9704 29.1654L79.8162 23.3317L82.6621 29.1654H76.9704Z" fill="#8FE5F2"/>
<path d="M10 18.7346V31.2923H12.2959V26.327H19.2067V24.0863H12.2959V20.9771H19.2067V18.7346H10Z" fill="#8FE5F2"/>
<path d="M42.4894 24.7146H37.976V20.941H42.4894C43.4647 20.941 44.2283 21.7698 44.2283 22.8278C44.2283 23.8859 43.4487 24.7146 42.4894 24.7146ZM46.5241 22.8278C46.5241 20.5709 44.7141 18.7346 42.4894 18.7346H35.6801V31.2923H37.976V26.8343H41.9003L44.4507 31.2923H46.9851L44.1962 26.4534C45.5951 25.8052 46.5241 24.3716 46.5241 22.8296" fill="#8FE5F2"/>
<path d="M68.0058 24.7146H63.4923V20.941H68.0058C68.9811 20.941 69.7446 21.7698 69.7446 22.8278C69.7446 23.8859 68.9651 24.7146 68.0058 24.7146ZM72.0405 22.8278C72.0405 20.5709 70.2305 18.7346 68.0058 18.7346H61.1964V31.2905H63.4923V26.8325H67.4167L69.9671 31.2905H72.5014L69.7126 26.4516C71.1115 25.8034 72.0405 24.3698 72.0405 22.8278Z" fill="#8FE5F2"/>
<path d="M47.8287 18.7346V20.9771H52.4685V31.2923H54.7644V20.9771H59.3864V18.7346H47.8287Z" fill="#8FE5F2"/>
<path d="M27.4487 29.225C25.103 29.225 23.3357 27.4086 23.3357 25C23.3357 22.5914 25.1048 20.775 27.4487 20.775C29.7927 20.775 31.5617 22.5914 31.5617 25C31.5617 27.4086 29.7927 29.225 27.4487 29.225ZM27.4487 18.5C23.8554 18.5 21.0416 21.3546 21.0416 25C21.0416 28.6454 23.8554 31.5 27.4487 31.5C31.042 31.5 33.8558 28.6454 33.8558 25C33.8558 21.3546 31.042 18.5 27.4487 18.5Z" fill="#8FE5F2"/>
<path d="M87.8928 29.5591C88.0298 29.6403 88.1384 29.7523 88.2167 29.8967C88.295 30.0411 88.3341 30.2018 88.3341 30.3806C88.3341 30.5593 88.295 30.72 88.2167 30.8609C88.1384 31.0035 88.0298 31.1154 87.8928 31.1967C87.7557 31.2779 87.5991 31.3195 87.4229 31.3195C87.2467 31.3195 87.0901 31.2779 86.9513 31.1967C86.8125 31.1154 86.7039 31.0035 86.6256 30.8609C86.5473 30.7182 86.5081 30.5575 86.5081 30.3806C86.5081 30.2036 86.5473 30.0411 86.6256 29.8967C86.7039 29.7523 86.8125 29.6403 86.9513 29.5591C87.0901 29.4778 87.2467 29.4363 87.4229 29.4363C87.5991 29.4363 87.7557 29.4778 87.8928 29.5591ZM87.9622 30.9439C88.0992 30.7977 88.1686 30.6099 88.1686 30.3806C88.1686 30.1513 88.0992 29.9653 87.9622 29.8173C87.8251 29.671 87.6454 29.597 87.4229 29.597C87.2004 29.597 87.0171 29.671 86.8801 29.8173C86.743 29.9635 86.6736 30.1513 86.6736 30.3806C86.6736 30.6099 86.7413 30.7959 86.8801 30.9439C87.0189 31.092 87.1987 31.1642 87.4229 31.1642C87.6472 31.1642 87.8251 31.0902 87.9622 30.9439ZM87.7611 30.3698C87.7184 30.4221 87.6578 30.4546 87.5813 30.4709L87.859 30.8735L87.6222 30.8789L87.3677 30.4799H87.261V30.8789H87.0616V29.8696H87.4923C87.5938 29.8696 87.6756 29.8967 87.7344 29.9509C87.7949 30.005 87.8251 30.0791 87.8251 30.1748C87.8251 30.2524 87.8038 30.3174 87.7611 30.3698ZM87.261 30.3102H87.4781C87.5208 30.3102 87.5564 30.2993 87.5849 30.2777C87.6133 30.256 87.6258 30.2235 87.6258 30.1784C87.6258 30.1332 87.6116 30.1025 87.5849 30.0827C87.5564 30.0628 87.5208 30.052 87.4781 30.052H87.261V30.3102Z" fill="#8FE5F2"/>
</g>
<defs>
<clipPath id="clip0_4520_6991">
<rect width="80" height="13" fill="white" transform="translate(10 18.5)"/>
</clipPath>
</defs>
</svg>
