<svg width="100" height="50" viewBox="0 0 100 50" fill="none" xmlns="http://www.w3.org/2000/svg">
<g clip-path="url(#clip0_4494_6837)">
<path fill-rule="evenodd" clip-rule="evenodd" d="M26.6013 27.31C26.6013 27.2868 26.5947 27.2537 26.5947 27.2438V27.1876L26.5814 27.1313C26.2241 25.3644 25.1685 24.0772 23.4347 23.2996C23.4281 22.843 23.3751 22.393 23.2825 21.943C22.9747 20.5202 22.174 19.2496 21.0192 18.3562C19.4375 17.0294 17.5515 16.5099 15.4139 16.811H15.4007C13.4782 17.1088 11.7708 18.2007 10.6954 19.8154C10.0998 19.7459 9.49762 19.7889 8.91856 19.9378C7.29389 20.282 5.93063 21.3739 5.24569 22.8827C4.81222 22.9224 4.32581 22.9721 3.88904 23.0581L3.84933 23.0647C2.42651 23.4519 1.232 24.4214 0.560291 25.7317C-0.0849438 26.9626 -0.174284 28.4019 0.298888 29.7023C1.09964 31.8597 3.06843 33.1998 5.43098 33.1998H5.82143V32.035H5.42768C3.56477 32.035 2.0162 30.9828 1.38421 29.2887C1.02023 28.296 1.09302 27.1909 1.58936 26.2578C2.10554 25.2419 3.02542 24.4941 4.12397 24.1897C4.53758 24.1136 4.99421 24.0706 5.43429 24.0276H5.50709C5.82474 24.0276 6.10931 23.8357 6.22843 23.5412L6.24497 23.5048C6.84719 22.1945 7.81008 21.3971 9.19651 21.0794C9.66968 20.9504 10.1693 20.9206 10.6557 20.9834C11.0032 21.086 11.3771 20.9338 11.5624 20.6195C12.5352 19.1404 13.8918 18.2503 15.5926 17.9591C17.3993 17.7077 18.9445 18.1279 20.2879 19.2562L20.3111 19.2695C21.2574 19.9908 21.9126 21.0265 22.1541 22.1879C22.2435 22.6313 22.2865 23.0912 22.2865 23.5445V23.6405L22.3295 23.7695C22.399 24.0309 22.5942 24.2361 22.8523 24.3155C24.295 24.9342 25.1421 25.917 25.4399 27.3298C25.4465 27.4059 25.4564 27.482 25.4763 27.5648C25.4763 27.5879 25.4895 27.621 25.4895 27.6309V28.4681C25.4399 28.7725 25.3704 29.0769 25.2777 29.3714C24.8178 30.5791 23.8185 31.5023 22.5744 31.8597V33.0641C24.3215 32.6836 25.7509 31.4394 26.3763 29.7652L26.3895 29.7255C26.5053 29.3482 26.5914 28.9677 26.6509 28.5806V27.6343C26.6509 27.5317 26.6377 27.4324 26.6145 27.3331H26.6211L26.6145 27.3265L26.6013 27.31Z" fill="black"/>
<path d="M20.4218 27.7668H16.8945V30.0334H20.4218H20.4251V27.7668H20.4218Z" fill="#307FE2"/>
<path d="M12.4005 33.2658H15.9245V30.9993H12.4005V33.2658Z" fill="#307FE2"/>
<path d="M20.4257 26.4298C20.4257 25.3809 19.5753 24.5305 18.5264 24.5305H16.8984V26.7839H20.4422L20.429 26.4298H20.4257Z" fill="#307FE2"/>
<path d="M12.4005 24.5305V26.7971H15.9245V24.5305H12.4005Z" fill="#307FE2"/>
<path d="M7.90833 27.7668V30.0334H11.4356V27.7668H7.90833Z" fill="#307FE2"/>
<path d="M16.8933 33.2689H18.5213C19.5702 33.2689 20.4206 32.4185 20.4206 31.3696V31.0056H16.8768L16.89 33.2722H16.8933V33.2689Z" fill="#307FE2"/>
<path d="M7.90358 31.3636C7.90358 32.4125 8.75396 33.2629 9.80288 33.2629H11.4276V31.0095H7.90027V31.3636H7.90358Z" fill="#307FE2"/>
<path d="M7.90833 26.4294V26.7934H11.4356V24.54H9.81094C8.76202 24.54 7.91163 25.3904 7.91163 26.4393" fill="#307FE2"/>
<path d="M33.6837 20.196H40.2783V21.9299H35.7915V24.3056H39.8416V26.0395H35.7915V30.1557H33.687V20.196H33.6837Z" fill="black"/>
<path d="M40.5255 26.4496C40.5255 24.1367 41.9351 22.5881 44.205 22.5881C46.4749 22.5881 47.8845 24.1334 47.8845 26.4496C47.8845 28.7658 46.4749 30.3011 44.205 30.3011C41.9351 30.3011 40.5255 28.7492 40.5255 26.4496ZM45.7701 26.4363C45.7701 25.1326 45.2341 24.1698 44.2116 24.1698C43.1892 24.1698 42.63 25.1326 42.63 26.4363C42.63 27.74 43.166 28.6963 44.2116 28.6963C45.2572 28.6963 45.7701 27.7367 45.7701 26.4363Z" fill="black"/>
<path d="M48.9599 22.6874H50.9684V23.9911H51.0445C51.3159 23.0679 52.0041 22.5815 52.8379 22.5815C53.0464 22.5815 53.3045 22.6113 53.4865 22.6543V24.4908C53.2913 24.4279 52.8975 24.3816 52.6129 24.3816C51.6997 24.3816 51.0247 25.0136 51.0247 25.9334V30.1588H48.9533V22.6907H48.9599V22.6874Z" fill="black"/>
<path d="M58.6292 24.2427H57.2229V27.8593C57.2229 28.4351 57.5108 28.5873 57.9211 28.5873C58.1163 28.5873 58.3347 28.5376 58.4373 28.5178L58.7615 30.0597C58.5531 30.1292 58.1726 30.2351 57.6398 30.2549C56.1376 30.3178 55.1416 29.5932 55.1482 28.1273V24.2361H54.1291V22.681H55.1482V20.8909H57.2196V22.681H58.6259V24.2361V24.2427H58.6292Z" fill="black"/>
<path d="M59.6252 20.6729C59.6252 20.0972 60.1281 19.6306 60.7436 19.6306C61.359 19.6306 61.8653 20.1005 61.8653 20.6729C61.8653 21.2453 61.3624 21.7218 60.7436 21.7218C60.1248 21.7218 59.6252 21.252 59.6252 20.6729ZM59.7013 22.688H61.7727V30.1561H59.7013V22.688Z" fill="black"/>
<path d="M69.8487 23.6804C69.6898 22.5884 68.856 21.92 67.7045 21.92C66.1626 21.92 65.15 23.1013 65.15 25.1727C65.15 27.244 66.1758 28.4253 67.688 28.4253C68.8097 28.4253 69.6468 27.8131 69.8487 26.7477L71.9763 26.7543C71.748 28.5907 70.206 30.2815 67.6549 30.2815C65.1037 30.2815 63.0158 28.4153 63.0158 25.166C63.0158 21.9167 65.0243 20.0505 67.6549 20.0505C69.9612 20.0505 71.6983 21.3741 71.9763 23.6737H69.8487V23.6804Z" fill="black"/>
<path d="M75.2496 30.1557H73.1782V20.196H75.2496V30.1557Z" fill="black"/>
<path d="M76.3306 26.4496C76.3306 24.1367 77.7402 22.5881 80.0034 22.5881C82.2667 22.5881 83.6829 24.1334 83.6829 26.4496C83.6829 28.7658 82.2733 30.3011 80.0034 30.3011C77.7335 30.3011 76.3306 28.7492 76.3306 26.4496ZM81.5752 26.4363C81.5752 25.1326 81.0391 24.1698 80.0167 24.1698C78.9942 24.1698 78.435 25.1326 78.435 26.4363C78.435 27.74 78.9711 28.6963 80.0167 28.6963C81.0623 28.6963 81.5752 27.7367 81.5752 26.4363Z" fill="black"/>
<path d="M89.5519 22.6882H91.6232V30.1563H89.6346V28.7997H89.5585C89.221 29.6732 88.4136 30.2556 87.2919 30.2556C85.7897 30.2556 84.7672 29.1901 84.7639 27.4431V22.6882H86.8353V27.0725C86.8419 27.9526 87.3448 28.5019 88.1257 28.5019C88.9066 28.5019 89.5552 27.9758 89.5486 26.9765V22.6882H89.5519Z" fill="black"/>
<path d="M92.7205 26.4305C92.7205 23.8629 94.1069 22.5923 95.7448 22.5923C96.9956 22.5923 97.5945 23.3368 97.8724 23.9456H97.9353V20.2H100V30.1596H97.9585V28.9651H97.8691C97.5812 29.5872 96.9559 30.282 95.7481 30.282C94.0473 30.282 92.7172 28.9353 92.7172 26.4372V26.4305H92.7205ZM97.9783 26.4239C97.9783 25.0904 97.4125 24.2401 96.4099 24.2401C95.4073 24.2401 94.8382 25.1302 94.8382 26.4239C94.8382 27.7177 95.3908 28.6309 96.4099 28.6309C97.429 28.6309 97.9783 27.7574 97.9783 26.4239Z" fill="black"/>
</g>
<defs>
<clipPath id="clip0_4494_6837">
<rect width="100" height="50" fill="white"/>
</clipPath>
</defs>
</svg>
