<svg width="100" height="50" viewBox="0 0 100 50" fill="none" xmlns="http://www.w3.org/2000/svg">
<g clip-path="url(#clip0_4494_6861)">
<path fill-rule="evenodd" clip-rule="evenodd" d="M16.434 11.1191H17.8681V13.9741H15V11.1191H16.434ZM83.5103 26.9422H84.9444V29.7972H82.0762V26.9422H83.5103Z" fill="#285AE6"/>
<path fill-rule="evenodd" clip-rule="evenodd" d="M34.4907 18.8999C34.4907 16.5676 33.2182 15.0999 31.0974 15.0999C29.6432 15.0999 28.6536 15.6629 27.987 16.3867C27.4215 15.6227 26.452 15.0798 25.22 15.0798C24.0687 15.0798 23.1194 15.5222 22.6145 16.1655V15.3211H19.7464V25.595H22.5943V18.9803C22.7761 18.1158 23.4628 17.6533 24.2101 17.6533C25.1998 17.6533 25.6643 18.3771 25.6643 19.4829V25.595H28.5526V18.9803C28.7344 18.1158 29.4009 17.6533 30.1482 17.6533C31.1379 17.6533 31.6226 18.3771 31.6226 19.4829V25.595H34.4907V18.8999ZM15 25.595H17.8681V15.3211H16.434H15V25.595ZM39.1967 29.7971H36.3287V15.3211H39.1967V16.1655C39.6612 15.6227 40.6711 15.0798 41.782 15.0798C44.7914 15.0798 46.488 17.5528 46.488 20.448C46.488 23.3432 44.7712 25.7961 41.782 25.7961C40.6711 25.7961 39.6612 25.2734 39.1967 24.7104V29.7971ZM41.1357 23.3432C40.3076 23.3432 39.5401 22.8607 39.1967 22.157V18.7592C39.5401 18.0756 40.2874 17.5729 41.1357 17.5729C42.6707 17.5729 43.5998 18.8194 43.5998 20.4681C43.5998 22.0967 42.6909 23.3432 41.1357 23.3432ZM53.2946 23.484C51.7859 23.484 50.5576 22.7859 50.3283 21.1316H56.9503V20.2067C56.9503 17.1708 55.4153 15.0999 52.4059 15.0999C49.5984 15.0999 47.5585 17.3317 47.5585 20.5486C47.5585 23.8056 49.7196 25.8363 52.8502 25.8363C54.2439 25.8363 55.3951 25.5548 56.2434 24.9315V22.5792C55.2335 23.2226 54.4256 23.484 53.2946 23.484ZM54.3247 19.2618H50.4265C50.7497 17.975 51.5576 17.3719 52.5069 17.3719C53.638 17.3719 54.2641 18.1559 54.3247 19.2618ZM64.7668 18.1359C64.383 17.9147 63.8579 17.7941 63.3328 17.7941C62.3633 17.7941 61.5756 18.2967 61.3736 19.2417V25.595H58.5055V15.3211H61.3736V16.3264C61.818 15.5825 62.6663 15.0798 63.6761 15.0798C64.1608 15.0798 64.6052 15.1804 64.7668 15.2608V18.1359ZM65.3323 15.3211L69.2305 25.595H71.9975L75.9159 15.3211H73.0273L70.7049 22.1369L68.3216 15.3211H65.3323ZM82.0961 19.1814C82.0961 18.1962 81.2479 17.5729 79.794 17.5729C78.7636 17.5729 77.7945 17.8745 76.986 18.3972V15.9444C77.7337 15.4819 79.0667 15.0999 80.4196 15.0999C83.2679 15.0999 84.9642 16.5475 84.9642 19.0607V25.595H82.0961V25.0522C81.7532 25.3939 80.7432 25.7961 79.6118 25.7961C77.5316 25.7961 75.7944 24.6099 75.7944 22.4585C75.7944 20.5083 77.5316 19.1814 79.794 19.1814C80.7029 19.1814 81.6925 19.4829 82.0961 19.7845V19.1814ZM80.2783 21.1517C81.0867 21.1517 81.8338 21.5136 82.0961 22.0564V22.7803C81.8537 23.3432 81.0867 23.685 80.2783 23.685C79.3898 23.685 78.461 23.3231 78.461 22.4183C78.461 21.5337 79.3699 21.1517 80.2783 21.1517Z" fill="#285AE6"/>
<path d="M32.7331 37.5352C32.035 37.5352 31.5084 37.1539 31.5084 36.4344C31.5084 35.61 32.1875 35.398 32.8975 35.3217C33.5432 35.2526 33.8029 35.2407 33.8029 34.993V34.9786C33.8029 34.6189 33.5837 34.414 33.1834 34.414C32.7617 34.414 32.5187 34.6284 32.4329 34.8786L31.6276 34.7642C31.8182 34.0971 32.4091 33.754 33.1787 33.754C33.8767 33.754 34.6653 34.0447 34.6653 35.012V37.4613H33.8362V36.9586H33.8076C33.6504 37.2659 33.3073 37.5352 32.7331 37.5352ZM32.9571 36.9014C33.4764 36.9014 33.8053 36.5559 33.8053 36.1485V35.7173C33.6933 35.8078 33.2406 35.865 33.0142 35.8959C32.6283 35.9508 32.34 36.0889 32.34 36.4201C32.34 36.737 32.5973 36.9014 32.9571 36.9014ZM36.3328 33.3227V32.5818H40.226V33.3227H38.7177V37.4613H37.841V33.3227H36.3328ZM41.4569 35.317V37.4613H40.5945V32.5818H41.4379V34.4235H41.4808C41.65 34.0089 42.0073 33.754 42.5696 33.754C43.3297 33.754 43.83 34.2472 43.83 35.1311V37.4613H42.9675V35.2646C42.9675 34.7714 42.7006 34.4831 42.2479 34.4831C41.7858 34.4831 41.4569 34.788 41.4569 35.317ZM45.4184 37.5352C44.7203 37.5352 44.1938 37.1539 44.1938 36.4344C44.1938 35.61 44.8728 35.398 45.5828 35.3217C46.2285 35.2526 46.4882 35.2407 46.4882 34.993V34.9786C46.4882 34.6189 46.269 34.414 45.8687 34.414C45.447 34.414 45.204 34.6284 45.1182 34.8786L44.3129 34.7642C44.5035 34.0971 45.0944 33.754 45.8639 33.754C46.5621 33.754 47.3507 34.0447 47.3507 35.012V37.4613H46.5215V36.9586H46.493C46.3357 37.2659 45.9926 37.5352 45.4184 37.5352ZM45.6423 36.9014C46.1618 36.9014 46.4906 36.5559 46.4906 36.1485V35.7173C46.3786 35.8078 45.9259 35.865 45.6995 35.8959C45.3136 35.9508 45.0253 36.0889 45.0253 36.4201C45.0253 36.737 45.2826 36.9014 45.6423 36.9014ZM48.7365 32.5818V37.4613H47.8741V32.5818H48.7365ZM50.8997 37.5328C49.7966 37.5328 49.1224 36.8013 49.1224 35.6529C49.1224 34.5236 49.8061 33.754 50.8545 33.754C51.7551 33.754 52.527 34.3187 52.527 35.6029V35.8674H49.9777C49.9848 36.494 50.3541 36.8609 50.9117 36.8609C51.2833 36.8609 51.5692 36.6988 51.686 36.3892L52.4913 36.4796C52.3388 37.1158 51.7527 37.5328 50.8997 37.5328ZM49.9801 35.286H51.7003C51.6956 34.788 51.362 34.4259 50.8664 34.4259C50.3518 34.4259 50.0063 34.819 49.9801 35.286ZM55.8053 34.769L55.0191 34.8548C54.9523 34.6141 54.7427 34.3973 54.3448 34.3973C53.985 34.3973 53.711 34.5688 53.7134 34.8166C53.711 35.0287 53.8587 35.1573 54.2304 35.2407L54.8546 35.3741C55.5456 35.5242 55.8815 35.8435 55.8839 36.3653C55.8815 37.0586 55.2359 37.5328 54.3209 37.5328C53.4227 37.5328 52.858 37.1349 52.7508 36.463L53.5919 36.382C53.6657 36.7108 53.9231 36.8823 54.3185 36.8823C54.7284 36.8823 55 36.6941 55 36.4439C55 36.2367 54.8427 36.1009 54.5068 36.027L53.8825 35.8959C53.1797 35.7506 52.8509 35.398 52.8533 34.8643C52.8509 34.1876 53.4513 33.754 54.3329 33.754C55.1906 33.754 55.6862 34.1495 55.8053 34.769ZM59.168 37.5328C58.0744 37.5328 57.4144 36.7537 57.4144 35.6458C57.4144 34.5283 58.091 33.754 59.1632 33.754C60.0567 33.754 60.6761 34.2758 60.7357 35.0692H59.9113C59.8446 34.7165 59.5897 34.4497 59.1751 34.4497C58.6438 34.4497 58.2888 34.8929 58.2888 35.6315C58.2888 36.3796 58.6366 36.8299 59.1751 36.8299C59.5539 36.8299 59.8375 36.6036 59.9113 36.2104H60.7357C60.6737 36.9871 60.0876 37.5328 59.168 37.5328ZM62.6964 37.5328C61.6242 37.5328 60.9428 36.7775 60.9428 35.6458C60.9428 34.5116 61.6242 33.754 62.6964 33.754C63.7685 33.754 64.4499 34.5116 64.4499 35.6458C64.4499 36.7775 63.7685 37.5328 62.6964 37.5328ZM62.7011 36.8418C63.2848 36.8418 63.5755 36.3129 63.5755 35.6434C63.5755 34.9739 63.2848 34.4378 62.7011 34.4378C62.1079 34.4378 61.8172 34.9739 61.8172 35.6434C61.8172 36.3129 62.1079 36.8418 62.7011 36.8418ZM64.8381 37.4613V33.8016H65.6625V34.4235H65.7054C65.8579 34.0065 66.2248 33.754 66.7156 33.754C67.2088 33.754 67.5638 34.0089 67.7044 34.4235H67.7425C67.9045 34.0161 68.3095 33.754 68.8409 33.754C69.5127 33.754 69.9845 34.1876 69.9845 35.0048V37.4613H69.1196V35.1383C69.1196 34.6856 68.8432 34.4807 68.4954 34.4807C68.0785 34.4807 67.833 34.7666 67.833 35.1788V37.4613H66.9872V35.1025C66.9872 34.7261 66.737 34.4807 66.3725 34.4807C66.0008 34.4807 65.7006 34.7856 65.7006 35.2359V37.4613H64.8381ZM70.5156 38.8336V33.8016H71.3638V34.4068H71.4139C71.5449 34.1423 71.8141 33.754 72.4596 33.754C73.3055 33.754 73.9703 34.4164 73.9703 35.6362C73.9703 36.8418 73.3248 37.5256 72.4625 37.5256C71.8334 37.5256 71.5497 37.1515 71.4139 36.8847H71.3781V38.8336H70.5156ZM71.3614 35.6315C71.3614 36.3415 71.6712 36.818 72.2217 36.818C72.7912 36.818 73.0909 36.3177 73.0909 35.6315C73.0909 34.95 72.7957 34.4616 72.2217 34.4616C71.6664 34.4616 71.3614 34.9215 71.3614 35.6315ZM75.418 37.5352C74.7203 37.5352 74.1934 37.1539 74.1934 36.4344C74.1934 35.61 74.8724 35.398 75.5827 35.3217C76.2281 35.2526 76.4882 35.2407 76.4882 34.993V34.9786C76.4882 34.6189 76.269 34.414 75.8688 34.414C75.447 34.414 75.204 34.6284 75.1183 34.8786L74.3127 34.7642C74.5034 34.0971 75.0944 33.754 75.8637 33.754C76.562 33.754 77.3505 34.0447 77.3505 35.012V37.4613H76.5211V36.9586H76.4927C76.3355 37.2659 75.9925 37.5352 75.418 37.5352ZM75.6423 36.9014C76.1617 36.9014 76.4904 36.5559 76.4904 36.1485V35.7173C76.3786 35.8078 75.9256 35.865 75.6996 35.8959C75.3136 35.9508 75.0252 36.0889 75.0252 36.4201C75.0252 36.737 75.2823 36.9014 75.6423 36.9014ZM78.7363 35.317V37.4613H77.874V33.8016H78.6983V34.4235H78.7409C78.9078 34.0161 79.2842 33.754 79.8326 33.754C80.5877 33.754 81.0878 34.2543 81.0856 35.1311V37.4613H80.2232V35.2646C80.2232 34.7761 79.9564 34.4831 79.5107 34.4831C79.0554 34.4831 78.7363 34.788 78.7363 35.317ZM82.0234 38.8336C81.7878 38.8336 81.5778 38.7908 81.4614 38.7431L81.6612 38.0713C82.0376 38.1808 82.2903 38.1523 82.4498 37.7353L82.5236 37.5375L81.1968 33.8016H82.1114L82.9551 36.5654H82.9931L83.839 33.8016L84.761 33.8064L83.2912 37.9045C83.084 38.4882 82.6956 38.8336 82.0234 38.8336Z" fill="#285AE6"/>
</g>
<defs>
<clipPath id="clip0_4494_6861">
<rect width="70" height="27.7616" fill="white" transform="translate(15 11.1191)"/>
</clipPath>
</defs>
</svg>
