<svg width="100" height="50" viewBox="0 0 100 50" fill="none" xmlns="http://www.w3.org/2000/svg">
<g clip-path="url(#clip0_4520_6980)">
<path fill-rule="evenodd" clip-rule="evenodd" d="M58.5776 21.3343C59.9355 21.3607 61.1161 21.795 61.9656 22.6139C62.8432 23.4599 63.3575 24.7065 63.3575 26.309C63.3575 26.5835 63.3392 26.9483 63.3026 27.2947L63.2972 27.3457L63.2932 27.3827H56.0446C56.23 28.441 57.1777 29.2279 58.699 29.2279C59.654 29.2278 60.4233 28.9105 60.945 28.3724L60.9827 28.3334L61.0106 28.3047L61.0403 28.3315L62.7658 29.8797L62.6976 29.953C61.6774 31.0455 60.1086 31.5017 58.5722 31.5017C57.0662 31.5017 55.7695 30.9972 54.8488 30.1151C53.9277 29.2324 53.3889 27.9776 53.3889 26.4896C53.3889 23.5096 55.6037 21.333 58.4456 21.333L58.5776 21.3343ZM58.4094 23.6069C57.7664 23.6069 57.2409 23.7782 56.8494 24.0789C56.4872 24.3571 56.2342 24.7504 56.1087 25.2353H60.7153C60.605 24.7183 60.3515 24.3239 59.9845 24.0529C59.5894 23.7614 59.0549 23.6069 58.4094 23.6069Z" fill="black"/>
<path d="M75.9236 21.333C77.9849 21.333 79.6512 22.382 80.3925 24.0286L80.4317 24.1155L80.3952 24.1333L78.048 25.2671L78.0086 25.286L77.9918 25.2457L77.9686 25.1909C77.6044 24.3254 76.8449 23.8236 75.8512 23.8236C75.1245 23.8236 74.5319 24.0808 74.1205 24.528C73.7082 24.9763 73.47 25.624 73.47 26.4174C73.47 27.2109 73.7082 27.8585 74.1205 28.3066C74.5319 28.754 75.1245 29.011 75.8512 29.011C76.7875 29.011 77.571 28.4754 78.0086 27.6539L78.0342 27.6058L78.053 27.5705L80.2917 28.6597L80.3419 28.6844L80.3789 28.7023L80.3612 28.7392L80.3374 28.7898C79.5598 30.4348 77.8585 31.5017 75.7969 31.5017C74.3451 31.5017 73.0887 31.0152 72.1949 30.1438C71.3008 29.272 70.7766 28.0215 70.7766 26.5076C70.7766 23.4718 73.011 21.333 75.9236 21.333Z" fill="black"/>
<path d="M45.745 23.3779L50.5537 18.5077L50.5705 18.4908L50.5826 18.4785H53.8466L48.8861 23.4303L54.1849 31.256L54.2287 31.3209H50.9875L50.9752 31.3024L50.9583 31.2774L46.9352 25.2889L45.745 26.4938V31.3209H43.2143V18.4785H45.745V23.3779Z" fill="black"/>
<path d="M67.0043 21.5137H70.3884V23.9501H67.0043V27.2843C67.0043 27.8167 67.157 28.2227 67.4302 28.4954C67.7035 28.7682 68.1101 28.9207 68.6435 28.9207H70.3884V31.3209H68.4626C67.1788 31.3209 66.1732 30.9727 65.4889 30.2896C64.8045 29.6064 64.4556 28.6023 64.4556 27.3205V18.4785H67.0043V21.5137Z" fill="black"/>
<path d="M83.7129 21.9885C84.3742 21.5702 85.1881 21.3329 86.0941 21.3329C87.2847 21.3329 88.2444 21.7392 88.9059 22.4648C89.5663 23.1893 89.92 24.2221 89.92 25.4597V31.3209H87.3712V25.8752C87.3712 25.2028 87.2117 24.6907 86.9259 24.3483C86.6423 24.0085 86.2239 23.8235 85.6778 23.8235C85.046 23.8235 84.5584 24.0114 84.2284 24.3535C83.8979 24.6961 83.7129 25.2064 83.7129 25.8752V31.3209H81.2003V18.4785H83.7129V21.9885Z" fill="black"/>
<path d="M36.1905 11.9048H10V38.0953H36.1905V11.9048Z" fill="#851BFF"/>
<path d="M25.1856 18.9249L28.0273 16.0715H21.064L13.561 23.603L21.0049 31.0753L18.1631 33.9287H25.1264L32.6294 26.3972L25.1856 18.9249ZM24.9554 27.1089L21.2351 30.844V22.8902L24.9554 19.1561V27.11V27.1089Z" fill="white"/>
</g>
<defs>
<clipPath id="clip0_4520_6980">
<rect width="80" height="26.1905" fill="white" transform="translate(10 11.9048)"/>
</clipPath>
</defs>
</svg>
