<svg width="100" height="50" viewBox="0 0 100 50" fill="none" xmlns="http://www.w3.org/2000/svg">
<g clip-path="url(#clip0_4494_6795)">
<path d="M34.0561 30.9245H29.0525L30.5136 29.4778C29.9157 28.4804 29.5718 27.3125 29.5718 26.0642C29.5718 22.3988 32.5125 19.4514 36.1695 19.4514C39.8265 19.4514 42.7844 22.3988 42.7844 26.0642C42.7844 29.6602 39.9618 32.5881 36.4007 32.6979L36.4127 29.7906C38.3835 29.6769 39.9467 28.0392 39.9467 26.0353C39.9467 23.9578 38.2665 22.3224 36.1937 22.3224C34.1209 22.3224 32.4408 23.9578 32.4408 26.0353C32.4408 26.4764 32.5165 26.8999 32.6557 27.2932L34.0608 25.9047V30.9322" fill="#EF4623"/>
<path d="M45.2427 30.9406L42.52 20.4612H45.8622L47.2712 27.1746H47.3597L48.8707 20.4612H52.1312L53.6832 27.1269H53.7717L55.14 20.4612H58.4821L55.7525 30.9406H52.1926L50.5589 24.8344H50.4432L48.8095 30.9406H45.2427Z" fill="#121921"/>
<path d="M59.2893 30.9408V16.9683H62.6179V22.2557H62.686C62.822 21.9374 63.0161 21.6305 63.2679 21.3347C63.5198 21.0391 63.8419 20.7969 64.2346 20.6081C64.627 20.4194 65.0978 20.325 65.647 20.325C66.3729 20.325 67.0526 20.516 67.6856 20.898C68.3187 21.2801 68.8302 21.8692 69.2205 22.6651C69.6107 23.461 69.8059 24.4754 69.8059 25.7079C69.8059 26.895 69.6188 27.889 69.2444 28.6893C68.87 29.49 68.3663 30.0904 67.7333 30.4905C67.1002 30.8907 66.398 31.0909 65.6265 31.0909C65.1001 31.0909 64.644 31.0044 64.2584 30.8316C63.8725 30.6588 63.5493 30.4315 63.2884 30.1493C63.0274 29.8674 62.8266 29.565 62.686 29.242H62.5838V30.9408L59.2893 30.9408ZM62.5498 25.7011C62.5498 26.2651 62.6258 26.7564 62.7779 27.1748C62.9298 27.5933 63.1498 27.9173 63.4381 28.147C63.7261 28.3767 64.0722 28.4914 64.4761 28.4914C64.8846 28.4914 65.2316 28.3767 65.5176 28.147C65.8035 27.9173 66.0201 27.5933 66.1676 27.1748C66.315 26.7564 66.3889 26.2651 66.3889 25.7011C66.3889 25.1371 66.315 24.6481 66.1676 24.2342C66.0201 23.8204 65.8046 23.4998 65.5209 23.2723C65.2373 23.0449 64.8889 22.9311 64.4761 22.9311C64.0677 22.9311 63.7205 23.0426 63.4346 23.2654C63.1488 23.4884 62.9298 23.8068 62.7779 24.2205C62.6258 24.6346 62.5498 25.128 62.5498 25.7011Z" fill="#121921"/>
<path d="M80.8515 26.3358V25.5035C80.8515 24.6438 80.7265 23.8808 80.4771 23.2145C80.2275 22.5482 79.878 21.9876 79.4289 21.5327C78.9796 21.078 78.4463 20.7345 77.8292 20.5025C77.212 20.2706 76.5313 20.1545 75.7872 20.1545C74.7343 20.1545 73.82 20.3809 73.044 20.8334C72.268 21.286 71.6666 21.9182 71.2402 22.7301C70.8136 23.5419 70.6003 24.4893 70.6003 25.5717C70.6003 26.6861 70.8124 27.6468 71.2368 28.4542C71.6611 29.2616 72.2691 29.8824 73.061 30.3167C73.8528 30.7511 74.7956 30.9683 75.8893 30.9683C76.8013 30.9683 77.6045 30.8284 78.2989 30.5487C78.9931 30.269 79.5547 29.8756 79.9837 29.3684C80.4123 28.8613 80.6903 28.2644 80.8174 27.5774L77.7612 27.4888C77.6749 27.7208 77.5455 27.9163 77.3732 28.0756C77.2007 28.2348 76.9942 28.3553 76.7536 28.4372C76.5132 28.519 76.2455 28.5599 75.9505 28.5599C75.5239 28.5599 75.1563 28.4712 74.8478 28.2938C74.5392 28.1164 74.3009 27.8675 74.133 27.5469C73.9651 27.2261 73.8813 26.8521 73.8813 26.4245V26.3358L80.8515 26.3358ZM74.8546 22.812C75.1496 22.646 75.4832 22.5629 75.8552 22.5629C76.2228 22.5629 76.5483 22.6414 76.832 22.7983C77.1155 22.9552 77.3392 23.1725 77.5025 23.4499C77.6658 23.7273 77.7497 24.0435 77.7543 24.3982H73.8859C73.9024 24.0614 73.99 23.757 74.1535 23.4874C74.3259 23.2032 74.5596 22.9781 74.8546 22.812Z" fill="#121921"/>
<path d="M91.5979 18.2588H87.6462L81.6825 25.7199V28.6464H87.8498V30.952H91.1431V28.6343H92.5001V25.8973H91.1601V24.3841H87.9007V25.8936H85.6305L91.5979 18.2588Z" fill="#121921"/>
<path d="M13.9705 30.9224H17.8022L13.954 25.0317L17.6531 20.4806H13.8957L10.9658 24.2197H10.8166V17H7.5V30.9224H10.8166V27.788L11.4879 26.9735L13.9705 30.9224Z" fill="#121921"/>
<path d="M21.8429 24.9673V30.9224H18.5262V20.4806H21.6801V22.3979H21.7953C22.026 21.7585 22.4191 21.2567 22.9755 20.8919C23.5318 20.5271 24.1941 20.3447 24.9627 20.3447C25.695 20.3447 26.3317 20.5091 26.872 20.8374C27.4123 21.1661 27.8326 21.6238 28.1334 22.2107C28.4341 22.7975 28.5821 23.483 28.5777 24.2671V30.9224H25.2611V24.9197C25.2655 24.3396 25.1199 23.8867 24.8235 23.56C24.5276 23.2337 24.1173 23.0705 23.5926 23.0705C23.2442 23.0705 22.9383 23.1467 22.6735 23.2986C22.4092 23.4505 22.2056 23.6666 22.0632 23.9476C21.9209 24.2286 21.8473 24.5685 21.8429 24.9673Z" fill="#121921"/>
</g>
<defs>
<clipPath id="clip0_4494_6795">
<rect width="85" height="16" fill="white" transform="translate(7.5 17)"/>
</clipPath>
</defs>
</svg>
