<svg width="100" height="50" viewBox="0 0 100 50" fill="none" xmlns="http://www.w3.org/2000/svg">
<g clip-path="url(#clip0_4520_6899)">
<g clip-path="url(#clip1_4520_6899)">
<path d="M5.9342 23.0952C5.78768 23.4249 5.5679 23.7546 5.27485 24.0476C4.61551 24.6703 3.80965 24.9267 2.96716 24.9633L6.11735 28.0403C6.15398 27.2344 6.41039 26.4285 7.06973 25.8058C7.36277 25.5128 7.69244 25.3296 8.05874 25.1465C7.06973 24.8168 6.3005 24.0476 5.9342 23.0952Z" fill="#FF8300"/>
<path d="M5.23822 30.055C6.44701 28.8828 6.44701 26.978 5.23822 25.8425C4.02943 24.6703 2.08804 24.6703 0.87925 25.8425C-0.329542 27.0147 -0.329542 28.9194 0.87925 30.055C2.08804 31.2271 4.02943 31.2271 5.23822 30.055Z" fill="#FF8300"/>
<path d="M11.4653 19.7986C12.6741 20.9707 12.6741 22.8755 11.4653 24.011C10.2565 25.1832 8.31509 25.1832 7.1063 24.011C5.89751 22.8388 5.89751 20.9341 7.1063 19.7986C8.31509 18.6264 10.2931 18.6264 11.4653 19.7986Z" fill="#53565A"/>
<path d="M23.9196 19.7986C22.7108 18.6264 20.7694 18.6264 19.5606 19.7986C18.9745 20.3846 18.6815 21.0806 18.6815 21.8132C18.6449 22.6191 18.3885 23.4249 17.7291 24.0476C17.4361 24.3407 17.1064 24.5605 16.7401 24.707C17.7291 25.0366 18.4984 25.8059 18.8647 26.7583C19.0112 26.4286 19.231 26.0989 19.524 25.8059C20.1833 25.1832 20.9892 24.9268 21.8317 24.8901C22.6009 24.8901 23.3335 24.5605 23.9196 24.011C25.1284 22.8388 25.1284 20.9707 23.9196 19.7986ZM22.8573 22.9854C22.5643 23.2784 22.1614 23.4249 21.7584 23.4249C21.3189 23.4249 20.9526 23.2784 20.6595 22.9854C20.0368 22.3993 20.0368 21.4103 20.6595 20.8242C20.9526 20.5312 21.3555 20.3846 21.7584 20.3846C22.198 20.3846 22.5643 20.5312 22.8573 20.8242C23.1504 21.1172 23.2969 21.5202 23.2969 21.8865C23.3335 22.326 23.187 22.6923 22.8573 22.9854Z" fill="#00A7CE"/>
<path d="M17.6924 25.8425C18.9012 27.0147 18.9012 28.9194 17.6924 30.055C16.4837 31.2271 14.5423 31.2271 13.3335 30.055C12.1247 28.8828 12.1247 26.978 13.3335 25.8425C14.5423 24.6703 16.5203 24.6703 17.6924 25.8425Z" fill="#53565A"/>
<path d="M13.3334 24.0477C12.6741 23.425 12.4177 22.6191 12.381 21.8132L9.19421 24.8902C10.0367 24.9268 10.8426 25.1832 11.5019 25.8059C12.1612 26.4286 12.4177 27.2345 12.4543 28.0403L15.6045 24.9634C14.7986 24.9268 13.9561 24.6704 13.3334 24.0477Z" fill="#53565A"/>
<path d="M50.5862 31.0074C49.0111 31.0074 48.0587 30.0916 48.0587 28.5898V19.5055C48.0587 19.1392 48.3518 18.8828 48.7181 18.8828C49.0844 18.8828 49.3774 19.1759 49.3774 19.5055V22.5824H51.6485C51.9781 22.5824 52.2712 22.8755 52.2712 23.2052C52.2712 23.5348 51.9781 23.7912 51.6485 23.7912H49.3774V28.5165C49.3774 29.3956 49.817 29.7986 50.7327 29.7986C51.0624 29.7986 51.2822 29.7253 51.4287 29.6887C51.5019 29.652 51.5752 29.652 51.6485 29.652C51.9781 29.652 52.2712 29.9451 52.2712 30.2381C52.2712 30.4945 52.1247 30.6777 51.8316 30.7876C51.5019 30.8975 51.099 31.0074 50.5862 31.0074Z" fill="#53565A"/>
<path d="M57.4727 31.0072C56.3371 31.0072 55.0551 30.5677 54.176 29.945C54.0661 29.8717 53.9196 29.6519 53.9196 29.4688C53.9196 29.1391 54.2126 28.8461 54.5789 28.8461C54.7254 28.8461 54.8719 28.8827 54.9818 28.956C55.7877 29.542 56.6302 29.7985 57.5459 29.7985C58.5349 29.7985 59.2309 29.2856 59.2309 28.553V28.5164C59.2309 27.8204 58.5349 27.5274 57.2529 27.1611H57.2163H57.1796C55.8976 26.7948 54.2859 26.3552 54.2859 24.7801V24.7435C54.2859 23.3516 55.5313 22.3259 57.2163 22.3259C58.0954 22.3259 59.121 22.5823 59.9635 23.0585C60.1833 23.205 60.2932 23.3882 60.2932 23.608C60.2932 23.9376 60.0001 24.2307 59.6338 24.2307C59.4873 24.2307 59.3774 24.1941 59.2675 24.1208C58.5716 23.7179 57.839 23.4981 57.143 23.4981C56.1906 23.4981 55.5679 23.9376 55.5679 24.6336V24.6702C55.5679 25.3296 56.4104 25.6226 57.6558 25.9523C58.7181 26.2453 60.513 26.7215 60.513 28.4065V28.4431C60.513 29.9083 59.2309 31.0072 57.4727 31.0072Z" fill="#53565A"/>
<path d="M63.3334 30.9341C62.9671 30.9341 62.6741 30.6777 62.6741 30.3114V19.5055C62.6741 19.1392 62.9671 18.8462 63.3334 18.8462C63.6997 18.8462 63.9928 19.1392 63.9928 19.5055V30.2748C63.9928 30.6411 63.6997 30.9341 63.3334 30.9341Z" fill="#53565A"/>
<path d="M75.5678 31.0439C73.1136 31.0439 71.1722 29.1391 71.1722 26.6849V26.6483C71.1722 24.1941 73.1136 22.2527 75.6045 22.2527C78.0587 22.2527 80.0001 24.1574 80.0001 26.6117V26.6483C80.0367 29.1025 78.0587 31.0439 75.5678 31.0439ZM75.5678 23.4981C73.8462 23.4981 72.5276 24.8534 72.5276 26.6483V26.6849C72.5276 28.4432 73.8829 29.8717 75.6045 29.8717C77.3261 29.8717 78.6448 28.5164 78.6448 26.7215V26.6849C78.6448 24.89 77.3261 23.4981 75.5678 23.4981Z" fill="#53565A"/>
<path d="M41.9048 31.0439C39.4873 31.0439 37.6558 29.1758 37.6558 26.6849V26.6483C37.6558 24.1941 39.4506 22.2893 41.7583 22.2893C44.066 22.2893 45.7144 24.1208 45.7144 26.6117C45.7144 26.9413 45.4213 27.2344 45.055 27.2344H40.6594C40.2931 27.2344 40.0367 26.978 40.0367 26.6483C40.0367 26.3186 40.2931 26.0622 40.6594 26.0622H44.3591C44.1759 24.8168 43.4067 23.4981 41.7217 23.4981C40.3298 23.4981 39.2309 24.5604 39.0111 26.0988L38.9744 26.3552C38.9378 26.6117 38.9378 26.8681 38.9744 27.0878C39.121 28.6996 40.3298 29.8351 41.8682 29.8351C42.8206 29.8351 43.5898 29.5054 44.3224 28.8095C44.4689 28.6996 44.6155 28.6263 44.762 28.6263C45.1283 28.6263 45.4213 28.8827 45.4213 29.249C45.4213 29.3589 45.3847 29.5421 45.2015 29.6886C44.2858 30.641 43.2968 31.0439 41.9048 31.0439Z" fill="#53565A"/>
<path d="M82.3444 34.2307C81.9781 34.2307 81.6851 33.9743 81.6851 33.5714V26.2454C81.6851 23.8278 83.5898 22.2527 85.8609 22.2527C88.3151 22.2527 90.2565 24.1574 90.2565 26.6117V26.6483C90.2565 29.1025 88.3151 31.0439 85.8243 31.0439C84.6887 31.0439 83.6997 30.641 82.9671 29.9084V33.5714C83.0037 33.9743 82.7473 34.2307 82.3444 34.2307ZM83.0037 27.0146C83.1503 28.6263 84.2492 29.7252 85.751 29.7985C85.7876 29.7985 85.8609 29.7985 85.8975 29.7985C86.447 29.7985 86.9232 29.6886 87.3627 29.4322C87.3993 29.3955 87.436 29.3955 87.5092 29.3589C87.8755 29.1391 88.1686 28.8095 88.3884 28.4432C88.425 28.4065 88.425 28.3699 88.4616 28.3333C88.4982 28.26 88.5715 28.1501 88.6081 28.0769C88.7913 27.6373 88.9012 27.1977 88.9012 26.7215V26.6849C88.9012 26.3186 88.8279 25.9157 88.718 25.586C88.6814 25.4761 88.6448 25.4029 88.6081 25.293C88.5715 25.1831 88.5349 25.1098 88.4616 25.0366C88.1686 24.5604 87.8023 24.1574 87.3261 23.901C87.2895 23.8644 87.2528 23.8644 87.1796 23.8278C87.1063 23.7911 86.9964 23.7545 86.8865 23.7179C86.7034 23.6446 86.4836 23.608 86.3004 23.5714C86.1906 23.5714 86.0807 23.5347 86.0074 23.5347C85.9708 23.5347 85.8975 23.5347 85.8609 23.5347C84.2858 23.5347 83.1503 24.6703 83.0037 26.3186V27.0146Z" fill="#53565A"/>
<path d="M69.6704 30.9342C69.4873 30.9342 69.3407 30.861 69.1942 30.7511L65.1649 26.795C64.9085 26.5752 64.9085 26.2089 65.1283 25.9525V25.9159L68.7913 22.6192C68.9012 22.5093 69.0477 22.436 69.2309 22.3994C69.414 22.3994 69.5605 22.436 69.7071 22.5459C70.0001 22.7657 70.0001 23.1686 69.7803 23.4617L69.7437 23.4983L66.4836 26.3555L70.0734 29.8719C70.2199 29.9818 70.2565 30.165 70.2565 30.3115C70.2565 30.4947 70.1832 30.6412 70.0734 30.7511C70.0001 30.861 69.8536 30.9342 69.6704 30.9342Z" fill="#53565A"/>
<path d="M35.1283 31.0439C34.762 31.0439 34.469 30.7508 34.469 30.3845V25.9523C34.469 24.4138 33.5899 23.4981 32.1247 23.4981C30.6595 23.4981 29.7804 24.4138 29.7804 25.9523V30.3845C29.7804 30.7508 29.4873 31.0439 29.121 31.0439C28.7547 31.0439 28.4617 30.7875 28.4617 30.3845V25.8424C28.4617 23.6812 29.8536 22.3259 32.0148 22.3259H32.2346C34.3957 22.3259 35.7877 23.7179 35.7877 25.8424V30.3845C35.7877 30.7508 35.5313 31.0439 35.1283 31.0439Z" fill="#53565A"/>
<path d="M96.154 31.0439C93.7364 31.0439 91.9049 29.1758 91.9049 26.6849V26.6483C91.9049 24.1941 93.6998 22.2893 96.0075 22.2893C98.3152 22.2893 99.9635 24.1208 99.9635 26.6117C99.9635 26.9413 99.6705 27.2344 99.3042 27.2344H94.8719C94.5056 27.2344 94.2492 26.978 94.2492 26.6483C94.2492 26.3186 94.5056 26.0622 94.8719 26.0622H98.5716C98.3884 24.8168 97.6192 23.4981 95.9342 23.4981C94.5423 23.4981 93.4434 24.5604 93.2236 26.0988L93.187 26.3552C93.1503 26.6117 93.1503 26.8681 93.187 27.0878C93.3335 28.6996 94.5423 29.8351 96.0807 29.8351C97.0331 29.8351 97.8023 29.5054 98.5349 28.8095C98.6815 28.6996 98.828 28.6263 98.9745 28.6263C99.3408 28.6263 99.6338 28.8827 99.6338 29.249C99.6338 29.3589 99.5972 29.5421 99.4141 29.6886C98.5349 30.641 97.5459 31.0439 96.154 31.0439Z" fill="#53565A"/>
</g>
</g>
<defs>
<clipPath id="clip0_4520_6899">
<rect width="100" height="50" fill="white"/>
</clipPath>
<clipPath id="clip1_4520_6899">
<rect width="100" height="15.3846" fill="white" transform="translate(0 17.3076)"/>
</clipPath>
</defs>
</svg>
