<svg width="100" height="50" viewBox="0 0 100 50" fill="none" xmlns="http://www.w3.org/2000/svg">
<path d="M13.4219 22.4784C13.0628 23.0317 12.9304 23.6958 12.9304 24.36C12.9304 25.8909 13.6867 27.2774 15.3126 27.2774C16.882 27.2774 17.6569 26.0017 17.6569 24.4889C17.6569 23.4192 17.3923 22.589 16.844 22.0725C16.239 21.5192 15.5585 21.5008 15.1425 21.5376C14.3106 21.5931 13.819 21.8698 13.4219 22.4784ZM20.6064 24.3779C20.6064 26.8735 19.1695 29.5772 15.3126 29.5772C12.5335 29.5772 10 28.0268 10 24.3779C10 21.3527 11.9095 19.0273 15.6908 19.2355C19.7178 19.4623 20.6064 22.5816 20.6064 24.3779ZM46.4191 20.3507C46.7028 20.0481 46.8919 19.8213 47.4023 19.5756C47.856 19.3864 48.4989 19.2355 49.1983 19.2355C49.7846 19.2355 50.4463 19.3298 50.9566 19.6134C51.9966 20.1616 52.2614 21.0503 52.2614 22.5816V29.3314H49.3687V23.7729C49.3687 22.8842 49.3497 22.5628 49.2362 22.2982C49.0093 21.7688 48.4989 21.5418 47.9319 21.5418C46.4004 21.5418 46.4004 22.7707 46.4004 23.9996V29.3314H43.4889V19.4811H46.4191V20.3507ZM39.2136 23.1331C39.1569 22.7172 39.081 22.1688 38.6652 21.7341C38.3059 21.3748 37.7577 21.1857 37.2471 21.1857C36.5476 21.1857 36.0563 21.5262 35.7727 21.8286C35.3756 22.2635 35.281 22.7172 35.1864 23.1331H39.2136ZM42.106 26.782C41.8393 27.3439 40.9807 29.5771 37.1905 29.5771C34.2599 29.5771 32.1992 27.7842 32.1992 24.5512C32.1992 22.1688 33.3715 19.2355 37.2661 19.2355C37.8524 19.2355 39.5537 19.1628 40.8205 20.524C42.106 21.9042 42.1816 23.8326 42.2194 24.9481H35.1677C35.1486 26.1769 35.8482 27.4061 37.4175 27.4061C39.0056 27.4061 39.5539 26.3661 39.9131 25.6666L42.106 26.782ZM82.5887 21.5259H84.5171V19.4811H82.6075V17.4067H79.7151V19.4811H79.2562L77.932 21.5259H79.7151V26.2118C79.7151 27.1569 79.7338 27.8565 80.1307 28.4429C80.7548 29.3502 81.8514 29.407 82.8535 29.407C83.3829 29.407 83.7607 29.3502 84.3848 29.2557V26.987L83.3451 27.0246C82.5699 27.0246 82.5699 26.5143 82.5887 25.9092L82.5887 21.5259ZM53.71 17.4067H56.6025V19.4811H59.6089L58.2849 21.5259H56.5837V25.9093C56.5647 26.5144 56.5647 27.0247 57.3401 27.0247L58.38 26.9871V29.2557C57.7557 29.3503 57.3779 29.4071 56.8485 29.4071C55.8464 29.4071 54.7498 29.3502 54.126 28.443C53.7289 27.8565 53.71 27.157 53.71 26.212V17.4067ZM90 21.5262H89.6491L89.6614 20.2635L89.6797 19.8444L89.581 20.1894L89.1622 21.5262H88.8417L88.4291 20.1894L88.3243 19.8505L88.349 20.2635L88.3613 21.5262H88.0163V19.4811H88.503L89.0144 21.095L89.5131 19.4811H90V21.5262ZM87.1969 21.5262H86.8397V19.7826H86.1807V19.4811H87.8438V19.7826H87.1969V21.5262Z" fill="#231F20"/>
<path d="M65.9935 23.1331C65.9365 22.7172 65.8608 22.1688 65.445 21.7341C65.0857 21.3748 64.5376 21.1857 64.0272 21.1857C63.3277 21.1857 62.8362 21.5262 62.5526 21.8286C62.1555 22.2635 62.061 22.7172 61.9663 23.1331H65.9935ZM68.7211 26.7908L68.1671 27.6465C67.6487 28.4071 66.673 29.5771 63.8783 29.5771C60.9479 29.5771 58.9792 27.7842 58.9792 24.5512C58.9792 22.1688 60.1512 19.2355 64.046 19.2355C64.632 19.2355 66.3337 19.1628 67.6003 20.524C68.8861 21.9042 68.9615 23.8326 68.9995 24.9481H61.9475C61.9285 26.1769 62.536 27.4061 64.1054 27.4061C65.6933 27.4061 66.1494 26.3661 66.5087 25.6666L68.7211 26.7908Z" fill="#231F20"/>
<path d="M78.6337 29.3322L75.017 24.1467L78.0331 19.4807H74.7225L73.2989 21.6833L71.7625 19.4807H68.4519L71.7065 24.1467L68.3547 29.3321H71.6653L73.4249 26.6104L75.3233 29.3321L78.6337 29.3322ZM26.5807 21.5079C26.0513 21.5079 25.5031 21.7192 25.0873 22.247C24.6711 22.7574 24.4822 23.5491 24.4822 24.4113C24.4822 25.5726 24.8227 26.2764 25.1817 26.6811C25.5174 27.0599 26.0135 27.2769 26.4862 27.2769C27.9043 27.2769 28.528 25.7837 28.528 24.3408C28.528 23.1267 28.1689 21.8423 26.9778 21.5607C26.8483 21.5259 26.7148 21.5082 26.5807 21.5079ZM24.6145 20.3503C24.893 19.9273 25.7858 19.2349 27.204 19.2349C29.6238 19.2349 31.3262 21.0689 31.3262 24.3585C31.3262 26.3813 30.5895 29.5768 27.0824 29.5768C25.8212 29.5768 24.8431 28.8752 24.5955 28.4611V32.5931H21.684V19.4807H24.6145V20.3503Z" fill="#231F20"/>
</svg>
