<svg width="100" height="50" viewBox="0 0 100 50" fill="none" xmlns="http://www.w3.org/2000/svg">
<g clip-path="url(#clip0_4494_6868)">
<path d="M74.4314 34.1452L72.2539 31.4536H73.2913L74.8448 33.4159H74.9142L76.4959 31.4536H77.4974L75.3147 34.1347V35.5645H74.4314V34.1478V34.1452Z" fill="#101921"/>
<path d="M69.4421 32.1882H67.7371V31.4536H71.3064L71.8122 32.1882H70.3255V35.6117H69.4421V32.1882Z" fill="#101921"/>
<path d="M65.7162 31.4536H66.5996V35.5645H65.7162V31.4536Z" fill="#101921"/>
<path d="M60.311 31.4458H62.8326C64.0421 31.4458 64.6352 31.939 64.6352 32.8283C64.6352 33.5052 64.2552 33.9643 63.5285 34.1348L64.815 35.5645H63.7724L62.6529 34.2712H61.1944V35.5645H60.311V31.4484V31.4458ZM62.8044 33.6049C63.4874 33.6049 63.7365 33.2822 63.7365 32.8624C63.7365 32.4427 63.4874 32.1279 62.8044 32.1279H61.1944V33.6049H62.8044Z" fill="#101921"/>
<path d="M54.4513 33.9799V31.4509H55.3346V33.9432C55.3346 34.7092 55.9714 34.961 56.7238 34.961C57.4762 34.961 58.113 34.7144 58.113 33.9668V31.4509H58.9963V33.9563C58.9963 35.1971 58.0077 35.6562 56.7084 35.6562C55.4091 35.6562 54.4487 35.1971 54.4487 33.9799H54.4513Z" fill="#101921"/>
<path d="M48.8072 33.5208C48.8072 32.3612 49.7547 31.3564 51.5162 31.3564C52.3046 31.3564 52.9337 31.603 53.3137 31.8496V32.6209H53.306C52.795 32.3219 52.2635 32.0385 51.4957 32.0385C50.3761 32.0385 49.7188 32.6734 49.7188 33.5155C49.7188 34.3445 50.335 34.9689 51.4803 34.9689C52.2404 34.9689 52.8001 34.7275 53.3034 34.4048H53.3111V35.1761C52.9439 35.4044 52.2814 35.6536 51.4238 35.6536C49.6212 35.6536 48.8046 34.6777 48.8046 33.5234L48.8072 33.5208Z" fill="#101921"/>
<path d="M44.1364 31.4536H48.1088L48.137 32.1305H45.0145V33.0959H47.5567V33.7727H45.0145V34.885H48.25L48.2166 35.5671H44.1389V31.4562L44.1364 31.4536Z" fill="#101921"/>
<path d="M38.8518 35.2208V34.4495H38.8595C39.5374 34.7722 40.3309 34.9663 41.0293 34.9663C41.7765 34.9663 42.1694 34.7538 42.1694 34.4128C42.1694 34.0717 41.8664 33.9668 40.7109 33.7963C39.7505 33.6494 38.8929 33.4211 38.8929 32.6498C38.8929 31.9678 39.5708 31.3486 41.0011 31.3486C41.6173 31.3486 42.3081 31.4903 42.8268 31.7421V32.5134H42.8191C42.2593 32.2065 41.5608 32.036 40.9317 32.036C40.1845 32.036 39.8199 32.2537 39.8199 32.5711C39.8199 32.9542 40.3874 33.025 41.2578 33.164C42.2259 33.3109 43.0964 33.5287 43.0964 34.3629C43.0964 34.8928 42.7035 35.651 41.0242 35.651C40.1177 35.651 39.4219 35.4621 38.8544 35.2155L38.8518 35.2208Z" fill="#101921"/>
<path d="M33.1436 32.5107H26.7215V34.4967H33.1436V32.5107Z" fill="#0080FF"/>
<path d="M75.0863 14.7398C74.2877 14.7398 73.5892 15.2802 73.3633 16.062C72.444 14.9917 71.0779 14.3516 69.2188 14.3516C65.6316 14.3516 62.6683 17.5679 62.6683 21.7338C62.6683 25.8998 65.629 29.1161 69.2188 29.1161C71.0779 29.1161 72.444 28.4812 73.3684 27.4056C73.5944 28.1874 74.2928 28.7278 75.0914 28.7278H77.4153V14.7372H75.0863V14.7398ZM69.9507 25.034C68.1686 25.034 66.8025 23.7171 66.8025 21.7338C66.8025 19.7505 68.1686 18.4388 69.9507 18.4388C71.7327 18.4388 73.1039 19.7558 73.1039 21.7338C73.1039 23.7119 71.7327 25.034 69.9507 25.034Z" fill="#101921"/>
<path d="M58.2517 23.4706C57.7176 24.4491 56.7161 25.0341 55.5272 25.0341C53.7452 25.0341 52.3739 23.7172 52.3739 21.7339C52.3739 19.748 53.7452 18.4336 55.5272 18.4336C56.7007 18.4336 57.7022 19.0082 58.2414 19.9736L61.7593 17.8932C60.4908 15.7446 58.1798 14.3438 55.5272 14.3438C51.4983 14.3438 48.268 17.5653 48.268 21.7312C48.268 25.8972 51.4983 29.1187 55.5272 29.1187C58.1977 29.1187 60.519 27.7074 61.7798 25.5247L58.2517 23.4679V23.4706Z" fill="#101921"/>
<path d="M47.1381 14.4382V19.1945C45.4434 18.9138 43.0271 19.6168 43.0271 22.3871V28.7069H38.9211V14.7216H41.245C42.0436 14.7216 42.742 15.262 42.9629 16.049C44.0028 15.0206 45.4845 14.4907 46.9302 14.4461H46.9404C47.0072 14.4409 47.0714 14.4409 47.1381 14.4409V14.4382Z" fill="#101921"/>
<path d="M30.0905 14.3594C29.3047 14.3594 28.5472 14.4879 27.8359 14.7214C28.2673 15.0966 28.6653 15.5609 29.0223 16.1118C29.4614 16.7913 29.8106 17.5678 30.0622 18.4099C30.0725 18.4099 30.0802 18.4099 30.0905 18.4099C31.8289 18.4099 33.2386 19.6718 33.2386 21.7101C33.2386 23.7485 31.8289 25.0078 30.0905 25.0078C30.0853 25.0078 30.0828 25.0078 30.0776 25.0078C29.808 25.9233 29.4254 26.7681 28.9401 27.4974C28.6114 27.9906 28.2468 28.4156 27.8565 28.7618C28.5601 28.9927 29.3124 29.116 30.0905 29.116C34.1065 29.116 37.3625 25.8131 37.3625 21.739C37.3625 17.6649 34.1065 14.362 30.0905 14.362V14.3594Z" fill="#101921"/>
<path d="M25.6687 16.7546C26.4647 17.5495 27.0322 18.7536 27.2889 20.1336C27.6741 19.336 28.3572 18.7746 29.1814 18.5359C28.958 17.8302 28.6602 17.1796 28.2904 16.6077C27.877 15.9676 27.4019 15.4665 26.8884 15.115C26.2541 15.4324 25.6687 15.8417 25.1551 16.3244C25.3323 16.4477 25.5043 16.592 25.6687 16.7572V16.7546Z" fill="#0080FF"/>
<path d="M29.1943 24.8792C28.3855 24.6457 27.7127 24.1 27.3198 23.334C27.1606 24.2941 26.8499 25.1809 26.4057 25.9154C26.0667 26.4742 25.6687 26.9149 25.2322 27.2245C25.7329 27.681 26.2978 28.0692 26.9115 28.3735C27.3866 28.0351 27.8257 27.5708 28.2134 26.9884C28.6243 26.3693 28.9555 25.6583 29.1943 24.8818V24.8792Z" fill="#0080FF"/>
<path d="M26.5572 21.747C26.5392 19.9237 25.964 18.2683 25.0139 17.3187C24.8444 17.1508 24.6698 17.0117 24.4875 16.8989C24.051 17.4079 23.6812 17.9798 23.3936 18.5989C24.0715 19.2469 24.5132 20.4143 24.5132 21.7758C24.5132 23.1216 24.0792 24.2785 23.4167 24.9318C23.7146 25.564 24.0998 26.1438 24.5568 26.6606C24.9548 26.4114 25.322 26.0205 25.6353 25.5037C26.2439 24.5042 26.57 23.1689 26.5572 21.7496V21.747Z" fill="#0080FF"/>
<path d="M22.9134 19.2207C22.6464 19.9894 22.5 20.8157 22.5 21.6736C22.5 22.5314 22.6515 23.3945 22.9288 24.1763C23.3628 23.6175 23.6504 22.7098 23.6504 21.7103C23.6504 20.7108 23.3551 19.7769 22.9109 19.2207H22.9134Z" fill="#0080FF"/>
</g>
<defs>
<clipPath id="clip0_4494_6868">
<rect width="55" height="21.3125" fill="white" transform="translate(22.5 14.3438)"/>
</clipPath>
</defs>
</svg>
