<svg width="100" height="50" viewBox="0 0 100 50" fill="none" xmlns="http://www.w3.org/2000/svg">
<path d="M49.0628 23.4605C46.2709 22.7101 45.181 22.076 45.181 20.7958C45.181 18.8552 47.679 18.6672 48.5739 18.6672C49.981 18.6672 51.7705 19.1153 52.8296 19.6352L53.9522 17.5364C52.5222 16.8342 50.3316 16.3638 48.4994 16.3638C44.6006 16.3638 42.16 18.0516 42.16 20.9378C42.16 24.2343 45.6024 25.1654 48.2786 25.8826C51.0659 26.632 52.0382 27.4767 52.0382 28.7577C52.0382 30.8929 49.7602 31.2259 48.3504 31.2259C46.4147 31.2259 44.8168 30.7119 43.2551 29.7951L41.9223 31.9424C43.8926 33.0975 45.9362 33.6365 48.3504 33.6365C52.3828 33.6365 55.061 31.6513 55.061 28.5778C55.061 25.1465 51.8024 24.1964 49.0628 23.4605ZM38.5582 21.5723C38.5153 18.6804 36.1291 16.6625 32.7533 16.6625H25.4545V33.2199H28.1131V19.0799H32.6018C34.1054 19.0799 35.7218 19.8242 35.7482 21.6077C35.7715 23.1942 34.5243 24.1866 32.4109 24.2715L32.3695 24.2743L30.7599 24.2878L36.1201 33.2473L39.2602 33.2413C39.2602 33.2413 36.6814 28.9092 35.0637 26.1912C37.4454 25.3461 38.585 23.4766 38.5582 21.5723ZM74.7078 33.2413L71.4578 33.2473L65.5672 20.3313L59.923 33.2473H56.6533L64.0714 16.7757L67.1211 16.7736L74.7078 33.2413Z" fill="#BE3A34"/>
<path d="M73.3289 17.7781C73.3805 17.7781 73.4302 17.7759 73.4776 17.7719C73.5253 17.7683 73.5672 17.7568 73.6026 17.7381C73.6373 17.7194 73.6666 17.6935 73.6883 17.6602C73.7101 17.6263 73.7208 17.5791 73.7208 17.5177C73.7208 17.4669 73.7094 17.4269 73.686 17.3979C73.663 17.3681 73.6338 17.3454 73.5984 17.3294C73.5627 17.3134 73.5237 17.3036 73.4799 17.2996C73.4364 17.2955 73.3942 17.2933 73.3536 17.2933H73.0185V17.7781H73.3289ZM73.0185 18.7197H72.7409V17.0609H73.3821C73.586 17.0609 73.7399 17.0988 73.8435 17.1731C73.9467 17.2484 73.998 17.3694 73.998 17.5377C73.998 17.6873 73.9565 17.7968 73.8721 17.8663C73.7877 17.9362 73.6828 17.9771 73.5575 17.9909L74.0312 18.7197H73.7169L73.2795 18.011H73.0185V18.7197ZM74.488 17.8627C74.488 17.6806 74.4584 17.5137 74.3987 17.3619C74.3383 17.2092 74.2558 17.0783 74.1493 16.9688C74.0435 16.8597 73.9195 16.7742 73.7779 16.7141C73.6367 16.6545 73.4841 16.6242 73.3208 16.6242C73.1549 16.6242 73 16.6545 72.8575 16.7141C72.7143 16.7742 72.5899 16.8597 72.4838 16.9688C72.3776 17.0783 72.2945 17.2092 72.2347 17.3619C72.1747 17.5137 72.1445 17.6806 72.1445 17.8627C72.1445 18.0332 72.1721 18.1939 72.2266 18.3435C72.2808 18.4931 72.3591 18.624 72.4614 18.7362C72.563 18.8479 72.6867 18.937 72.8308 19.0024C72.975 19.0678 73.1383 19.1003 73.3208 19.1003C73.4841 19.1003 73.6367 19.0701 73.7779 19.0104C73.9195 18.9503 74.0435 18.8657 74.1493 18.7558C74.2558 18.6462 74.3383 18.5158 74.3987 18.3649C74.4584 18.2144 74.488 18.047 74.488 17.8627ZM74.8153 17.8627C74.8153 18.0866 74.7747 18.291 74.6948 18.4757C74.6146 18.66 74.5058 18.8172 74.3682 18.9481C74.2305 19.079 74.0717 19.1809 73.8903 19.253C73.7094 19.3247 73.5195 19.3608 73.3208 19.3608C73.1003 19.3608 72.8984 19.3229 72.7143 19.2468C72.5305 19.1707 72.3727 19.0661 72.2406 18.9321C72.1084 18.7985 72.0052 18.6405 71.9308 18.4575C71.8558 18.2741 71.8182 18.076 71.8182 17.8627C71.8182 17.6383 71.8584 17.434 71.9383 17.2497C72.0188 17.0654 72.1276 16.9073 72.2649 16.7765C72.4026 16.6456 72.5623 16.5445 72.7451 16.4724C72.9273 16.3998 73.1195 16.3638 73.3208 16.3638C73.5195 16.3638 73.7094 16.3998 73.8903 16.4724C74.0717 16.5445 74.2305 16.6456 74.3682 16.7765C74.5058 16.9073 74.6146 17.0654 74.6948 17.2497C74.7747 17.434 74.8153 17.6383 74.8153 17.8627Z" fill="#BE3A34"/>
</svg>
