<svg width="100" height="50" viewBox="0 0 100 50" fill="none" xmlns="http://www.w3.org/2000/svg">
<g clip-path="url(#clip0_4520_7091)">
<path d="M30.872 25.0439C29.8886 24.7655 29.384 24.2843 29.384 23.6159C29.384 22.7879 30.1412 22.2035 31.1804 22.2035C32.255 22.2035 32.9354 22.7747 32.9756 23.6915H35.5976C35.555 21.3731 33.8012 19.8173 31.2116 19.8173C28.622 19.8173 26.7416 21.4427 26.7416 23.6861C26.7416 25.4639 27.872 26.7101 30.0956 27.4025L31.7024 27.8501C32.8928 28.1915 33.3854 28.6565 33.3578 29.4383C33.3398 30.3389 32.5514 30.9263 31.334 30.9263C30.0092 30.9263 29.3468 30.1397 29.2736 29.3333H26.6162C26.6642 31.6511 28.5866 33.2441 31.3286 33.2441C33.5462 33.2441 35.9642 32.0537 36.0026 29.4521C36.0572 27.5591 34.859 26.2385 32.432 25.5431L30.872 25.0439ZM41.1692 24.0521C39.9753 24.0827 38.8405 24.5784 38.0068 25.4337C37.1732 26.289 36.7066 27.4361 36.7066 28.6304C36.7066 29.8247 37.1732 30.9718 38.0068 31.8271C38.8405 32.6824 39.9753 33.1781 41.1692 33.2087C41.9042 33.2087 43.1852 32.8517 43.7054 32.0579L43.871 31.8059V33.0299H46.3448V24.2423H43.8788V25.4327L43.7132 25.1987C42.9308 24.0845 41.3456 24.0515 41.1692 24.0515V24.0521ZM41.4332 30.8531C41.1327 30.8679 40.8324 30.8216 40.5504 30.7168C40.2684 30.612 40.0106 30.451 39.7927 30.2436C39.5748 30.0362 39.4013 29.7867 39.2828 29.5102C39.1643 29.2337 39.1031 28.936 39.1031 28.6352C39.1031 28.3344 39.1643 28.0367 39.2828 27.7602C39.4013 27.4837 39.5748 27.2342 39.7927 27.0268C40.0106 26.8193 40.2684 26.6584 40.5504 26.5536C40.8324 26.4488 41.1327 26.4025 41.4332 26.4173C41.8019 26.411 42.1663 26.4967 42.4934 26.6668C42.8206 26.8368 43.1002 27.0857 43.3069 27.391C43.5136 27.6963 43.6409 28.0484 43.6773 28.4153C43.7137 28.7822 43.658 29.1523 43.5152 29.4923C43.3439 29.9012 43.054 30.2494 42.6829 30.492C42.3118 30.7345 41.8765 30.8603 41.4332 30.8531ZM50.2844 24.2447H47.8124V33.0389H50.2844V24.2441V24.2447ZM54.2594 19.9901H51.7754V33.0329H54.2594V19.9901ZM61.016 19.9769H55.6706V33.0353H58.3208V28.4657H61.0214C64.1678 28.4657 65.2922 26.1857 65.2922 24.2297C65.2862 21.2933 63.1418 19.9769 61.016 19.9769ZM60.8804 26.1827H58.3154V22.2737H60.9662C62.1254 22.2737 62.6498 23.4143 62.6498 24.2237C62.6638 24.4682 62.6293 24.713 62.5482 24.9441C62.4671 25.1751 62.341 25.3879 62.1773 25.57C62.0136 25.7521 61.8155 25.9 61.5943 26.0052C61.3732 26.1103 61.1334 26.1707 60.8888 26.1827H60.8804ZM69.668 24.0521C68.7638 24.0523 67.8799 24.3206 67.1281 24.823C66.3764 25.3255 65.7905 26.0396 65.4446 26.8751C65.1858 27.4998 65.0688 28.1742 65.1022 28.8496C65.1355 29.525 65.3183 30.1846 65.6374 30.7808C65.9565 31.377 66.4039 31.8949 66.9473 32.2973C67.4908 32.6997 68.1168 32.9765 68.7802 33.1077C69.4436 33.2388 70.1278 33.2212 70.7835 33.056C71.4392 32.8907 72.0501 32.5821 72.5721 32.1522C73.0941 31.7223 73.5142 31.182 73.8021 30.5701C74.09 29.9582 74.2385 29.2901 74.237 28.6139C74.2694 27.7017 74.0177 26.8019 73.5168 26.0388C73.0158 25.2757 72.2903 24.687 71.4404 24.3539C70.8766 24.1328 70.2732 24.0297 69.668 24.0521ZM69.668 30.7577C69.3524 30.7594 69.0404 30.6912 68.7543 30.558C68.4682 30.4247 68.2151 30.2298 68.0133 29.9871C67.8115 29.7445 67.6659 29.4601 67.5871 29.1546C67.5082 28.849 67.498 28.5297 67.5572 28.2197C67.6365 27.8049 67.8372 27.4231 68.1337 27.1224C68.4302 26.8217 68.8092 26.6158 69.2228 26.5307C69.532 26.4667 69.8515 26.4721 70.1583 26.5465C70.4652 26.6208 70.7517 26.7624 70.9973 26.9608C71.2429 27.1593 71.4413 27.4097 71.5785 27.6941C71.7156 27.9785 71.7879 28.2898 71.7902 28.6055C71.8138 29.1526 71.6193 29.6866 71.2496 30.0905C70.879 30.4933 70.3642 30.7331 69.8174 30.7577H69.668ZM77.6516 24.2447H75.1778V33.0389H77.6516V24.2441V24.2447ZM81.7292 25.5023L81.5636 25.8173V24.2423H79.0634V33.0323H81.5474V28.3763C81.5474 27.1265 82.1534 26.4623 83.288 26.4623C84.3098 26.4623 84.9314 27.1805 84.9314 28.3331V33.0287H87.4226V27.7595C87.434 25.3667 86.3 24.0425 84.2402 24.0425C83.73 24.0416 83.2286 24.1758 82.7869 24.4313C82.3453 24.6869 81.9791 25.0547 81.7256 25.4975L81.7292 25.5023ZM49.0496 22.9865C49.3548 22.9872 49.6533 22.8974 49.9074 22.7285C50.1616 22.5596 50.3599 22.3191 50.4774 22.0375C50.5949 21.7558 50.6263 21.4457 50.5675 21.1462C50.5088 20.8468 50.3626 20.5714 50.1474 20.3551C49.9322 20.1387 49.6577 19.991 49.3585 19.9306C49.0594 19.8702 48.7491 19.8999 48.4668 20.0159C48.1845 20.1318 47.943 20.3289 47.7727 20.5821C47.6024 20.8353 47.511 21.1333 47.51 21.4385V21.4445C47.5094 21.6467 47.5496 21.8471 47.6288 22.0337C47.7455 22.3153 47.9431 22.556 48.1965 22.7255C48.4499 22.8949 48.7478 22.9856 49.0526 22.9859H49.0496V22.9865ZM76.4078 22.9865C76.6361 22.9873 76.8617 22.9374 77.0683 22.8403C77.275 22.7433 77.4575 22.6017 77.6027 22.4256C77.7479 22.2494 77.8523 22.0433 77.9081 21.8219C77.964 21.6006 77.97 21.3696 77.9258 21.1457C77.882 20.9217 77.7891 20.7102 77.6537 20.5265C77.5182 20.3428 77.3437 20.1914 77.1427 20.0833C76.9417 19.9752 76.7192 19.9131 76.4912 19.9015C76.2633 19.8898 76.0356 19.9289 75.8246 20.0159C75.5422 20.1318 75.3005 20.3289 75.1302 20.5822C74.96 20.8356 74.8688 21.1338 74.8682 21.4391V21.4445C74.8682 21.853 75.0303 22.2449 75.319 22.534C75.6077 22.8231 75.9993 22.9859 76.4078 22.9865ZM93.8744 24.2357H92.1434V20.8067H89.6588V24.2357H88.0028V26.3285H89.6588V33.0323H92.1422V26.3291H93.8732L93.8744 24.2357ZM16.4144 15.1001L18.7988 29.3297H5L16.4144 15.1001Z" fill="#0033A1"/>
<path d="M16.3862 15.1001L24.8378 29.3297H18.77L16.3862 15.1001Z" fill="#CC27B0"/>
<path d="M5 29.3406H18.7994L19.6616 34.4838L5 29.3406Z" fill="#0071CE"/>
<path d="M18.767 29.3406H24.8342L19.6298 34.4838L18.767 29.3406Z" fill="#E17FD2"/>
<path d="M94.5338 31.3548C94.6778 31.4388 94.7954 31.56 94.8752 31.7058C94.9592 31.8594 95.0018 32.0322 94.9994 32.2074C95.0018 32.3814 94.9592 32.5536 94.8752 32.7066C94.7948 32.8512 94.6772 32.9718 94.5338 33.0546C94.3838 33.141 94.2128 33.1848 94.04 33.1818C93.866 33.1845 93.6945 33.1406 93.5432 33.0546C93.3992 32.9721 93.2805 32.8517 93.2 32.7066C93.116 32.5537 93.0732 32.3817 93.0758 32.2074C93.0734 32.0322 93.116 31.8594 93.2 31.7058C93.2798 31.5594 93.3986 31.4382 93.5432 31.3554C93.6944 31.269 93.866 31.2258 94.04 31.2282C94.2128 31.2252 94.3838 31.2684 94.5338 31.3548ZM94.607 32.7918C94.7474 32.6294 94.8246 32.422 94.8246 32.2074C94.8246 31.9928 94.7474 31.7853 94.607 31.623C94.4539 31.4758 94.2497 31.3935 94.0373 31.3935C93.8249 31.3935 93.6207 31.4758 93.4676 31.623C93.3278 31.7856 93.2509 31.9929 93.2509 32.2074C93.2509 32.4218 93.3278 32.6292 93.4676 32.7918C93.6208 32.9382 93.8245 33.0199 94.0364 33.0199C94.2483 33.0199 94.452 32.9382 94.6052 32.7918H94.607ZM94.3958 32.1966C94.3463 32.2522 94.2791 32.2891 94.2056 32.301L94.4984 32.718L94.25 32.7228L93.9794 32.3058H93.8678V32.7228H93.6584V31.6728H94.1114C94.2041 31.668 94.2952 31.6984 94.3664 31.758C94.3984 31.7872 94.4235 31.8231 94.44 31.8631C94.4565 31.9031 94.4639 31.9463 94.4618 31.9896C94.4654 32.0627 94.4421 32.1346 94.3964 32.1918L94.3958 32.1966ZM93.8702 32.1366H94.0988C94.1387 32.1383 94.1781 32.1264 94.2104 32.103C94.2253 32.0907 94.2371 32.075 94.2448 32.0573C94.2526 32.0396 94.256 32.0203 94.2548 32.001C94.2562 31.9818 94.2529 31.9626 94.2451 31.9451C94.2374 31.9275 94.2255 31.9121 94.2104 31.9002C94.1775 31.8782 94.1384 31.8672 94.0988 31.869H93.8702V32.1366Z" fill="#0033A1"/>
</g>
<defs>
<clipPath id="clip0_4520_7091">
<rect width="90" height="19.8" fill="white" transform="translate(5 15.1001)"/>
</clipPath>
</defs>
</svg>
