<svg width="100" height="50" viewBox="0 0 100 50" fill="none" xmlns="http://www.w3.org/2000/svg">
<g clip-path="url(#clip0_4520_7121)">
<path fill-rule="evenodd" clip-rule="evenodd" d="M24.2591 22.2659C23.2602 22.2636 22.2923 22.6121 21.5242 23.2507V22.3659H19.0295V32.0833H21.6242V25.8712C21.9031 25.5086 22.2591 25.2126 22.6665 25.0045C23.0738 24.7965 23.5223 24.6816 23.9795 24.6682C24.3335 24.65 24.6874 24.703 25.0205 24.8242V22.3325C24.7691 22.2884 24.5143 22.2661 24.2591 22.2659Z" fill="black"/>
<path fill-rule="evenodd" clip-rule="evenodd" d="M1.63636 29.1183C2.37725 29.7447 3.31766 30.0857 4.28787 30.0797C4.98636 30.0797 5.525 29.7387 5.525 29.2584C5.525 27.7956 0.834845 28.3168 0.834845 25.191C0.834845 23.3281 2.63106 22.166 4.54697 22.166C5.71041 22.1692 6.8477 22.5115 7.81969 23.1509L6.60606 25.0304C6.07038 24.6239 5.42204 24.3932 4.75 24.3698C4.03181 24.3698 3.43257 24.6501 3.43257 25.1509C3.43257 26.413 8.12348 25.9122 8.12348 29.2781C8.12348 31.1418 6.3053 32.2834 4.27121 32.2834C2.86962 32.2698 1.50784 31.8156 0.378784 30.985L1.63636 29.1183Z" fill="black"/>
<path fill-rule="evenodd" clip-rule="evenodd" d="M17.9219 27.1342C17.9219 24.4297 16.028 22.166 13.3507 22.166C10.4765 22.166 8.64009 24.5297 8.64009 27.235C8.61158 27.9075 8.72344 28.5787 8.96856 29.2057C9.21368 29.8327 9.58667 30.4017 10.0638 30.8767C10.5409 31.3516 11.1117 31.7219 11.7398 31.9641C12.3679 32.2063 13.0396 32.3151 13.7121 32.2834C14.4601 32.2933 15.2016 32.1429 15.8867 31.8423C16.5718 31.5418 17.1847 31.0981 17.684 30.541L16.2068 29.0584C15.8974 29.3998 15.5222 29.6751 15.1038 29.8679C14.6854 30.0607 14.2324 30.167 13.7719 30.1804C13.1249 30.2015 12.4941 29.9752 12.008 29.5476C11.5219 29.1201 11.2169 28.5233 11.1552 27.8789H17.8621C17.9034 27.6328 17.9234 27.3837 17.9219 27.1342ZM11.2749 25.9728C11.368 25.4915 11.6265 25.0578 12.0055 24.7468C12.3846 24.4358 12.8604 24.2671 13.3507 24.2698C13.8231 24.2705 14.2788 24.4441 14.632 24.7579C14.9851 25.0716 15.2111 25.5038 15.2674 25.9728H11.2749Z" fill="black"/>
<path fill-rule="evenodd" clip-rule="evenodd" d="M31.2046 28.2963L33.8591 22.366H36.5546L32.1031 32.0834H30.3069L25.8553 22.366H28.55L31.2046 28.2963Z" fill="black"/>
<path fill-rule="evenodd" clip-rule="evenodd" d="M38.7333 17.803C39.0616 17.809 39.3808 17.9118 39.6509 18.0985C39.921 18.2852 40.1299 18.5476 40.2514 18.8526C40.3729 19.1576 40.4016 19.4917 40.3339 19.813C40.2662 20.1343 40.1051 20.4284 39.8709 20.6585C39.6366 20.8885 39.3397 21.0443 39.0172 21.1062C38.6948 21.1681 38.3612 21.1334 38.0584 21.0064C37.7557 20.8794 37.4971 20.6658 37.3153 20.3924C37.1335 20.119 37.0364 19.798 37.0364 19.4697C37.0363 19.2482 37.0804 19.029 37.1661 18.8248C37.2517 18.6206 37.3772 18.4355 37.5352 18.2803C37.6932 18.1252 37.8805 18.003 38.0862 17.9211C38.292 17.8391 38.5119 17.799 38.7333 17.803Z" fill="black"/>
<path d="M40.0302 22.366H37.4355V32.0834H40.0302V22.366Z" fill="black"/>
<path fill-rule="evenodd" clip-rule="evenodd" d="M50.7576 30.0993C50.2662 30.8017 49.6066 31.3697 48.8389 31.7513C48.0713 32.1329 47.2203 32.3158 46.3637 32.2834C45.6877 32.3005 45.0151 32.182 44.3857 31.9349C43.7563 31.6877 43.1828 31.3169 42.6991 30.8444C42.2154 30.3719 41.8313 29.8073 41.5695 29.1838C41.3077 28.5604 41.1735 27.8908 41.1748 27.2146C41.1761 26.5384 41.3129 25.8693 41.5772 25.2469C41.8414 24.6245 42.2277 24.0613 42.7133 23.5907C43.1988 23.1201 43.7737 22.7515 44.4041 22.5068C45.0344 22.2621 45.7074 22.1462 46.3834 22.166C47.165 22.1602 47.9377 22.332 48.6431 22.6687C49.3485 23.0053 49.9682 23.4979 50.4553 24.1092L48.619 25.7319C48.3629 25.3771 48.0273 25.0873 47.6391 24.8855C47.2509 24.6837 46.8208 24.5756 46.3834 24.5698C46.0355 24.5683 45.6909 24.6367 45.3699 24.7708C45.049 24.905 44.7582 25.1021 44.5148 25.3506C44.2714 25.5991 44.0803 25.8939 43.9528 26.2176C43.8254 26.5412 43.7641 26.8872 43.7727 27.2349C43.7612 27.5879 43.8228 27.9394 43.9535 28.2675C44.0843 28.5955 44.2815 28.893 44.5326 29.1413C44.7838 29.3895 45.0836 29.5832 45.4131 29.7101C45.7427 29.8371 46.0949 29.8945 46.4477 29.8789C46.9088 29.8697 47.3607 29.7481 47.7641 29.5248C48.1676 29.3014 48.5104 28.9829 48.7629 28.597L50.7576 30.0993Z" fill="black"/>
<path fill-rule="evenodd" clip-rule="evenodd" d="M60.1833 30.5403C59.684 31.0974 59.0712 31.5411 58.3861 31.8417C57.701 32.1422 56.9594 32.2926 56.2114 32.2827C55.5391 32.314 54.8677 32.205 54.2398 31.9627C53.612 31.7203 53.0415 31.3499 52.5646 30.875C52.0877 30.4002 51.7149 29.8312 51.47 29.2044C51.225 28.5776 51.1132 27.9066 51.1417 27.2342C51.1417 24.5289 52.978 22.1653 55.8523 22.1653C58.5265 22.1653 60.4227 24.4289 60.4227 27.1335C60.4244 27.382 60.4044 27.6301 60.3629 27.8751H53.6561C53.7172 28.5197 54.0217 29.1168 54.5075 29.5448C54.9934 29.9728 55.6241 30.1995 56.2712 30.1789C56.7318 30.1654 57.1849 30.0591 57.6034 29.8663C58.0219 29.6735 58.3972 29.3982 58.7068 29.057L60.1833 30.5403ZM57.7682 25.9729C57.7121 25.5039 57.4862 25.0717 57.1332 24.758C56.7802 24.4442 56.3246 24.2706 55.8523 24.2698C55.3619 24.2669 54.886 24.4356 54.507 24.7466C54.1279 25.0576 53.8695 25.4914 53.7765 25.9729H57.7682Z" fill="black"/>
<path fill-rule="evenodd" clip-rule="evenodd" d="M61.4546 32.0835V22.366H63.9493V23.1471C64.7176 22.51 65.6852 22.1628 66.6834 22.166C67.3229 22.1643 67.9549 22.3034 68.5346 22.5735C69.1142 22.8436 69.6272 23.2381 70.0372 23.7289C70.7835 24.701 71.1394 25.917 71.0349 27.138V32.0835H68.4402V26.9319C68.4766 26.6044 68.4439 26.2729 68.3442 25.9588C68.2445 25.6447 68.08 25.355 67.8614 25.1085C67.4663 24.7428 66.9426 24.5484 66.4046 24.5676C65.9475 24.581 65.499 24.6959 65.0917 24.9038C64.6844 25.1117 64.3283 25.4075 64.0493 25.7698V32.0835H61.4546Z" fill="black"/>
<path fill-rule="evenodd" clip-rule="evenodd" d="M77.7166 22.1661C76.5782 22.1637 75.4653 22.5034 74.5222 23.141C73.5791 23.7787 72.8493 24.685 72.4275 25.7424C72.0056 26.7998 71.9111 27.9595 72.1562 29.0713C72.4014 30.183 72.9748 31.1955 73.8022 31.9774C73.9963 32.1622 74.2501 32.2715 74.5178 32.2854C74.7854 32.2993 75.0491 32.2169 75.2613 32.0532C75.9613 31.5322 76.8107 31.2509 77.6833 31.2509C78.5559 31.2509 79.4052 31.5322 80.1053 32.0532C80.3195 32.2173 80.5855 32.2989 80.8549 32.2832C81.1243 32.2675 81.379 32.1555 81.5727 31.9676C82.3936 31.1885 82.9632 30.1821 83.2084 29.0772C83.4537 27.9724 83.3634 26.8195 82.9491 25.7663C82.5348 24.7131 81.8154 23.8076 80.8832 23.1659C79.951 22.5242 78.8483 22.1755 77.7166 22.1646M77.6833 30.682C77.3091 30.6921 76.9368 30.6259 76.5891 30.4873C76.2414 30.3488 75.9255 30.1409 75.6608 29.8762C75.3961 29.6116 75.1881 29.2958 75.0494 28.9481C74.9108 28.6004 74.8445 28.2281 74.8545 27.8539C74.8545 27.1037 75.1525 26.3842 75.683 25.8537C76.2135 25.3232 76.933 25.0252 77.6833 25.0252C78.4335 25.0252 79.153 25.3232 79.6835 25.8537C80.214 26.3842 80.5121 27.1037 80.5121 27.8539C80.5221 28.2281 80.4558 28.6004 80.3171 28.9481C80.1785 29.2958 79.9705 29.6116 79.7058 29.8762C79.4411 30.1409 79.1252 30.3488 78.7775 30.4873C78.4298 30.6259 78.0575 30.6921 77.6833 30.682Z" fill="#62D84E"/>
<path fill-rule="evenodd" clip-rule="evenodd" d="M88.4758 32.0834H86.5432L82.6895 22.366H85.2804L87.3932 27.919L89.4652 22.366H91.6304L93.6834 27.919L95.8145 22.366H98.4061L94.5523 32.0834H92.6198L90.5478 26.5501L88.4758 32.0834Z" fill="black"/>
<path d="M98.4356 30.9849H98.2166V31.3963H98.0303V30.2705H98.4848C98.5324 30.2703 98.5796 30.2795 98.6236 30.2977C98.6677 30.3158 98.7077 30.3425 98.7413 30.3761C98.775 30.4098 98.8017 30.4498 98.8198 30.4938C98.8379 30.5378 98.8471 30.585 98.8469 30.6326C98.8464 30.7032 98.8249 30.772 98.7851 30.8303C98.7453 30.8886 98.689 30.9337 98.6235 30.9599L98.8795 31.3985H98.6765L98.4356 30.9849ZM98.2166 30.819H98.4848C98.5351 30.819 98.5832 30.799 98.6187 30.7635C98.6543 30.728 98.6742 30.6798 98.6742 30.6296C98.6742 30.5794 98.6543 30.5312 98.6187 30.4957C98.5832 30.4602 98.5351 30.4402 98.4848 30.4402H98.2189L98.2166 30.819Z" fill="black"/>
<path d="M98.4091 29.8092C98.6158 29.809 98.8178 29.8702 98.9897 29.9849C99.1616 30.0996 99.2957 30.2627 99.3749 30.4536C99.454 30.6445 99.4748 30.8545 99.4346 31.0572C99.3944 31.2599 99.2949 31.4462 99.1489 31.5923C99.0028 31.7385 98.8167 31.8381 98.614 31.8785C98.4113 31.9188 98.2012 31.8982 98.0103 31.8191C97.8193 31.7401 97.6561 31.6062 97.5413 31.4344C97.4265 31.2626 97.3652 31.0605 97.3652 30.8539C97.3656 30.5771 97.4757 30.3117 97.6714 30.1159C97.867 29.9201 98.1323 29.8098 98.4091 29.8092ZM98.4091 29.644C98.1694 29.644 97.9351 29.7151 97.7357 29.8483C97.5364 29.9815 97.381 30.1708 97.2893 30.3923C97.1975 30.6138 97.1735 30.8575 97.2203 31.0926C97.2671 31.3278 97.3825 31.5437 97.552 31.7133C97.7216 31.8828 97.9375 31.9982 98.1727 32.045C98.4078 32.0918 98.6515 32.0678 98.873 31.976C99.0945 31.8843 99.2838 31.7289 99.417 31.5296C99.5502 31.3303 99.6213 31.0959 99.6213 30.8562C99.6213 30.5347 99.4936 30.2264 99.2662 29.9991C99.0389 29.7717 98.7306 29.644 98.4091 29.644Z" fill="black"/>
</g>
<defs>
<clipPath id="clip0_4520_7121">
<rect width="100" height="15.1515" fill="white" transform="translate(0 17.4243)"/>
</clipPath>
</defs>
</svg>
