<svg width="100" height="50" viewBox="0 0 100 50" fill="none" xmlns="http://www.w3.org/2000/svg">
<path d="M78.028 26.8591H77.7558V31.5524H74.3779V19.8671L77.7558 14.5991V25.5022C78.4282 24.6801 80.6936 21.5592 80.6936 21.5592H84.864L80.9097 25.7337L85.0001 31.5604H80.7336L78.028 26.8591ZM68.6145 26.0929L69.9993 21.5912H73.3453L69.423 31.5205C68.2543 34.5057 66.5813 36.5251 64.0839 36.5251C63.1233 36.5251 62.3149 36.2777 61.8906 36.0382L63.2354 33.9629C63.4355 33.9869 63.6436 33.9949 63.8518 33.9949C65.0044 33.9949 65.8689 32.8774 66.4293 31.5524L62.3149 21.5912H66.1011L67.5819 26.037C67.8701 26.8831 68.0782 28.4954 68.0782 28.4954C68.0782 28.4954 68.3424 26.939 68.6145 26.0929ZM58.4086 25.8614C58.4086 24.5604 57.8322 23.9458 56.7356 23.9458C56.1993 23.9458 55.639 24.0975 55.2547 24.3289V31.5524H51.8768V21.6869L55.1827 21.4156L55.1027 23.0279H55.2147C55.9271 22.0701 57.1358 21.3437 58.5767 21.3437C60.3057 21.3437 61.8026 22.4133 61.8026 24.9435V31.5524H58.4086V25.8614ZM42.2072 31.0416L42.5113 28.7429C43.5679 29.2617 44.7606 29.5091 45.7612 29.5091C46.4896 29.5091 46.9699 29.2617 46.9699 28.8227C46.9699 27.5615 42.4153 27.8649 42.4153 24.5684C42.4153 22.4612 44.3524 21.3517 46.7778 21.3517C47.9865 21.3517 49.2352 21.679 50.0437 21.9663L49.7155 24.2252C48.867 23.8979 47.7144 23.5946 46.7538 23.5946C46.1615 23.5946 45.6812 23.8021 45.6812 24.1852C45.6812 25.4304 50.3319 25.183 50.3319 28.3996C50.3319 30.5388 48.4268 31.7679 45.8173 31.7679C44.3764 31.7679 43.2077 31.5205 42.2072 31.0416Z" fill="#091C30"/>
<path d="M34.8535 16.4773H18.0505C18.0505 15.4271 19.5693 12.2525 22.6069 6.95361C22.6069 6.95361 23.0275 9.74826 23.8687 15.3375L29.002 15.3377L30.262 6.95361C33.323 12.3228 34.8535 15.4974 34.8535 16.4773Z" fill="white"/>
<path d="M26.4252 43.0462L15 35.0517V16.3929C15 16.3929 19.2243 14.8362 26.4399 14.8362C33.6555 14.8362 37.8489 16.3929 37.8489 16.3929V35.0517L26.4252 43.0462Z" fill="white"/>
<path d="M26.425 41.9224L15.7297 34.4699V17.1418C15.7297 17.1418 19.7293 15.696 26.425 15.696V41.9224Z" fill="#DBDBDB"/>
<path d="M26.4425 15.696C26.4376 15.696 26.4329 15.6962 26.428 15.696V41.9004L37.0294 34.4695V17.1418C37.0294 17.1418 33.1382 15.696 26.4425 15.696Z" fill="#C6C6C6"/>
<path d="M32.213 37.8447L31.3111 30.0181H26.3545C26.3545 36.23 26.3545 40.204 26.3545 41.9401L26.4259 42.0074C28.3543 40.69 30.2833 39.3025 32.213 37.8447Z" fill="#3B3B63"/>
<path d="M20.6448 37.9077L26.4288 42.0087L26.4317 29.781H21.4224L20.6448 37.9077Z" fill="#53537A"/>
<path d="M28.9009 35.5901C28.9009 36.9347 27.6232 37.6013 26.4511 37.6013C25.2791 37.6013 23.9756 36.9347 23.9756 35.5901" fill="#BC9375"/>
<path d="M26.4388 36.2856C25.4978 36.2856 25.0403 35.607 25.0403 34.2119H25.4889C25.4889 35.8452 26.1303 35.8452 26.4388 35.8452C26.7472 35.8452 27.3887 35.8452 27.3887 34.2119H27.8372C27.8372 35.607 27.3796 36.2856 26.4388 36.2856Z" fill="white"/>
<path d="M26.428 34.5529C26.7175 35.3012 27.2771 35.6753 28.1067 35.6753C28.9191 35.6753 29.7668 35.2551 30.1528 34.2166C30.692 32.7639 30.6866 30.7419 30.6866 30.7419C30.6866 30.7419 33.0826 27.7943 33.0826 26.7976C33.0826 26.7976 30.8644 26.7976 26.428 26.7976V34.5529Z" fill="#C49A7E"/>
<path d="M19.6758 26.7976C19.6758 27.9518 22.0511 30.7419 22.0511 30.7419C22.0511 30.7419 22.0452 32.7633 22.585 34.2166C22.9701 35.2544 23.8187 35.6753 24.6312 35.6753C25.4608 35.6753 26.0594 35.3012 26.4269 34.5529V26.7976H19.6758Z" fill="#D8B7A0"/>
<path d="M32.7949 20.1602C30.9479 18.2991 30.4859 14.4185 30.4859 14.4185C30.1411 15.6413 29.3915 19.2466 29.3915 19.2466C29.3915 19.2466 27.9357 18.784 26.3675 18.7815C26.316 18.7815 26.316 23.6392 26.3675 33.3545L27.8604 32.2941L28.138 27.148L29.7276 28.9304L31.7754 29.5184C31.7754 29.5184 32.5416 28.9815 32.5416 28.9835C32.8669 28.5358 32.9748 28.1544 33.0535 27.9565C33.3379 27.2365 32.6993 21.73 32.6993 21.73C32.4725 21.2636 32.7949 20.1602 32.7949 20.1602Z" fill="#3B3B63"/>
<path d="M23.4996 19.2466C23.4996 19.2466 22.7497 15.6414 22.4052 14.4185C22.4052 14.4185 21.9435 18.2991 20.0962 20.1602C20.0962 20.1602 20.4186 21.2637 20.1918 21.73C20.1918 21.73 19.5532 27.2368 19.8376 27.9557C19.9162 28.1537 20.0249 28.535 20.3498 28.9827C20.3498 28.9807 21.1164 29.5177 21.1164 29.5177L23.1638 28.9295L24.7531 27.1475L25.0314 32.2935L26.4273 33.3259V18.7545C24.8533 18.7571 23.4996 19.2466 23.4996 19.2466Z" fill="#53537A"/>
<path d="M31.5009 10.8227C31.8073 11.384 34.4418 16.5726 34.4418 18.3694L33.2733 21.4968C33.471 23.2615 33.8641 27.0959 33.5673 27.8451C33.3841 28.3084 32.6856 29.2616 32.0882 30.0336L32.905 37.3593L31.8008 38.1406L31.187 32.7879C31.1026 33.3311 30.9757 33.9111 30.7822 34.4319C30.5265 35.1213 30.0744 35.6437 29.4963 35.9531C29.4624 37.6058 27.9115 38.4974 26.4502 38.4974C24.9767 38.4974 23.4128 37.6065 23.3783 35.9544C22.799 35.6444 22.3464 35.122 22.0903 34.4319C21.9046 33.9312 21.7795 33.3768 21.6947 32.8518L21.1074 38.239L19.9973 37.445L20.799 30.0559C20.1969 29.2806 19.485 28.3131 19.3 27.8446C19.0032 27.0953 19.381 23.2615 19.579 21.4965L18.3411 18.2595V18.154C18.3411 16.3572 21.0445 11.384 21.3514 10.8227L22.227 9.24707C22.7601 12.8977 23.0264 14.7247 23.026 14.7279L23.4572 17.6862L24.0244 18.6025C24.5694 18.4217 25.4946 18.1708 26.4315 18.1708C27.3694 18.1708 28.3008 18.4226 28.8482 18.603L29.4151 17.6864L30.6434 9.24707L31.5009 10.8227ZM26.4502 37.3227C27.0969 37.3227 28.018 37.0353 28.248 36.2736C28.2233 36.2743 28.1995 36.2763 28.1748 36.2763C28.049 36.2763 27.9313 36.2647 27.8171 36.2494C27.4835 36.7053 26.9638 36.8436 26.4373 36.8436C25.9117 36.8436 25.393 36.704 25.06 36.2488C24.945 36.2649 24.8261 36.2763 24.6992 36.2763C24.675 36.2763 24.6516 36.2743 24.6278 36.2736C24.8601 37.0353 25.7936 37.3227 26.4502 37.3227ZM25.6927 36.0707C25.8933 36.2183 26.1412 36.3004 26.4377 36.3004C26.7327 36.3004 26.9794 36.2177 27.1797 36.0707C27.02 36.0009 26.8755 35.9177 26.748 35.827C26.6327 35.8605 26.5223 35.8598 26.4372 35.8598C26.3516 35.8598 26.2401 35.8598 26.1238 35.8263C25.9967 35.9177 25.8524 36.0009 25.6927 36.0707ZM30.2885 30.3876C31.0831 29.4181 32.2795 27.8568 32.4528 27.4198C32.5834 26.9699 32.3605 23.9874 32.0768 21.4876L32.0612 21.3491L32.2957 20.728C31.5226 19.9186 30.9833 18.8093 30.6148 17.7617L30.5669 18.0908L29.3463 20.0612L28.8697 19.8617C28.858 19.8567 27.6135 19.3449 26.4322 19.3449C25.2433 19.3449 24.019 19.8562 24.007 19.8612L23.5296 20.0625L22.3076 18.0912L22.2714 17.8387C21.8989 18.8761 21.359 19.9659 20.5896 20.7577L20.8136 21.3495L20.7979 21.4882C20.5141 23.9874 20.2912 26.9699 20.4262 27.4311C20.5951 27.8575 21.7916 29.4189 22.5858 30.3876L22.7184 30.5494L22.7177 30.7568C22.7177 30.7762 22.72 32.694 23.2155 34.0286C23.5753 34.9966 24.3733 35.1001 24.7002 35.1001C25.5219 35.1001 25.8695 34.3595 25.8838 34.328C26.0764 33.9559 26.1727 33.3446 26.1727 32.4941H26.6694C26.6694 33.1774 26.773 33.79 26.9801 34.332C26.9927 34.3588 27.3491 35.1019 28.1748 35.1019C28.501 35.1019 29.2993 34.9973 29.6588 34.0293C30.1559 32.69 30.1565 30.7762 30.1565 30.7575L30.1559 30.5501L30.2885 30.3876Z" fill="#333152"/>
<path d="M30.155 25.1748H28.3607H27.7627V25.1996C27.7627 26.02 28.4851 26.6845 29.3325 26.6845C30.1802 26.6845 30.9026 26.0198 30.9026 25.1996V25.1748H30.155Z" fill="#333152"/>
<path d="M28.3591 25.1748V25.1996C28.3591 25.6876 28.7592 26.083 29.2564 26.083C29.7537 26.083 30.1536 25.6876 30.1536 25.1996V25.1748H28.3591Z" fill="white"/>
<path d="M29.1149 25.1748C29.1108 25.1748 29.1073 25.1768 29.1036 25.1775C29.1558 25.1883 29.1847 25.3044 29.1734 25.3816C29.1566 25.4997 29.0542 25.5817 28.9368 25.5837C28.9709 25.7381 29.0991 25.8622 29.2694 25.8857C29.4869 25.9159 29.6879 25.7694 29.7187 25.556C29.7409 25.399 29.664 25.1748 29.5354 25.1748H29.1149Z" fill="#333152"/>
<path d="M24.3802 25.1748H22.5862H21.988V25.1996C21.988 26.02 22.7106 26.6845 23.5578 26.6845C24.4055 26.6845 25.128 26.0198 25.128 25.1996V25.1748H24.3802Z" fill="#333152"/>
<path d="M22.5862 25.1748V25.1996C22.5862 25.6876 22.9865 26.083 23.4831 26.083C23.9805 26.083 24.3804 25.6876 24.3804 25.1996V25.1748H22.5862Z" fill="white"/>
<path d="M23.7594 25.1748H23.3385C23.3349 25.1748 23.3309 25.1768 23.3276 25.1775C23.3795 25.1883 23.4083 25.3044 23.3974 25.3816C23.3804 25.4997 23.2785 25.5817 23.1604 25.5837C23.195 25.7381 23.3232 25.8622 23.4931 25.8857C23.7105 25.9159 23.912 25.7694 23.9424 25.556C23.9649 25.399 23.8881 25.1748 23.7594 25.1748Z" fill="#333152"/>
<path d="M29.9751 24.4752C30.0755 24.3672 30.9283 23.4172 29.7877 23.4172C28.7571 23.4172 28.0156 24.2336 27.8191 24.4752H29.9751Z" fill="#C49A7E"/>
<path d="M25.0535 24.4752C24.8571 24.2336 24.1156 23.4172 23.0847 23.4172C21.9447 23.4172 22.7975 24.3672 22.8973 24.4752H25.0535Z" fill="#D8B7A0"/>
<path d="M19.5715 18.0585C19.6393 17.1265 20.627 14.8934 21.5691 13.0115L21.8202 14.7322C21.7244 15.3755 21.2867 17.8987 20.1126 19.4891L19.5715 18.0585Z" fill="#D8B7A0"/>
<path d="M31.0781 14.598L31.3095 13.0115C32.2515 14.8933 33.2398 17.1265 33.3075 18.0585L32.7792 19.4552C31.5106 17.7044 31.1126 14.8582 31.0781 14.598Z" fill="#C49A7E"/>
<path d="M25.5606 33.5386C25.1182 33.209 24.6643 32.7932 24.6643 32.4742C24.6643 32.2647 25.0417 31.6189 25.0417 31.6189H27.8481C27.8481 31.6189 28.2162 32.1915 28.2162 32.4742C28.2162 32.7713 27.7581 33.1756 27.3009 33.5052C27.1453 33.2422 26.9474 33.1965 26.8559 33.4038C26.8087 33.5112 26.7994 33.6659 26.8225 33.8277C26.5735 33.9856 26.3916 34.0873 26.3916 34.0873C26.3916 34.0873 26.2511 34.0067 26.0503 33.8771C26.0827 33.6977 26.0764 33.5221 26.0243 33.4038C25.932 33.1937 25.7301 33.2434 25.5733 33.5159C25.569 33.5234 25.5648 33.5309 25.5606 33.5386Z" fill="#333152"/>
</svg>
