<svg width="100" height="50" viewBox="0 0 100 50" fill="none" xmlns="http://www.w3.org/2000/svg">
<path d="M89.623 20.9379C89.7405 21.0037 89.8325 21.0932 89.8992 21.2065C89.9659 21.3184 90.0008 21.4464 90 21.5766C90 21.7105 89.9667 21.8333 89.8992 21.9458C89.8325 22.0576 89.7397 22.1463 89.623 22.2113C89.5057 22.2762 89.3761 22.3087 89.2341 22.3087C89.096 22.3087 88.9683 22.2762 88.8524 22.2113C88.7387 22.1487 88.6436 22.0571 88.577 21.9458C88.5096 21.8341 88.4762 21.7113 88.4762 21.5766C88.4762 21.4427 88.5096 21.3191 88.577 21.2065C88.6437 21.094 88.7357 21.0045 88.8524 20.9379C88.9683 20.8722 89.0961 20.8389 89.2341 20.8389C89.3762 20.8389 89.5056 20.8714 89.623 20.9379ZM89.5444 22.0916C89.6338 22.0425 89.7077 21.9695 89.7579 21.8808C89.8095 21.7905 89.8349 21.6898 89.8349 21.5765C89.8349 21.4639 89.8095 21.3617 89.7579 21.2706C89.7082 21.1807 89.6342 21.1066 89.5444 21.0567C89.4531 21.0052 89.3492 20.979 89.2333 20.979C89.1205 20.979 89.0197 21.0051 88.9293 21.0567C88.84 21.1068 88.7666 21.181 88.7174 21.2706C88.6658 21.3617 88.6404 21.4632 88.6404 21.5765C88.6404 21.6898 88.6657 21.7905 88.7174 21.8808C88.7671 21.9693 88.8405 22.0422 88.9293 22.0916C89.0197 22.1422 89.1205 22.1677 89.2333 22.1677C89.3499 22.1677 89.4531 22.1423 89.5444 22.0916ZM89.5071 21.5488C89.4706 21.586 89.4238 21.6129 89.3658 21.6304L89.588 21.9608H89.3864L89.2031 21.6566H89.1309V21.9608H88.9594V21.1685H89.1936C89.438 21.1685 89.5602 21.2485 89.5602 21.4094C89.561 21.4656 89.5436 21.5115 89.5071 21.5488ZM89.1317 21.5307H89.2221C89.3309 21.5307 89.3848 21.4902 89.3848 21.4103C89.3848 21.3698 89.3713 21.3413 89.3443 21.3231C89.3173 21.3049 89.2745 21.2962 89.2166 21.2962H89.1325V21.5307L89.1317 21.5307ZM35.7005 23.3269C35.6512 23.3745 35.5917 23.3975 35.5219 23.3975H33.3807C33.3108 23.3975 33.2759 23.4307 33.2759 23.4981V28.356C33.2759 28.8671 33.3918 29.2362 33.622 29.4645C33.8529 29.6935 34.2204 29.8068 34.7243 29.8068H35.3545C35.4243 29.8068 35.4838 29.8306 35.5331 29.8773C35.5823 29.9249 35.6069 29.9819 35.6069 30.0485V31.5603C35.6069 31.7085 35.5228 31.7956 35.3554 31.8225L34.2633 31.8423C33.1578 31.8423 32.3316 31.6608 31.7864 31.2979C31.2412 30.935 30.9603 30.2497 30.9467 29.2418V23.4972C30.9467 23.4299 30.9118 23.3966 30.842 23.3966H29.6452C29.5753 23.3966 29.5158 23.3736 29.4666 23.3261C29.4173 23.2793 29.3927 23.2223 29.3927 23.1549V21.7438C29.3927 21.6764 29.4173 21.6194 29.4666 21.5726C29.5158 21.5258 29.5745 21.5021 29.6452 21.5021H30.842C30.9118 21.5021 30.9467 21.4688 30.9467 21.4014V19.0435C30.9467 18.9761 30.9713 18.9191 31.0206 18.8723C31.0698 18.8255 31.1285 18.8018 31.1992 18.8018H33.0253C33.0952 18.8018 33.1547 18.8255 33.2039 18.8723C33.2531 18.9199 33.2777 18.9769 33.2777 19.0435V21.4015C33.2777 21.4689 33.3127 21.5021 33.3825 21.5021H35.5237C35.5935 21.5021 35.653 21.5259 35.7023 21.5727C35.7515 21.6202 35.7761 21.6773 35.7761 21.7438V23.155C35.7737 23.2231 35.7491 23.2802 35.7007 23.3269M45.3298 26.6231L45.3092 27.2482C45.3092 27.4099 45.2252 27.4899 45.0577 27.4899H38.4864C38.4166 27.4899 38.3816 27.524 38.3816 27.5905C38.4237 28.0343 38.4864 28.3361 38.5705 28.4978C38.9062 29.4653 39.7252 29.9557 41.0268 29.9692C41.9783 29.9692 42.7339 29.5928 43.2942 28.8401C43.3498 28.7593 43.4204 28.7189 43.5046 28.7189C43.5601 28.7189 43.6093 28.7387 43.6514 28.7791L44.953 29.8068C45.0792 29.9011 45.0999 30.0081 45.0157 30.1293C44.5816 30.7204 44.0046 31.1775 43.284 31.5001C42.5634 31.8226 41.7618 31.9842 40.88 31.9842C39.788 31.9842 38.861 31.7488 38.0984 31.279C37.3357 30.8091 36.7794 30.1499 36.4293 29.3037C36.1071 28.5779 35.9468 27.57 35.9468 26.28C35.9468 25.5012 36.0309 24.8689 36.1984 24.3855C36.4786 23.445 37.0063 22.7026 37.7832 22.1582C38.5602 21.6138 39.4943 21.3421 40.5856 21.3421C43.3427 21.3421 44.8958 22.7263 45.2458 25.4948C45.3021 25.83 45.3298 26.2063 45.3298 26.6231ZM39.2943 23.7303C38.9514 23.979 38.7094 24.3245 38.5697 24.7683C38.4856 24.9972 38.4292 25.292 38.4015 25.6549C38.3729 25.7222 38.4015 25.7555 38.4855 25.7555H42.7474C42.8172 25.7555 42.8522 25.7222 42.8522 25.6549C42.8236 25.3189 42.7823 25.0638 42.726 24.8887C42.5998 24.4046 42.3514 24.029 41.9807 23.7596C41.6101 23.4909 41.1442 23.3562 40.5847 23.3562C40.0673 23.357 39.6372 23.4814 39.2943 23.7303ZM54.1137 22.3088C54.7924 22.9538 55.1318 23.8341 55.132 24.9497V31.561C55.132 31.6283 55.1073 31.6854 55.0581 31.7322C55.0089 31.7797 54.9494 31.8027 54.8795 31.8027H52.9478C52.878 31.8027 52.8185 31.7797 52.7692 31.7322C52.72 31.6854 52.6954 31.6283 52.6954 31.561V25.433C52.6954 24.815 52.5136 24.3142 52.1493 23.9314C51.7851 23.5487 51.3026 23.357 50.701 23.357C50.0994 23.357 49.6129 23.5455 49.2423 23.9211C48.8716 24.2975 48.686 24.7951 48.686 25.4131V31.5609C48.686 31.6283 48.6614 31.6853 48.6121 31.7321C48.5629 31.7796 48.5034 31.8026 48.4335 31.8026H46.5018C46.432 31.8026 46.3725 31.7796 46.3232 31.7321C46.274 31.6853 46.2494 31.6283 46.2494 31.5609V21.7446C46.2494 21.6772 46.274 21.6201 46.3232 21.5734C46.3725 21.5266 46.4312 21.5029 46.5018 21.5029H48.4335C48.5034 21.5029 48.5629 21.5266 48.6121 21.5734C48.6614 21.6209 48.686 21.678 48.686 21.7446V22.3896C48.686 22.43 48.6995 22.4569 48.7281 22.4704C48.7558 22.4839 48.7773 22.4704 48.7907 22.43C49.3646 21.7042 50.232 21.3413 51.3939 21.3413C52.528 21.3413 53.4343 21.6638 54.1137 22.3088M63.1151 21.7851C63.7865 22.0806 64.3047 22.4871 64.6682 23.0045C65.0317 23.5218 65.2142 24.1098 65.2142 24.7683V31.5611C65.2142 31.6284 65.1896 31.6855 65.1404 31.7322C65.0912 31.7798 65.0317 31.8028 64.9618 31.8028H63.0301C62.9603 31.8028 62.9007 31.7798 62.8515 31.7322C62.8023 31.6855 62.7777 31.6284 62.7777 31.5611V30.9161C62.7777 30.8756 62.7634 30.8527 62.7356 30.8455C62.707 30.8392 62.6793 30.8487 62.6515 30.8756C61.9658 31.6014 60.9722 31.9643 59.6706 31.9643C58.6207 31.9643 57.7564 31.7092 57.0778 31.1981C56.3984 30.6878 56.0596 29.9279 56.0596 28.9201C56.0596 27.8719 56.4406 27.0557 57.204 26.471C57.9667 25.8862 59.0413 25.5938 60.4262 25.5938H62.6721C62.742 25.5938 62.7769 25.5605 62.7769 25.4932V25.0091C62.7769 24.4853 62.6158 24.0789 62.2944 23.7897C61.9722 23.5005 61.4896 23.3562 60.846 23.3562C60.3143 23.3562 59.8834 23.4465 59.5548 23.628C59.2255 23.8095 59.0191 24.0615 58.9358 24.3839C58.8937 24.5456 58.7953 24.6129 58.6422 24.5852L56.6056 24.3435C56.5357 24.33 56.4762 24.307 56.427 24.273C56.3778 24.2397 56.3603 24.1961 56.3747 24.1422C56.4866 23.323 56.9445 22.6502 57.7501 22.1265C58.5548 21.6028 59.5659 21.3405 60.7833 21.3405C61.6666 21.3413 62.4436 21.4895 63.1151 21.7851ZM61.9651 29.5857C62.4548 29.2363 62.7 28.7926 62.7 28.2553V27.3077C62.7 27.2404 62.6651 27.2071 62.5953 27.2071H60.8318C60.0897 27.2071 59.5056 27.3418 59.0787 27.6104C58.6517 27.879 58.4382 28.2625 58.4382 28.7593C58.4382 29.1895 58.6025 29.5223 58.9318 29.7569C59.2604 29.9922 59.6842 30.1094 60.2017 30.1094C60.8873 30.1102 61.4755 29.9359 61.9651 29.5857ZM75.5648 26.6231C75.5648 27.577 75.4314 28.417 75.1656 29.1427C74.8576 30.0294 74.3608 30.7219 73.6751 31.2187C72.9895 31.7163 72.1498 31.9642 71.1562 31.9642C70.1761 31.9642 69.3721 31.6085 68.742 30.8961C68.7134 30.8557 68.6856 30.8423 68.6579 30.8557C68.6293 30.8692 68.6158 30.8961 68.6158 30.9366V31.5617C68.6158 31.6291 68.5912 31.6861 68.542 31.7329C68.4927 31.7804 68.4332 31.8034 68.3634 31.8034H66.4316C66.3618 31.8034 66.3023 31.7804 66.253 31.7329C66.2038 31.6861 66.1792 31.6291 66.1792 31.5617V17.9349C66.1792 17.8676 66.2038 17.8105 66.253 17.7638C66.3023 17.717 66.361 17.6932 66.4316 17.6932H68.3634C68.4332 17.6932 68.4927 17.717 68.542 17.7638C68.5912 17.8113 68.6158 17.8684 68.6158 17.9349V22.3087C68.6158 22.3491 68.6293 22.3761 68.6579 22.3896C68.6856 22.4031 68.7134 22.3967 68.742 22.3698C69.3435 21.6844 70.1411 21.3421 71.1356 21.3421C72.1713 21.3421 73.0284 21.5909 73.7069 22.0877C74.3855 22.5853 74.8862 23.277 75.2077 24.1636C75.4458 24.9163 75.5648 25.7357 75.5648 26.6231ZM73.0664 26.6627C73.0664 25.6145 72.8561 24.7951 72.4363 24.2032C72.0585 23.6391 71.4982 23.357 70.757 23.357C70.0713 23.357 69.5459 23.6526 69.1824 24.2437C68.8324 24.7951 68.6578 25.5938 68.6578 26.6421C68.6578 27.677 68.8189 28.4566 69.1403 28.9803C69.5038 29.6253 70.0498 29.9478 70.7776 29.9478C71.1688 29.9478 71.5188 29.8638 71.8275 29.6959C72.1355 29.5279 72.3799 29.2894 72.5624 28.9804C72.8981 28.417 73.0664 27.6445 73.0664 26.6628M76.5703 31.748C76.521 31.7013 76.4964 31.6442 76.4964 31.5769V17.9508C76.4964 17.8835 76.521 17.8264 76.5703 17.7797C76.6195 17.7329 76.6782 17.7091 76.7489 17.7091H78.6806C78.7504 17.7091 78.8099 17.7329 78.8592 17.7797C78.9084 17.8272 78.933 17.8843 78.933 17.9508V31.5769C78.933 31.6442 78.9084 31.7013 78.8592 31.748C78.8099 31.7956 78.7504 31.8186 78.6806 31.8186H76.748C76.6781 31.8186 76.6187 31.7956 76.5703 31.748ZM89.2571 26.6073L89.2365 27.2324C89.2365 27.394 89.1524 27.4741 88.985 27.4741H82.4137C82.3438 27.4741 82.3089 27.5082 82.3089 27.5747C82.351 28.0185 82.4137 28.3203 82.4978 28.482C82.8335 29.4495 83.6525 29.9399 84.9541 29.9534C85.9056 29.9534 86.6612 29.577 87.2215 28.8243C87.277 28.7435 87.3477 28.7031 87.4311 28.7031C87.4866 28.7031 87.5358 28.7229 87.5779 28.7633L88.8795 29.791C89.0057 29.8853 89.0263 29.9923 88.9422 30.1135C88.508 30.7046 87.9311 31.1617 87.2105 31.4843C86.4899 31.8068 85.6883 31.9684 84.8065 31.9684C83.7153 31.9684 82.7875 31.733 82.0248 31.2631C81.2622 30.7933 80.7058 30.134 80.3558 29.2879C80.0336 28.5621 79.8733 27.5542 79.8733 26.2642C79.8733 25.4854 79.9574 24.8531 80.1249 24.3697C80.4051 23.4292 80.9328 22.6868 81.7097 22.1424C82.4866 21.598 83.4208 21.3263 84.5121 21.3263C87.2692 21.3263 88.8223 22.7105 89.1722 25.479C89.2286 25.815 89.2571 26.1913 89.2571 26.6073M83.2216 23.7144C82.8787 23.9632 82.6367 24.3087 82.497 24.7525C82.4129 24.9814 82.3573 25.2762 82.3287 25.6391C82.3002 25.7064 82.3287 25.7397 82.4128 25.7397H86.6747C86.7445 25.7397 86.7794 25.7064 86.7794 25.6391C86.7509 25.3031 86.7096 25.048 86.6533 24.8729C86.5271 24.3888 86.2786 24.0132 85.908 23.7438C85.5374 23.4751 85.0715 23.3404 84.512 23.3404C83.9946 23.342 83.5644 23.4664 83.2216 23.7144ZM28.1301 25.9733L25.7023 18.7756C25.6157 18.5196 25.4628 18.2911 25.2592 18.1132C25.0556 17.9352 24.8085 17.8141 24.5429 17.7622L16.9653 16.2861C16.4367 16.1831 15.886 16.3685 15.528 16.7694L10.3884 22.5202C10.2086 22.722 10.0854 22.9677 10.0312 23.2323C9.97695 23.4969 9.99369 23.7711 10.0797 24.0272L12.5074 31.2249C12.594 31.481 12.7468 31.7096 12.9505 31.8876C13.1541 32.0656 13.4013 32.1866 13.6669 32.2383L21.2446 33.7144C21.3403 33.733 21.4375 33.7423 21.535 33.7422C21.9675 33.7422 22.3889 33.5584 22.6818 33.2311L27.8213 27.4802C28.1872 27.0713 28.3054 26.4938 28.1301 25.9732M25.1969 18.946L26.7936 23.6795L23.4001 18.3343C23.3279 18.2206 23.2391 18.1183 23.1366 18.0308L24.4421 18.2851C24.6151 18.3192 24.776 18.3982 24.9085 18.5142C25.041 18.6303 25.1405 18.7793 25.1969 18.946ZM22.6953 31.4294L19.7374 31.5791L24.5222 28.8138C24.5294 28.8099 24.5366 28.8051 24.5436 28.8003L23.3921 30.9848C23.3245 31.1128 23.2247 31.2211 23.1025 31.299C22.9804 31.377 22.8401 31.4219 22.6953 31.4294ZM15.2613 31.3826L13.5899 28.7504C13.6217 28.7733 13.6542 28.7948 13.6883 28.8146L18.5113 31.6021C18.5335 31.6148 18.5565 31.6275 18.5795 31.6386L16.009 31.7685C15.7082 31.7828 15.4217 31.6354 15.2614 31.3827M15.5146 18.572L18.4724 18.4223L13.6884 21.1875C13.6812 21.1915 13.6741 21.1963 13.667 21.201L14.8185 19.0165C14.8861 18.8887 14.9858 18.7805 15.1078 18.7025C15.2298 18.6246 15.3699 18.5796 15.5146 18.572ZM22.9493 18.6196L24.6206 21.2517C24.5889 21.2287 24.5561 21.2073 24.5222 21.1875L19.6993 18.4008C19.6771 18.3881 19.654 18.3755 19.6311 18.3644L22.2016 18.2344C22.5008 18.2171 22.7881 18.366 22.9491 18.6195M24.5801 27.7901C24.5799 27.9043 24.5497 28.0165 24.4926 28.1155C24.4355 28.2144 24.3535 28.2968 24.2547 28.3543L19.4318 31.141C19.3323 31.1982 19.2196 31.2283 19.1048 31.2283C18.99 31.2283 18.8773 31.1982 18.7778 31.141L13.9559 28.3535C13.857 28.296 13.7749 28.2137 13.7178 28.1147C13.6607 28.0158 13.6306 27.9036 13.6305 27.7893V22.2112C13.6307 22.097 13.6609 21.9848 13.7179 21.8858C13.775 21.7869 13.857 21.7045 13.9559 21.647L18.7788 18.8603C18.8781 18.8029 18.991 18.7728 19.1058 18.7732C19.2185 18.7732 19.3319 18.8025 19.4327 18.8603L24.2548 21.6479C24.3537 21.7053 24.4358 21.7876 24.4929 21.8866C24.55 21.9856 24.5801 22.0978 24.5802 22.212L24.5801 27.7901ZM13.1169 28.0049L11.7161 25.7982C11.6378 25.6743 11.5934 25.532 11.5876 25.3855C11.5817 25.2391 11.6146 25.0937 11.6828 24.9639L13.0964 22.2818V27.7894C13.0964 27.8631 13.1035 27.9345 13.1169 28.0049ZM25.0937 21.9965L26.4944 24.2032C26.5728 24.3271 26.6171 24.4694 26.623 24.6159C26.6288 24.7623 26.596 24.9077 26.5278 25.0375L25.1136 27.7196V22.212C25.1136 22.1391 25.1063 22.0669 25.0937 21.9965ZM15.9273 17.1243C16.0214 17.0194 16.1367 16.9355 16.2655 16.8781C16.3943 16.8206 16.5338 16.7908 16.6748 16.7907C16.7375 16.7907 16.801 16.7971 16.8645 16.8089L21.5953 17.7304L15.4883 18.0395C15.3193 18.0482 15.1566 18.0886 15.0058 18.1552L15.9273 17.1243ZM10.7869 22.8752L14.186 19.0728L11.2107 24.7167C11.1229 24.8844 11.0708 25.0684 11.0576 25.2571L10.5861 23.8586C10.5299 23.6916 10.5188 23.5127 10.554 23.34C10.5893 23.1673 10.6696 23.007 10.7869 22.8753M13.0131 31.0555L11.4162 26.322L14.8098 31.6672C14.8822 31.7808 14.971 31.883 15.0733 31.9707L13.7685 31.7163C13.417 31.6482 13.1281 31.3947 13.0131 31.0555ZM22.2834 32.8779C22.1678 33.0069 22.0207 33.1037 21.8564 33.1589C21.6922 33.2142 21.5164 33.226 21.3461 33.1933L16.6153 32.2718L22.7223 31.9627C22.8914 31.954 23.0541 31.9136 23.2048 31.847L22.2834 32.8779ZM27.423 27.1263L24.0246 30.9296L26.9999 25.2856C27.0879 25.118 27.1401 24.934 27.1531 24.7452L27.6245 26.1437C27.6806 26.3107 27.6915 26.4895 27.6561 26.6621C27.6207 26.8346 27.5403 26.9947 27.4229 27.1262" fill="#041E42"/>
</svg>
