<svg width="100" height="50" viewBox="0 0 100 50" fill="none" xmlns="http://www.w3.org/2000/svg">
<g clip-path="url(#clip0_4520_7047)">
<path d="M90 23.2661C90 24.427 89.6192 24.7693 88.593 25.0521C87.4839 25.3498 85.5141 25.5433 84.3389 25.5433C82.9484 25.5433 81.2104 25.4688 79.7372 25.1563V23.8168H87.8977V21.9861H82.1208C80.3827 21.9861 79.7372 21.5544 79.7372 20.0363V19.2475C79.7372 18.0419 80.1345 17.6847 81.2104 17.4316C82.3029 17.1786 84.0906 17.0149 85.2658 17.0149C86.6894 17.0149 88.3943 17.1191 89.8675 17.4168V18.7563H81.8394V20.2893H87.6163C89.3544 20.2893 90 20.7061 90 22.2391V23.2661Z" fill="#313271"/>
<path d="M76.0956 25.1414C74.4072 25.4391 72.7022 25.5284 71.0469 25.5284C69.3916 25.5284 67.6702 25.4391 65.9652 25.1414V17.4019C67.6536 17.1042 69.3751 17 71.0138 17C72.6691 17 74.341 17.0893 76.0293 17.4019V18.7712H68.3819V20.3191H73.3643V21.9265H68.3819V23.7572H76.0625V25.1414H76.0956Z" fill="#313271"/>
<path d="M63.0519 25.1415C61.5291 25.4392 60.0062 25.5285 58.533 25.5285C57.0598 25.5285 55.5038 25.4541 53.981 25.1415V17.1936H56.4142V23.668H63.0519V25.1415Z" fill="#313271"/>
<path d="M51.0676 25.201C50.2565 25.4094 49.1806 25.4838 48.3861 25.4987L44.6286 18.682H44.4134L40.6724 25.4987C39.8779 25.4838 38.9344 25.4094 38.1233 25.201L42.874 17.1936H46.2673L51.0676 25.201Z" fill="#313271"/>
<path d="M46.1184 23.1618C46.1184 23.9506 45.4066 24.5757 44.5293 24.5757C43.652 24.5757 42.9568 23.9357 42.9568 23.1618C42.9568 22.3729 43.6686 21.7478 44.5293 21.7478C45.4066 21.7478 46.1184 22.3729 46.1184 23.1618Z" fill="#82BED2"/>
<path d="M35.1935 25.201C34.4155 25.4093 33.5879 25.4689 32.7602 25.4838V22.0158H26.7184V25.4838C25.8908 25.4689 25.0631 25.3945 24.2852 25.201V17.3424C25.0631 17.134 25.8908 17.0745 26.7184 17.0596V20.4084H32.7602V17.0596C33.5879 17.0745 34.4155 17.1489 35.1935 17.3424V25.201Z" fill="#313271"/>
<path d="M20.8752 18.8009H16.6046V25.3498H14.1879V18.8009H9.91724V17.4019C11.7546 17.1042 13.6085 17 15.3962 17C17.1839 17 19.0379 17.0893 20.8752 17.4019V18.8009Z" fill="#313271"/>
<path d="M12.7643 28.4457C12.9961 28.5945 13.1119 28.8773 13.1119 29.2643C13.1119 29.8001 12.9464 30.0382 12.4995 30.1126V30.1275C13.0126 30.1871 13.1947 30.455 13.1947 31.0057C13.1947 31.3926 13.0788 31.6605 12.8471 31.8094C12.6154 31.9582 12.2512 32.0326 11.7215 32.0326C11.0759 32.0326 10.5462 32.0178 10.0828 31.988C10.0331 31.988 10 31.9582 10 31.9136V28.3415C10 28.2819 10.0166 28.2819 10.0828 28.2671C10.5131 28.2373 11.0263 28.2075 11.5891 28.2075C12.1519 28.2224 12.5326 28.2968 12.7643 28.4457ZM10.8773 28.8773V29.8447H11.4235C11.7381 29.8447 11.9698 29.815 12.0691 29.7554C12.185 29.6959 12.2346 29.5619 12.2346 29.3684C12.2346 28.9815 12.036 28.8773 11.5063 28.8773H10.8773ZM10.8773 30.3954V31.3629H11.6884C12.1684 31.3629 12.3505 31.2438 12.3505 30.9015C12.3505 30.5145 12.1519 30.3954 11.7049 30.3954H10.8773Z" fill="#82BED2"/>
<path d="M16.3232 29.2791C16.3728 29.2791 16.4059 29.3088 16.4059 29.3535V31.8688C16.4059 31.9284 16.3894 31.9432 16.3232 31.9581C16.0087 32.0177 15.5783 32.0474 15.032 32.0474C14.4858 32.0474 14.2044 32.0028 13.9892 31.8391C13.774 31.6604 13.7244 31.3925 13.7244 30.8865V29.3832C13.7244 29.3386 13.7575 29.3088 13.8071 29.3088H14.4527C14.5023 29.3088 14.5355 29.3386 14.5355 29.3832V30.693C14.5355 30.9311 14.552 31.0949 14.5851 31.1991C14.6513 31.3925 14.7506 31.4223 15.1148 31.4223H15.5948V29.3684C15.5948 29.3237 15.6279 29.2939 15.6776 29.2939H16.3232V29.2791Z" fill="#82BED2"/>
<path d="M17.9123 28.535C17.9123 28.788 17.7467 28.9219 17.4488 28.9219C17.1508 28.9219 16.9688 28.7731 16.9688 28.535C16.9688 28.2819 17.1343 28.148 17.4488 28.148C17.7467 28.1331 17.9123 28.2819 17.9123 28.535ZM17.7633 29.2792C17.8129 29.2792 17.8461 29.3089 17.8461 29.3536V31.9285C17.8461 31.988 17.8129 32.0029 17.7633 32.0029H17.1177C17.0681 32.0029 17.035 31.9731 17.035 31.9285V29.3536C17.035 29.3089 17.0681 29.2792 17.1177 29.2792H17.7633Z" fill="#82BED2"/>
<path d="M19.2199 28.2522C19.2696 28.2522 19.3027 28.282 19.3027 28.3266V31.9285C19.3027 31.988 19.2696 32.0029 19.2199 32.0029H18.5743C18.5247 32.0029 18.4916 31.9731 18.4916 31.9285V28.3266C18.4916 28.282 18.5247 28.2522 18.5743 28.2522H19.2199Z" fill="#82BED2"/>
<path d="M22.4809 28.2522C22.5306 28.2522 22.5637 28.282 22.5637 28.3266V31.8243C22.5637 31.8987 22.5306 31.9434 22.4478 31.9434C22.0174 32.0029 21.6202 32.0327 21.256 32.0327C20.6932 32.0327 20.3125 31.9434 20.1304 31.7499C19.9483 31.5713 19.849 31.1992 19.849 30.6485C19.849 30.0978 19.9318 29.7406 20.0973 29.5471C20.2628 29.3536 20.5939 29.2643 21.0905 29.2643C21.3388 29.2643 21.5539 29.2792 21.7526 29.2941V28.3266C21.7526 28.2671 21.7857 28.2522 21.8353 28.2522H22.4809ZM21.7526 29.8894H21.2725C21.0077 29.8894 20.8422 29.9341 20.7594 30.0234C20.6766 30.1127 20.6435 30.321 20.6435 30.6336C20.6435 30.9462 20.6766 31.1396 20.7429 31.2438C20.8091 31.348 20.9746 31.3927 21.2229 31.3927C21.4215 31.3927 21.5871 31.3778 21.736 31.3629L21.7526 29.8894Z" fill="#82BED2"/>
<path d="M24.07 28.535C24.07 28.788 23.9044 28.9219 23.6065 28.9219C23.3085 28.9219 23.1265 28.7731 23.1265 28.535C23.1265 28.2819 23.292 28.148 23.6065 28.148C23.9044 28.1331 24.07 28.2819 24.07 28.535ZM23.921 29.2792C23.9707 29.2792 24.0038 29.3089 24.0038 29.3536V31.9285C24.0038 31.988 23.9707 32.0029 23.921 32.0029H23.2754C23.2258 32.0029 23.1927 31.9731 23.1927 31.9285V29.3536C23.1927 29.3089 23.2258 29.2792 23.2754 29.2792H23.921Z" fill="#82BED2"/>
<path d="M27.0495 29.4725C27.2647 29.6511 27.3143 29.919 27.3143 30.4251V31.9283C27.3143 31.9879 27.2812 32.0028 27.2316 32.0028H26.586C26.5363 32.0028 26.5032 31.973 26.5032 31.9283V30.6186C26.5032 30.2614 26.5032 30.0976 26.3874 29.9935C26.288 29.8893 26.2053 29.8893 25.9239 29.8893H25.4273V31.9283C25.4273 31.9879 25.3942 32.0028 25.3445 32.0028H24.699C24.6493 32.0028 24.6162 31.973 24.6162 31.9283V29.413C24.6162 29.3535 24.6493 29.3535 24.699 29.3386C24.9804 29.279 25.3942 29.2493 25.9901 29.2493C26.5529 29.2642 26.8343 29.2939 27.0495 29.4725Z" fill="#82BED2"/>
<path d="M30.4593 29.3535C30.5421 29.3683 30.5752 29.3981 30.5752 29.4725V31.9432C30.5752 32.2558 30.5421 32.4493 30.4428 32.6279C30.3103 32.8958 29.9462 33 29.251 33C28.8702 33 28.5392 32.9702 28.2578 32.9255C28.2081 32.9255 28.175 32.8958 28.175 32.8511V32.479C28.175 32.4344 28.2081 32.4046 28.2578 32.4046H29.1848C29.6482 32.4046 29.7807 32.3153 29.7807 31.9879V31.9581C29.5655 31.9879 29.3503 32.0176 29.1185 32.0176C28.622 32.0176 28.2909 31.9135 28.1254 31.72C27.9598 31.5265 27.8771 31.1395 27.8771 30.5888C27.8771 30.053 27.9764 29.6958 28.1585 29.5172C28.3406 29.3386 28.7213 29.2493 29.2841 29.2493C29.6813 29.2642 30.0786 29.2939 30.4593 29.3535ZM29.7641 29.8893H29.2344C28.9861 29.8893 28.8371 29.9339 28.7544 30.0381C28.6882 30.1423 28.6551 30.3358 28.6551 30.6483C28.6551 30.9609 28.6882 31.1693 28.7709 31.2735C28.8537 31.3628 29.0192 31.4074 29.2841 31.4074C29.4827 31.4074 29.6482 31.3925 29.7641 31.3776V29.8893Z" fill="#82BED2"/>
<path d="M34.4652 29.4725C34.6472 29.6065 34.7466 29.8148 34.7466 30.0976V31.7795C34.7466 31.8539 34.7134 31.8986 34.6307 31.9283C34.2996 32.0028 33.8858 32.0325 33.4058 32.0325C32.9588 32.0325 32.7271 32.0176 32.4954 31.8986C32.2636 31.7795 32.1643 31.5562 32.1643 31.1842C32.1643 30.8716 32.2636 30.6632 32.4292 30.559C32.6112 30.44 32.8926 30.3953 33.2734 30.3953H33.952V30.2167C33.952 29.9935 33.7865 29.8744 33.4389 29.8744H32.4623C32.396 29.8744 32.3795 29.8595 32.3795 29.8V29.3981C32.3795 29.3386 32.396 29.3386 32.4623 29.3237C32.7437 29.279 33.0582 29.2493 33.4389 29.2493C33.952 29.2642 34.2831 29.3237 34.4652 29.4725ZM33.952 30.8567H33.323C33.0416 30.8567 32.9423 30.9311 32.9423 31.1544C32.9423 31.3776 33.0582 31.4521 33.4058 31.4521C33.6375 31.4521 33.8196 31.4372 33.952 31.4074V30.8567Z" fill="#82BED2"/>
<path d="M38.2392 28.267C38.3054 28.2819 38.322 28.3117 38.322 28.3563V28.7582C38.322 28.8177 38.2889 28.8326 38.2227 28.8326H37.7923C37.5771 28.8326 37.4943 28.8624 37.4943 29.0261V29.2791H38.1565C38.2061 29.2791 38.2392 29.3089 38.2227 29.3684L38.1399 29.7703C38.1234 29.815 38.0902 29.8447 38.0406 29.8447H37.4943V31.9284C37.4943 31.988 37.4612 32.0029 37.4116 32.0029H36.766C36.7164 32.0029 36.6833 31.9731 36.6833 31.9284V29.8447H36.3356C36.2694 29.8447 36.2363 29.815 36.2363 29.7703V29.3536C36.2363 29.3089 36.2694 29.2791 36.3356 29.2791H36.6833V28.8922C36.6833 28.5945 36.7826 28.4159 36.9812 28.3117C37.1798 28.2224 37.3619 28.1926 37.6268 28.1926C37.8585 28.2224 38.0571 28.2373 38.2392 28.267Z" fill="#82BED2"/>
<path d="M41.2022 29.2791C41.2519 29.2791 41.285 29.3088 41.285 29.3535V31.8688C41.285 31.9284 41.2684 31.9432 41.2022 31.9581C40.8877 32.0177 40.4573 32.0474 39.9111 32.0474C39.3648 32.0474 39.0834 32.0028 38.8682 31.8391C38.6531 31.6604 38.6034 31.3925 38.6034 30.8865V29.3832C38.6034 29.3386 38.6365 29.3088 38.6862 29.3088H39.3317C39.3814 29.3088 39.4145 29.3386 39.4145 29.3832V30.693C39.4145 30.9311 39.431 31.0949 39.4641 31.1991C39.5304 31.3925 39.6297 31.4223 39.9938 31.4223H40.4739V29.3684C40.4739 29.3237 40.507 29.2939 40.5566 29.2939H41.2022V29.2791Z" fill="#82BED2"/>
<path d="M42.8077 28.535C42.8739 28.5202 42.8905 28.5499 42.8905 28.6095V29.309H43.3871C43.4533 29.309 43.4864 29.3388 43.4864 29.3834V29.7704C43.4864 29.815 43.4533 29.8448 43.3871 29.8448H42.8905V31.1695C42.8905 31.3629 42.9733 31.4225 43.205 31.4225H43.4202C43.4864 31.4225 43.5195 31.4523 43.5195 31.4969V31.9136C43.5195 31.9732 43.4864 32.003 43.4367 32.003C43.2712 32.0327 43.1222 32.0476 42.9733 32.0476C42.7415 32.0476 42.6422 32.0476 42.4601 32.003C42.2118 31.9434 42.096 31.7946 42.0794 31.4225V29.8597H41.7649C41.6987 29.8597 41.6821 29.8299 41.6821 29.7853V29.3983C41.6821 29.3536 41.7152 29.3239 41.7649 29.3239H42.0794V28.7881C42.0794 28.7434 42.1125 28.7136 42.1622 28.7136L42.8077 28.535Z" fill="#82BED2"/>
<path d="M46.5488 29.2791C46.5984 29.2791 46.6315 29.3088 46.6315 29.3535V31.8688C46.6315 31.9284 46.615 31.9432 46.5488 31.9581C46.2342 32.0177 45.8039 32.0474 45.2576 32.0474C44.7114 32.0474 44.43 32.0028 44.2148 31.8391C43.9996 31.6604 43.95 31.3925 43.95 30.8865V29.3832C43.95 29.3386 43.9831 29.3088 44.0327 29.3088H44.6783C44.7279 29.3088 44.761 29.3386 44.761 29.3832V30.693C44.761 30.9311 44.7776 31.0949 44.8107 31.1991C44.8769 31.3925 44.9762 31.4223 45.3404 31.4223H45.8204V29.3684C45.8204 29.3237 45.8535 29.2939 45.9032 29.2939H46.5488V29.2791Z" fill="#82BED2"/>
<path d="M48.9489 29.309C49.0151 29.3239 49.0317 29.3537 49.0317 29.4132V29.8151C49.0317 29.8597 48.9986 29.8895 48.9324 29.8895H48.4192C48.1213 29.8895 48.0385 29.9342 48.0385 30.1425V31.9435C48.0385 32.003 48.0054 32.0179 47.9557 32.0179H47.3102C47.2605 32.0179 47.2274 31.9881 47.2274 31.9435V29.9639C47.2274 29.7258 47.3102 29.5621 47.4261 29.4579C47.6247 29.309 47.9061 29.2793 48.204 29.2793C48.5351 29.2644 48.7668 29.2793 48.9489 29.309Z" fill="#82BED2"/>
<path d="M51.7464 29.5321C51.9284 29.7107 52.0112 30.0679 52.0112 30.6037V30.7525C52.0112 30.8567 51.9781 30.8865 51.8457 30.8865H50.1573C50.1573 31.0949 50.2069 31.2437 50.2897 31.3032C50.3725 31.3628 50.538 31.4074 50.7697 31.4074H51.7298C51.7795 31.4074 51.8126 31.4372 51.8126 31.4818V31.8837C51.8126 31.9283 51.7795 31.9581 51.7298 31.9581C51.4815 32.0028 51.1505 32.0325 50.7035 32.0325C50.1573 32.0325 49.7931 31.9432 49.611 31.7497C49.429 31.5711 49.3462 31.199 49.3462 30.6483C49.3462 30.0828 49.4455 29.7256 49.611 29.547C49.7931 29.3683 50.1573 29.2642 50.7035 29.2642C51.2332 29.2642 51.5808 29.3535 51.7464 29.5321ZM50.1407 30.4251H51.2167C51.2167 30.0083 51.0842 29.8893 50.687 29.8893C50.2897 29.8893 50.1573 29.9935 50.1407 30.4251Z" fill="#82BED2"/>
<path d="M57.6061 29.3535C57.6723 29.3535 57.6723 29.3684 57.6723 29.4279L57.1922 31.4819C57.126 31.72 57.0598 31.8689 56.9936 31.9433C56.9274 32.0028 56.7784 32.0326 56.5632 32.0326C56.3315 32.0326 56.1825 32.0028 56.1329 31.9433C56.0666 31.8837 56.0004 31.7349 55.9508 31.4819L55.6032 30.1275L55.2556 31.4819C55.1893 31.7349 55.1231 31.8837 55.0735 31.9433C55.0073 32.0028 54.8748 32.0326 54.6431 32.0326C54.4279 32.0326 54.2789 32.0028 54.2127 31.9433C54.1465 31.8837 54.0803 31.72 54.0141 31.4819L53.5341 29.4279C53.5341 29.3684 53.5341 29.3535 53.6003 29.3535H53.9975C54.0306 29.3535 54.0472 29.3833 54.0638 29.4279L54.461 31.4224C54.5107 31.5861 54.5272 31.601 54.61 31.601C54.7093 31.601 54.7093 31.5861 54.759 31.4224L55.2887 29.5024C55.3052 29.4428 55.3218 29.4279 55.3714 29.4279H55.8184C55.8515 29.4279 55.8846 29.4577 55.9011 29.5024L56.4308 31.4224C56.4805 31.5861 56.4805 31.601 56.5798 31.601C56.6625 31.601 56.6791 31.5712 56.7288 31.4224L57.1757 29.4279C57.1922 29.3684 57.2088 29.3535 57.2419 29.3535H57.6061Z" fill="#313271"/>
<path d="M60.3041 29.5767C60.4531 29.7405 60.5524 30.0828 60.5524 30.6037V30.7377C60.5524 30.8419 60.5193 30.8716 60.3538 30.8716H58.6323C58.6323 31.1693 58.6819 31.3628 58.7813 31.467C58.8806 31.5712 59.0627 31.6158 59.3606 31.6158H60.2545C60.3041 31.6158 60.3372 31.6456 60.3372 31.6902V31.8986C60.3372 31.9433 60.3041 31.973 60.2545 31.973C60.0227 32.0028 59.7082 32.0177 59.3441 32.0177C58.8475 32.0177 58.4999 31.9284 58.3509 31.7498C58.2019 31.5712 58.1191 31.214 58.1191 30.6633C58.1191 30.1126 58.2019 29.7553 58.3509 29.5767C58.4999 29.3981 58.8475 29.3088 59.3441 29.3088C59.8241 29.3237 60.1551 29.413 60.3041 29.5767ZM58.7813 29.8893C58.6819 29.9935 58.6488 30.2019 58.6323 30.4995H60.0393C60.0393 30.187 59.9896 29.9786 59.9068 29.8744C59.8241 29.7702 59.642 29.7256 59.3606 29.7256C59.0627 29.7256 58.8806 29.7851 58.7813 29.8893Z" fill="#313271"/>
<path d="M64.3596 29.3685C64.4092 29.3685 64.4424 29.3983 64.4424 29.4578V29.6662C64.4424 29.7108 64.4092 29.7406 64.3596 29.7406H63.5485C63.234 29.7406 63.0354 29.8001 62.936 29.9192C62.8533 30.0383 62.8036 30.2913 62.8036 30.6932C62.8036 31.0801 62.8533 31.3332 62.936 31.4522C63.0188 31.5713 63.2174 31.6308 63.5485 31.6308H64.3596C64.4092 31.6308 64.4424 31.6606 64.4424 31.7053V31.9136C64.4424 31.9583 64.4092 31.988 64.3596 32.0029C64.1278 32.0327 63.8464 32.0476 63.5319 32.0476C62.9857 32.0476 62.7043 31.988 62.5057 31.7797C62.3236 31.5713 62.2739 31.2736 62.2739 30.708C62.2739 30.1425 62.3236 29.8448 62.5057 29.6364C62.7043 29.4132 62.9857 29.3536 63.5319 29.3536C63.8464 29.3239 64.1278 29.3387 64.3596 29.3685Z" fill="#313271"/>
<path d="M67.1571 30.083V31.7797C67.1571 31.8541 67.124 31.8988 67.0578 31.9137C66.8426 31.9881 66.4453 32.0179 65.8659 32.0179C65.4852 32.0179 65.2204 31.9583 65.0549 31.869C64.9059 31.7648 64.8231 31.5565 64.8231 31.2439C64.8231 30.6783 65.1376 30.4997 65.7832 30.4997H66.6605V30.1723C66.6605 29.8597 66.4619 29.7407 65.9653 29.7407H65.1542C65.088 29.7407 65.0714 29.7258 65.0714 29.6662V29.4727C65.0714 29.4132 65.088 29.4132 65.1542 29.3983C65.4025 29.3537 65.6839 29.3388 65.9653 29.3388C66.7764 29.3239 67.1571 29.562 67.1571 30.083ZM66.6439 30.8718H65.7832C65.4687 30.8718 65.3363 30.976 65.3363 31.229C65.3363 31.5416 65.5018 31.616 65.9653 31.616C66.2632 31.616 66.495 31.6011 66.6605 31.5565L66.6439 30.8718Z" fill="#313271"/>
<path d="M69.6897 29.3536C69.8221 29.3685 69.9545 29.428 70.0704 29.5024C70.2856 29.6512 70.3352 29.934 70.3352 30.455V31.9285C70.3352 31.9731 70.3021 32.0029 70.2359 32.0029H69.8883C69.8386 32.0029 69.8055 31.9731 69.8055 31.9285V30.4996C69.8055 30.2019 69.7724 30.0233 69.7228 29.9191C69.6897 29.8596 69.6566 29.815 69.5903 29.8001C69.4579 29.7405 69.3752 29.7405 69.1269 29.7405H68.382V31.9433C68.382 31.988 68.3489 32.0178 68.2992 32.0178H67.9351C67.8854 32.0178 67.8523 31.988 67.8523 31.9433V29.4875C67.8523 29.428 67.8854 29.4131 67.9351 29.4131C68.233 29.3536 68.6137 29.3387 69.0607 29.3387C69.3421 29.3238 69.5572 29.3387 69.6897 29.3536Z" fill="#313271"/>
<path d="M74.4403 30.083V31.7797C74.4403 31.8541 74.4072 31.8988 74.341 31.9137C74.1258 31.9881 73.7285 32.0179 73.1492 32.0179C72.7684 32.0179 72.5036 31.9583 72.3381 31.869C72.1891 31.7648 72.1063 31.5565 72.1063 31.2439C72.1063 30.6783 72.4208 30.4997 73.0664 30.4997H73.9437V30.1723C73.9437 29.8597 73.7451 29.7407 73.2485 29.7407H72.4374C72.3712 29.7407 72.3546 29.7258 72.3546 29.6662V29.4727C72.3546 29.4132 72.3712 29.4132 72.4374 29.3983C72.6857 29.3537 72.9671 29.3388 73.2485 29.3388C74.0596 29.3239 74.4403 29.562 74.4403 30.083ZM73.9271 30.8718H73.0664C72.7519 30.8718 72.6195 30.976 72.6195 31.229C72.6195 31.5416 72.785 31.616 73.2485 31.616C73.5464 31.616 73.7782 31.6011 73.9437 31.5565L73.9271 30.8718Z" fill="#313271"/>
<path d="M75.599 28.3267C75.6487 28.3267 75.6818 28.3564 75.6818 28.4011V31.9285C75.6818 31.9732 75.6487 32.0029 75.599 32.0029H75.2349C75.1852 32.0029 75.1521 31.9732 75.1521 31.9285V28.4011C75.1521 28.3564 75.1852 28.3267 75.2349 28.3267H75.599Z" fill="#313271"/>
<path d="M76.8736 28.3267C76.9232 28.3267 76.9563 28.3564 76.9563 28.4011V31.9285C76.9563 31.9732 76.9232 32.0029 76.8736 32.0029H76.5094C76.4597 32.0029 76.4266 31.9732 76.4266 31.9285V28.4011C76.4266 28.3564 76.4597 28.3267 76.5094 28.3267H76.8736Z" fill="#313271"/>
<path d="M79.4889 28.6094C79.5552 28.5945 79.5883 28.6094 79.5883 28.6689V29.3387H80.1511C80.2173 29.3387 80.2338 29.3684 80.2338 29.4131V29.6363C80.2338 29.681 80.2007 29.7108 80.1511 29.7108H79.5883V31.348C79.5883 31.5563 79.6545 31.6159 79.9359 31.6159H80.2007C80.2669 31.6159 80.2835 31.6457 80.2835 31.6903V31.9284C80.2835 31.9731 80.2504 32.0029 80.2007 32.0029C80.118 32.0177 80.0186 32.0326 79.9028 32.0326C79.6876 32.0326 79.6214 32.0326 79.4393 31.988C79.2075 31.9284 79.0917 31.8094 79.0586 31.467V29.7108H78.7606C78.711 29.7108 78.6779 29.681 78.6779 29.6363V29.4131C78.6779 29.3684 78.711 29.3387 78.7606 29.3387H79.0586V28.7582C79.0586 28.7136 79.0751 28.6838 79.1248 28.6838L79.4889 28.6094Z" fill="#313271"/>
<path d="M82.2037 29.3834C82.2533 29.3983 82.2864 29.428 82.2864 29.4727V29.6811C82.2864 29.7406 82.2533 29.7555 82.2037 29.7555H81.7402C81.3595 29.7555 81.2767 29.815 81.2767 30.0234V31.9583C81.2767 32.0029 81.2436 32.0327 81.1939 32.0327H80.8463C80.7967 32.0327 80.7635 32.0029 80.7635 31.9583V29.9192C80.7635 29.7108 80.8629 29.562 80.9622 29.4876C81.0284 29.4429 81.0946 29.4132 81.1774 29.3983C81.3429 29.3536 81.4422 29.3536 81.6077 29.3536C81.8891 29.3239 82.0878 29.3387 82.2037 29.3834Z" fill="#313271"/>
<path d="M85.1004 29.3535C85.1501 29.3535 85.1832 29.3833 85.1832 29.4279V31.8837C85.1832 31.9433 85.1501 31.9433 85.1004 31.9582C84.8025 32.0177 84.4217 32.0326 83.9748 32.0326C83.71 32.0326 83.5113 32.0177 83.3624 32.0028C83.2299 31.973 83.0975 31.9284 82.9816 31.854C82.7665 31.6903 82.7168 31.4223 82.7168 30.9014V29.4279C82.7168 29.3833 82.7499 29.3535 82.8161 29.3535H83.1637C83.2134 29.3535 83.2465 29.3833 83.2465 29.4279V30.8568C83.2465 31.2289 83.263 31.4223 83.3955 31.5116C83.5279 31.6158 83.6272 31.6158 83.9252 31.6158H84.67V29.413C84.67 29.3684 84.7031 29.3386 84.7528 29.3386L85.1004 29.3535Z" fill="#313271"/>
<path d="M87.7488 29.3684C87.7985 29.3684 87.8316 29.3981 87.8316 29.4428V29.6512C87.8316 29.6958 87.7985 29.7256 87.7488 29.7256H86.7391C86.4742 29.7256 86.3418 29.8149 86.3418 29.9786V30.0381C86.3418 30.187 86.4577 30.3061 86.6729 30.3805L87.3846 30.6335C87.8316 30.7823 87.9309 30.9907 87.9309 31.3181V31.3777C87.9309 31.6307 87.8481 31.8093 87.6826 31.8986C87.5171 31.9879 87.2357 32.0326 86.8384 32.0326C86.4577 32.0326 86.1266 32.0177 85.8452 31.9879C85.7956 31.9879 85.7625 31.9581 85.7625 31.9135V31.7051C85.7625 31.6605 85.7956 31.6307 85.8452 31.6307H86.8384C87.2688 31.6307 87.4012 31.5861 87.4012 31.3777V31.3181C87.4012 31.1693 87.3184 31.08 87.0867 30.9907L86.3252 30.7228C85.9776 30.6037 85.8121 30.3805 85.8121 30.0233V29.934C85.8121 29.6809 85.928 29.5023 86.1432 29.4279C86.3584 29.3535 86.5735 29.3237 86.9046 29.3237C87.2025 29.3237 87.4839 29.3386 87.7488 29.3684Z" fill="#313271"/>
<path d="M89.1061 28.6094C89.1723 28.5945 89.2055 28.6094 89.2055 28.6689V29.3387H89.7682C89.8345 29.3387 89.851 29.3684 89.851 29.4131V29.6363C89.851 29.681 89.8179 29.7108 89.7682 29.7108H89.2055V31.348C89.2055 31.5563 89.2717 31.6159 89.5531 31.6159H89.8179C89.8841 31.6159 89.9007 31.6457 89.9007 31.6903V31.9284C89.9007 31.9731 89.8676 32.0029 89.8179 32.0029C89.7351 32.0177 89.6358 32.0326 89.52 32.0326C89.3048 32.0326 89.2386 32.0326 89.0565 31.988C88.8247 31.9284 88.7089 31.8094 88.6758 31.467V29.7108H88.3778C88.3281 29.7108 88.295 29.681 88.295 29.6363V29.4131C88.295 29.3684 88.3281 29.3387 88.3778 29.3387H88.6758V28.7582C88.6758 28.7136 88.6923 28.6838 88.742 28.6838L89.1061 28.6094Z" fill="#313271"/>
</g>
<defs>
<clipPath id="clip0_4520_7047">
<rect width="80" height="16" fill="white" transform="translate(10 17)"/>
</clipPath>
</defs>
</svg>
