<svg width="100" height="50" viewBox="0 0 100 50" fill="none" xmlns="http://www.w3.org/2000/svg">
<path fill-rule="evenodd" clip-rule="evenodd" d="M19.6621 17.1092V14.8335H12.8964V14.8414C12.8964 15.3598 13.0702 15.8363 13.3607 16.2176C13.3637 16.2216 13.3661 16.2251 13.3686 16.2285C13.3711 16.232 13.3735 16.2355 13.3765 16.2395C13.4338 16.3129 13.4951 16.3844 13.5622 16.45C13.9357 16.8233 14.4415 17.0656 15.0007 17.1033H17.4035V17.1112H17.4054V19.9589H17.4133C17.929 19.9589 18.4033 19.7841 18.7826 19.4922L18.7885 19.4862C18.7905 19.4842 18.793 19.4827 18.7955 19.4813C18.7979 19.4798 18.8004 19.4783 18.8024 19.4763C18.8755 19.4187 18.9466 19.3571 19.0119 19.2896C19.1581 19.1427 19.2825 18.9739 19.3833 18.7912C19.5414 18.5072 19.6402 18.1855 19.6619 17.8439V17.836C19.658 17.8308 19.6539 17.8257 19.6498 17.8207L19.662 17.834L19.6621 17.1092ZM18.0043 25.8607C17.6665 26.0315 17.2535 26.1446 16.8958 26.1446C16.1826 26.1446 15.6945 25.7098 15.6945 24.8241V18.8209H10V18.8288C10 19.357 10.1798 19.8416 10.4802 20.2268C10.5375 20.3003 10.5987 20.3718 10.6659 20.4373C11.0394 20.8107 11.5452 21.0529 12.1044 21.0907C12.1147 21.0907 12.1236 21.0921 12.1335 21.0939L12.138 21.0946H13.4204V21.0926H13.4223V24.824C13.4223 27.1454 14.7363 28.2971 16.7459 28.2217C17.4414 28.2038 17.9848 28.0887 18.6428 27.8246L18.0043 25.8607ZM24.043 18.8506L24.2129 19.927C24.9262 18.7752 25.8845 18.6064 26.8231 18.6064C27.7815 18.6064 28.7003 18.9837 29.2081 19.494L28.1746 21.4937C27.7044 21.0966 27.2736 20.8901 26.5228 20.8901C25.3214 20.8901 24.2129 21.5315 24.2129 23.2492V28.1563H21.9208V18.8508L24.043 18.8506ZM39.6114 18.8506H37.4141L37.339 20.1354C36.8134 19.212 35.6299 18.6262 34.3909 18.6262C31.6859 18.6063 29.5638 20.2864 29.5638 23.4952C29.5638 26.7598 31.5911 28.4578 34.3338 28.4399C35.3672 28.42 36.8135 27.8918 37.3392 26.7977L37.4518 28.156H39.6115L39.6114 18.8506ZM34.5985 26.3255C33.0771 26.3255 31.856 25.267 31.856 23.4937C31.856 21.7184 33.0771 20.6798 34.5985 20.6817C38.2046 20.6817 38.2046 26.3255 34.5985 26.3255ZM48.7347 28.1543V23.2854C48.7347 21.8695 47.9641 20.7932 46.5 20.7932C45.0911 20.7932 44.1328 21.9827 44.1328 23.3986V28.1546H41.8605V18.8312H43.6783L44.0576 20.0962C44.9962 19.1708 45.9348 18.7002 47.1006 18.7002C49.2781 18.7002 51.0248 20.3424 51.0248 23.2675V28.1568H48.7347V28.1543ZM57.1701 20.4932C58.0516 20.4932 58.8021 20.6998 59.4603 21.3233L60.7389 19.8161C59.6676 18.8728 58.579 18.5888 57.1326 18.5888C55.4432 18.5888 53.2262 19.3454 53.2262 21.496C53.2262 23.6089 55.3108 24.2504 57.0575 24.3834C58.3713 24.4589 58.8969 24.723 58.8969 25.3644C58.8969 26.0436 58.0889 26.4983 57.2253 26.4784C56.1921 26.4586 54.6903 25.9125 54.0323 25.1757L52.9061 26.818C54.2576 28.2319 55.7237 28.4781 57.188 28.4781C59.8356 28.4781 61.1692 27.0622 61.1692 25.42C61.1692 22.9476 58.9544 22.5505 57.2076 22.4373C56.0261 22.3618 55.4807 22.0223 55.4807 21.4186C55.4807 20.8328 56.0814 20.4932 57.1701 20.4932ZM69.1619 28.1524V23.172C69.1619 21.9447 68.5235 20.8307 67.2651 20.8307C66.0264 20.8307 65.2929 21.9447 65.2929 23.172V28.1543H63.0011V18.831H65.1231L65.2929 19.9629C65.7812 19.0196 66.8522 18.6801 67.7354 18.6801C68.8441 18.6801 69.95 19.1328 70.4782 20.4157C71.304 19.0951 72.375 18.7178 73.576 18.7178C76.2063 18.7178 77.5007 20.3402 77.5007 23.1342V28.1543H75.2084V23.1342C75.2084 21.907 74.7005 20.8684 73.4618 20.8684C72.2226 20.8684 71.4525 21.9447 71.4525 23.17V28.1524L69.1619 28.1524ZM79.7552 18.8131H82.0469V28.1563H79.7552V18.8131ZM87.7793 26.1924C87.066 26.1924 86.5778 25.7575 86.5778 24.8718V21.0789H87.6209C87.6608 21.0809 87.7001 21.0829 87.7416 21.0829C87.7831 21.0829 87.823 21.0809 87.8623 21.0789C88.4353 21.0491 88.953 20.8029 89.3342 20.4216C89.7455 20.0106 90 19.4406 90 18.8131V18.8052H86.574V17.1034L84.3074 17.6733V24.8696C84.3074 27.191 85.6215 28.3428 87.6308 28.2673C88.3266 28.2495 88.87 28.1343 89.5281 27.8702L88.8897 25.9081C88.55 26.079 88.1371 26.1924 87.7793 26.1924ZM69.0849 33.687L69.3755 33.1866C69.6185 33.3573 69.9724 33.4586 70.3056 33.4586C70.5868 33.4586 70.7507 33.3673 70.7507 33.2144C70.7507 33.0555 70.6082 32.98 70.2488 32.9483C69.577 32.8946 69.1756 32.5968 69.1756 32.1242C69.1756 31.6297 69.6305 31.2941 70.328 31.2941C70.7349 31.2941 71.1002 31.4053 71.375 31.5919L71.0882 32.0805C70.8714 31.9415 70.6278 31.878 70.3596 31.878C70.0314 31.878 69.8616 31.9633 69.8616 32.1222C69.8616 32.2652 69.9937 32.3406 70.316 32.3724C71.0729 32.4459 71.4421 32.708 71.4421 33.2124C71.4421 33.7227 70.9937 34.0583 70.2744 34.0583C69.82 34.0583 69.417 33.9252 69.0849 33.687ZM72.458 32.9105H74.4733C74.5902 31.9395 74.0664 31.3119 73.1177 31.3119C72.2974 31.3119 71.7425 31.864 71.7425 32.6822C71.7425 33.5221 72.304 34.0583 73.1871 34.0583C73.6415 34.0583 74.0604 33.8935 74.3351 33.6115L73.9441 33.2084C73.7759 33.3633 73.4951 33.4586 73.215 33.4586C72.7917 33.4586 72.5055 33.2402 72.458 32.9105ZM73.813 32.4438H72.4695C72.5213 32.0924 72.7698 31.8898 73.1418 31.8918C73.5328 31.8918 73.7879 32.1043 73.813 32.4438ZM74.8272 32.6783C74.8272 31.8601 75.3919 31.3081 76.2341 31.3081C76.6192 31.3081 76.9589 31.4471 77.238 31.7171L76.8305 32.1579C76.6825 32.009 76.4771 31.9236 76.2598 31.9236C75.8272 31.9236 75.5247 32.2314 75.5247 32.6783C75.5247 33.125 75.8207 33.4328 76.2598 33.4328C76.493 33.4328 76.7038 33.3414 76.8622 33.1786L77.2751 33.6255C76.9785 33.9134 76.647 34.0504 76.2439 34.0504C75.3821 34.0484 74.8272 33.5122 74.8272 32.6783ZM80.2626 33.9908V31.3636H79.5591V32.7397C79.5591 33.1429 79.3106 33.4249 78.9354 33.4249C78.5973 33.4249 78.38 33.1905 78.38 32.7874V31.3636H77.676V32.8311C77.676 33.5738 78.1052 34.0425 78.7552 34.0425C79.0987 34.0425 79.4013 33.9154 79.6066 33.687L79.6542 33.9908H80.2626ZM83.0076 31.5503L82.7012 32.0983C82.5531 31.9971 82.4264 31.9593 82.2784 31.9593C81.8928 31.9593 81.6438 32.2294 81.6438 32.708V33.9888H80.9403V31.3637H81.5493L81.6061 31.6933C81.8076 31.4232 82.0545 31.31 82.3412 31.31C82.5848 31.312 82.8393 31.3915 83.0076 31.5503ZM84.0349 31.3656H83.3314V33.9908H84.0349V31.3656ZM86.509 33.8936C86.291 33.9948 86.1015 34.0326 85.8683 34.0326C85.3353 34.0326 84.9797 33.7446 84.9797 33.0595V31.9435H84.5089V31.3636H84.9797V30.6944L85.6772 30.6209V31.3656H86.3801V31.9455H85.6772V33.0615C85.6772 33.2998 85.7995 33.4229 86.0109 33.4229C86.1114 33.4229 86.2321 33.3912 86.3233 33.3494L86.509 33.8936ZM87.8836 35.1664L89.5177 31.3656H88.7553L88.3386 32.3922L88.036 33.1945L87.7619 32.3922L87.3763 31.3656H86.6193L87.645 33.959L87.1272 35.1664H87.8836Z" fill="#1D2745"/>
<path d="M19.5998 17.7649C19.2264 17.3916 18.7205 17.1493 18.1613 17.1116H17.4065V19.9592H17.4144C17.9301 19.9592 18.4044 19.7845 18.7837 19.4926C18.7858 19.4906 18.7877 19.4886 18.7897 19.4866C18.7936 19.4826 18.7995 19.4806 18.8035 19.4767C18.8766 19.4191 18.9477 19.3575 19.0129 19.29C19.1592 19.1431 19.2837 18.9743 19.3845 18.7916C19.5425 18.5076 19.6413 18.1859 19.6631 17.8443V17.8364C19.6433 17.8106 19.6215 17.7867 19.5998 17.7649Z" fill="#DD112D"/>
<path d="M19.6622 17.1092V14.8335H12.8964V14.8414C12.8964 15.3598 13.0703 15.8363 13.3607 16.2176C13.3667 16.2256 13.3706 16.2315 13.3765 16.2395C13.4338 16.3129 13.4951 16.3844 13.5623 16.45C13.9357 16.8233 14.4415 17.0656 15.0007 17.1033H17.4035V17.1112H18.1583C18.7175 17.1489 19.2233 17.3912 19.5968 17.7645C19.6185 17.7864 19.6403 17.8102 19.662 17.834L19.6622 17.1092Z" fill="#FF2D4E"/>
</svg>
