<svg width="100" height="50" viewBox="0 0 100 50" fill="none" xmlns="http://www.w3.org/2000/svg">
<mask id="mask0_4520_6924" style="mask-type:luminance" maskUnits="userSpaceOnUse" x="10" y="15" width="80" height="20">
<path d="M90 15.3225H10V34.6773H90V15.3225Z" fill="white"/>
</mask>
<g mask="url(#mask0_4520_6924)">
<path d="M44.1665 31.0916C44.0421 30.9293 43.8772 30.8025 43.6882 30.7238C43.4504 30.6311 43.1962 30.5873 42.9409 30.5951C42.6359 30.5903 42.3312 30.6157 42.0313 30.6711C41.7845 30.7214 41.5871 30.7669 41.4391 30.8076V34.5856H41.9324V31.1501C42.0402 31.1167 42.1508 31.0935 42.2629 31.0809C42.4629 31.0539 42.6645 31.0411 42.8663 31.0427C43.0498 31.0373 43.2327 31.0645 43.4067 31.123C43.5467 31.1733 43.6683 31.2645 43.7556 31.3848C43.8534 31.5252 43.9184 31.6858 43.9456 31.8546C43.9868 32.0863 44.0056 32.3215 44.0018 32.5567V34.589H44.4951V32.3966C44.4973 32.15 44.4716 31.9039 44.4185 31.663C44.3755 31.4569 44.2896 31.2626 44.1665 31.0916Z" fill="black"/>
<path d="M47.0498 30.5816C46.8337 30.5817 46.6197 30.6237 46.4198 30.7055C46.2118 30.7913 46.0253 30.9218 45.8736 31.0877C45.7051 31.2748 45.5735 31.492 45.4859 31.7279C45.3826 32.0156 45.3334 32.3199 45.3405 32.6255C45.3383 32.9032 45.3738 33.1799 45.4462 33.4481C45.5109 33.6864 45.6276 33.9074 45.7878 34.0955C45.9508 34.2825 46.1564 34.4277 46.3873 34.5189C46.6678 34.6276 46.9671 34.6794 47.2679 34.6713C47.499 34.6749 47.7296 34.6469 47.9531 34.5881C48.0905 34.5538 48.2239 34.5052 48.351 34.4429L48.2594 34.019C48.1495 34.0699 48.0362 34.1129 47.9202 34.1477C47.7127 34.2045 47.4979 34.2296 47.2829 34.2223C47.0886 34.2398 46.8929 34.2145 46.7095 34.1482C46.5261 34.0819 46.3596 33.9762 46.2216 33.8385C45.9785 33.5219 45.8527 33.1311 45.8654 32.7324H48.6132C48.619 32.6976 48.6224 32.6594 48.6258 32.6197C48.6292 32.58 48.6297 32.5374 48.6297 32.4982C48.6714 31.9798 48.5183 31.4644 48.2003 31.0524C48.0544 30.8954 47.8759 30.7721 47.6774 30.691C47.4789 30.6098 47.265 30.5728 47.0508 30.5826M45.876 32.3158C45.8855 32.1478 45.92 31.9821 45.9783 31.8242C46.0334 31.673 46.1155 31.533 46.2206 31.411C46.3227 31.2944 46.4463 31.1985 46.5846 31.1284C46.7313 31.0554 46.8936 31.0187 47.0575 31.0215C47.2044 31.0129 47.3512 31.0391 47.4859 31.098C47.6207 31.1568 47.7396 31.2467 47.8329 31.3602C48.032 31.6376 48.1341 31.9727 48.1237 32.3139L45.876 32.3158Z" fill="black"/>
<path d="M51.3202 34.1499C51.159 34.2036 50.9894 34.2277 50.8196 34.2211C50.707 34.2231 50.5946 34.2106 50.4852 34.1838C50.3864 34.1598 50.2967 34.1075 50.2273 34.0333C50.1481 33.9407 50.0924 33.8303 50.065 33.7116C50.0225 33.5342 50.0034 33.352 50.0083 33.1696V31.089H51.5702V30.6724H50.0068V29.5208H49.5135V33.1237C49.5111 33.3531 49.5318 33.5821 49.5755 33.8074C49.6081 33.9808 49.6793 34.1447 49.7839 34.2869C49.8858 34.4186 50.0227 34.5192 50.1789 34.5772C50.3747 34.6451 50.5813 34.6769 50.7885 34.6711C51.12 34.6709 51.446 34.5877 51.7369 34.4291L51.6163 34.0207C51.5211 34.072 51.4223 34.1161 51.3207 34.1528" fill="black"/>
<path d="M56.9943 31.5397C56.9105 31.8498 56.8208 32.1586 56.7239 32.4624C56.627 32.7663 56.53 33.059 56.4331 33.3334C56.3362 33.6077 56.2446 33.8415 56.1588 34.0326C56.0566 33.779 55.9577 33.5095 55.8574 33.2221C55.7571 32.9347 55.6635 32.6415 55.5782 32.3477C55.4929 32.054 55.4101 31.7627 55.3359 31.4768C55.2618 31.1908 55.2027 30.9232 55.1586 30.6706H54.7331C54.673 30.9232 54.6051 31.1913 54.5305 31.4768C54.4559 31.7623 54.3749 32.0506 54.2882 32.3444C54.2014 32.6381 54.1108 32.925 54.0139 33.2153C53.917 33.5056 53.82 33.7732 53.7231 34.0244C53.6354 33.8308 53.5443 33.6019 53.444 33.3276C53.3436 33.0532 53.2501 32.7658 53.1532 32.4605C53.0563 32.1552 52.9671 31.8484 52.8828 31.5377C52.7984 31.2271 52.7291 30.9382 52.6744 30.6711H52.15C52.331 31.4392 52.5288 32.1408 52.7437 32.776C52.9509 33.3905 53.1888 33.9944 53.4566 34.5852H53.93C54.0052 34.409 54.0856 34.2116 54.1694 33.9924C54.2533 33.7732 54.3391 33.5381 54.4268 33.2879C54.5145 33.0377 54.6003 32.7755 54.6846 32.5011C54.7689 32.2268 54.8474 31.9427 54.9221 31.6544C54.9986 31.9447 55.0771 32.2234 55.161 32.4987C55.2448 32.774 55.3306 33.0353 55.4203 33.285C55.5099 33.5347 55.5957 33.7689 55.6795 33.9881C55.7634 34.2073 55.8443 34.4056 55.9218 34.5847H56.3784C56.6455 33.9941 56.8826 33.3904 57.0888 32.776C57.3043 32.1405 57.5035 31.4386 57.6864 30.6702H57.2017C57.147 30.9382 57.0777 31.2286 56.9933 31.5382" fill="black"/>
<path d="M61.1639 31.1446C61.0077 30.9672 60.8151 30.8255 60.5993 30.7289C60.3716 30.6314 60.1264 30.5811 59.8786 30.5811C59.6309 30.5811 59.3857 30.6314 59.158 30.7289C58.9424 30.8256 58.75 30.9673 58.5939 31.1446C58.4292 31.3341 58.3027 31.5536 58.2212 31.791C58.046 32.3377 58.046 32.9253 58.2212 33.472C58.3014 33.7092 58.4281 33.9281 58.5939 34.116C58.7504 34.2919 58.9427 34.4325 59.158 34.5283C59.3856 34.6263 59.6308 34.6768 59.8786 34.6768C60.1265 34.6768 60.3717 34.6263 60.5993 34.5283C60.8147 34.4326 61.0073 34.292 61.1639 34.116C61.3298 33.9286 61.4559 33.7095 61.5346 33.472C61.7124 32.9257 61.7124 32.3373 61.5346 31.791C61.4547 31.5533 61.3287 31.3337 61.1639 31.1446ZM60.8038 33.7986C60.6905 33.9337 60.549 34.0424 60.3891 34.1169C60.2292 34.1915 60.0549 34.2301 59.8784 34.2301C59.7019 34.2301 59.5276 34.1915 59.3677 34.1169C59.2078 34.0424 59.0663 33.9337 58.953 33.7986C58.7299 33.4498 58.6113 33.0446 58.6113 32.6308C58.6113 32.2169 58.7299 31.8117 58.953 31.4629C59.0656 31.3268 59.2069 31.2171 59.3669 31.1418C59.5269 31.0666 59.7015 31.0275 59.8784 31.0275C60.0552 31.0275 60.2299 31.0666 60.3899 31.1418C60.5499 31.2171 60.6912 31.3268 60.8038 31.4629C61.026 31.812 61.144 32.2171 61.144 32.6308C61.144 33.0444 61.026 33.4495 60.8038 33.7986Z" fill="black"/>
<path d="M63.9512 30.5976C63.6782 30.5923 63.4056 30.6218 63.14 30.6852C62.9609 30.728 62.7856 30.785 62.6156 30.8555V34.5876H63.1089V31.1565C63.1909 31.123 63.276 31.0974 63.3629 31.08C63.5319 31.0457 63.7041 31.03 63.8766 31.0331C64.0404 31.0311 64.2041 31.0424 64.3661 31.067C64.4503 31.0795 64.5329 31.1008 64.6127 31.1304L64.7097 30.708C64.613 30.6716 64.5125 30.6462 64.4102 30.6325C64.2587 30.6067 64.1053 30.594 63.9517 30.5942" fill="black"/>
<path d="M67.5181 33.4241C67.3407 33.2335 67.1619 33.0559 66.9792 32.8919C66.8081 32.7357 66.6275 32.5903 66.4384 32.4564C66.5881 32.3161 66.7432 32.1661 66.9007 32.0132C67.0582 31.8603 67.2186 31.6987 67.3814 31.5399C67.5443 31.3812 67.7013 31.2254 67.851 31.0778C68.0008 30.9303 68.1341 30.7948 68.2513 30.6738H67.6485C67.5515 30.7861 67.4289 30.9158 67.2831 31.0609C67.1372 31.2061 66.985 31.3619 66.8207 31.5187C66.6564 31.6754 66.4975 31.8332 66.34 31.988C66.1825 32.1428 66.0492 32.2672 65.9455 32.3587V29.5208H65.4531V34.5859H65.9465V32.6843C66.1086 32.7743 66.2621 32.8791 66.4049 32.9974C66.5745 33.1367 66.7485 33.2911 66.9201 33.4604C67.0942 33.6314 67.2589 33.8117 67.4134 34.0004C67.5655 34.1851 67.7035 34.3808 67.8263 34.5859H68.4185C68.2953 34.389 68.1616 34.1987 68.0182 34.0159C67.8628 33.8137 67.6966 33.6164 67.5196 33.4241" fill="black"/>
<path d="M71.1377 32.8182C71.0258 32.727 70.9023 32.6511 70.7704 32.5923C70.6318 32.5294 70.4854 32.4684 70.3342 32.407C70.183 32.3455 70.0585 32.2918 69.9465 32.2415C69.8436 32.1988 69.746 32.1442 69.6558 32.0789C69.5819 32.0261 69.5208 31.9575 69.4769 31.8781C69.4345 31.7932 69.4137 31.6991 69.4164 31.6042C69.4138 31.5104 69.4371 31.4177 69.4837 31.3362C69.5304 31.2626 69.5928 31.2003 69.6664 31.1537C69.747 31.104 69.8355 31.0683 69.9281 31.0482C70.0317 31.0239 70.1377 31.0119 70.2441 31.0124C70.4568 31.0048 70.6694 31.0304 70.8741 31.0884C70.9787 31.1233 71.0812 31.1638 71.1814 31.2099L71.2962 30.77C71.177 30.7192 71.0536 30.6789 70.9274 30.6495C70.7101 30.5997 70.4874 30.5771 70.2644 30.5823C69.9101 30.5622 69.5599 30.6664 69.2744 30.877C69.1582 30.9692 69.0652 31.0872 69.0027 31.2216C68.9402 31.356 68.9099 31.503 68.9143 31.6512C68.91 31.7978 68.9414 31.9432 69.0059 32.075C69.0658 32.1899 69.1482 32.2916 69.2482 32.3741C69.3552 32.4611 69.4723 32.5349 69.5971 32.5937C69.727 32.6566 69.8675 32.7176 70.0139 32.7791C70.1966 32.8545 70.3483 32.9213 70.4724 32.976C70.579 33.021 70.6796 33.0792 70.7718 33.1492C70.8413 33.2036 70.8969 33.2736 70.9342 33.3534C70.9689 33.4401 70.9854 33.533 70.9827 33.6263C70.9891 33.7239 70.9663 33.8212 70.9172 33.9058C70.8681 33.9904 70.7949 34.0585 70.7069 34.1015C70.4869 34.2013 70.2467 34.249 70.0052 34.2408C69.8663 34.2415 69.7276 34.2311 69.5903 34.2099C69.4872 34.193 69.3853 34.1689 69.2855 34.1378C69.1978 34.1092 69.1299 34.0841 69.081 34.0623C69.0474 34.0488 69.015 34.0326 68.9841 34.0139L68.8547 34.4605C68.973 34.512 69.0944 34.5563 69.2181 34.5931C69.4754 34.6605 69.7413 34.69 70.0071 34.6807C70.3892 34.7008 70.7686 34.6059 71.0961 34.4082C71.2255 34.3198 71.3299 34.1996 71.3994 34.0592C71.4688 33.9187 71.5009 33.7628 71.4925 33.6065C71.4988 33.4454 71.4655 33.2853 71.3956 33.14C71.3312 33.0182 71.2436 32.91 71.1377 32.8216" fill="black"/>
<path d="M47.2996 27.3748L46.9434 25.661C46.707 25.7522 46.4656 25.8299 46.2203 25.8937C45.8791 25.9809 45.5277 26.0226 45.1755 26.0176C44.9489 26.0405 44.7201 26.0088 44.5083 25.9251C44.2966 25.8414 44.108 25.7082 43.9586 25.5366C43.6798 25.0496 43.5556 24.4896 43.6024 23.9306V20.1313H46.9254V18.3294H43.6024V15.866H41.4395V23.9466C41.4336 24.5011 41.4876 25.0546 41.6004 25.5976C41.692 26.0439 41.8817 26.4643 42.1558 26.8285C42.4336 27.1778 42.8011 27.4454 43.2191 27.6027C43.754 27.7957 44.3205 27.8863 44.8891 27.8698C45.3706 27.878 45.851 27.8211 46.3172 27.7005C46.6515 27.6117 46.9798 27.5018 47.3001 27.3714" fill="black"/>
<path d="M65.2109 27.5208C65.8923 27.2573 66.5086 26.8497 67.0176 26.3261C67.5597 25.7589 67.9789 25.0862 68.249 24.35C68.5659 23.4728 68.7196 22.5451 68.7026 21.6127C68.7203 20.684 68.5667 19.7599 68.2495 18.8866C67.9779 18.153 67.5588 17.4827 67.0181 16.9168C66.5083 16.394 65.892 15.9868 65.2109 15.7226C63.8061 15.1892 62.2541 15.1892 60.8493 15.7226C60.1684 15.987 59.5523 16.3942 59.0426 16.9168C58.5019 17.4826 58.0828 18.153 57.8112 18.8866C57.494 19.7599 57.3402 20.684 57.3576 21.6127C57.3406 22.5449 57.4942 23.4724 57.8107 24.3495C58.0808 25.0857 58.5 25.7584 59.0421 26.3256C59.5512 26.8491 60.1675 27.2566 60.8488 27.5203C62.2536 28.0538 63.8056 28.0538 65.2104 27.5203M59.8175 25.4455C59.4163 24.9603 59.114 24.4014 58.9278 23.8003C58.7086 23.0922 58.6028 22.3539 58.6142 21.6127C58.6032 20.8719 58.7094 20.134 58.9287 19.4261C59.115 18.825 59.4172 18.2661 59.8185 17.781C60.1951 17.3331 60.6703 16.9783 61.2069 16.744C62.3753 16.2664 63.6849 16.2664 64.8532 16.744C65.3903 16.9773 65.8655 17.3323 66.2412 17.781C66.6424 18.2662 66.9447 18.825 67.131 19.4261C67.3508 20.1339 67.4576 20.8718 67.4474 21.6127C67.4583 22.3536 67.3521 23.0915 67.1329 23.7994C66.9466 24.4004 66.6444 24.9593 66.2431 25.4445C65.8663 25.894 65.3916 26.2515 64.8552 26.4897C64.2781 26.7324 63.6582 26.8574 63.032 26.8574C62.4058 26.8574 61.786 26.7324 61.2089 26.4897C60.6729 26.2505 60.1982 25.8932 59.8204 25.4445" fill="black"/>
<path d="M76.5726 19.2343C76.2731 18.8432 75.8753 18.538 75.4196 18.3498C74.8461 18.1267 74.2335 18.0212 73.6183 18.0397C72.8828 18.0284 72.1479 18.0895 71.4244 18.2221C70.8269 18.3445 70.3519 18.4529 69.9977 18.5501V27.6605H71.1869V19.3722C71.4466 19.2944 71.7125 19.2393 71.9817 19.2077C72.4634 19.1417 72.9494 19.111 73.4356 19.1158C73.8797 19.1041 74.3224 19.1696 74.7441 19.3093C75.082 19.4293 75.3756 19.6486 75.5863 19.9384C75.8194 20.2782 75.9752 20.6648 76.0429 21.0711C76.1425 21.631 76.1884 22.199 76.18 22.7676V27.6605H77.3693V22.3863C77.3741 21.7913 77.3128 21.1977 77.1866 20.6163C77.0809 20.1188 76.8725 19.6487 76.5745 19.2363" fill="black"/>
<path d="M82.7967 18.0042C82.2727 18.0038 81.7538 18.1059 81.2691 18.3047C80.768 18.5103 80.3188 18.8242 79.9539 19.224C79.5479 19.675 79.2311 20.1985 79.02 20.7671C78.7691 21.4599 78.6483 22.193 78.6638 22.9295C78.6576 23.5984 78.7436 24.2649 78.9192 24.9105C79.0759 25.4846 79.3572 26.0174 79.7431 26.4709C80.136 26.9213 80.6307 27.2718 81.1863 27.4934C81.8624 27.7532 82.5832 27.877 83.3074 27.8577C83.8657 27.8673 84.4225 27.8002 84.9624 27.6584C85.2933 27.5759 85.6147 27.4594 85.9215 27.3109L85.7025 26.2885C85.4355 26.4114 85.1602 26.5153 84.8786 26.5997C84.3784 26.7368 83.8604 26.7983 83.3419 26.7821C82.1729 26.7821 81.3176 26.4709 80.7826 25.8511C80.1972 25.0877 79.8941 24.1459 79.9243 23.185H86.5636C86.5743 23.0998 86.5835 23.0089 86.5893 22.9111C86.5951 22.8134 86.6 22.7176 86.6 22.6208C86.6 21.0511 86.2554 19.8898 85.5663 19.1369C85.2144 18.7591 84.7845 18.4622 84.3062 18.267C83.8279 18.0717 83.3128 17.9827 82.7967 18.0061M79.9631 22.1858C79.9849 21.7801 80.0681 21.3801 80.2097 20.9993C80.3414 20.6341 80.5395 20.2963 80.7942 20.003C81.0402 19.7207 81.3385 19.4886 81.6728 19.3193C82.0273 19.1437 82.4189 19.0558 82.8146 19.0629C83.1684 19.0438 83.5217 19.1084 83.8458 19.2513C84.1699 19.3942 84.4557 19.6115 84.6799 19.8855C85.158 20.5551 85.4019 21.3634 85.3739 22.1853L79.9631 22.1858Z" fill="black"/>
<path d="M50.4544 27.6598L52.5082 24.6976L54.5669 27.6598H56.9221L53.6887 22.9938L56.9216 18.3279H54.5664L52.5077 21.2892L50.4544 18.3279H48.0797L51.3267 22.9929L48.0797 27.6588L50.4544 27.6598Z" fill="black"/>
<path d="M37.0845 24.1198L32.9376 16.9479C32.7472 16.6188 32.4733 16.3456 32.1436 16.1557C31.8139 15.9658 31.4399 15.8658 31.0592 15.866H25.3194C25.0438 15.866 24.7795 15.9753 24.5847 16.1698C24.3898 16.3644 24.2803 16.6282 24.2803 16.9034C24.2803 17.1785 24.3898 17.4424 24.5847 17.637C24.7795 17.8315 25.0438 17.9408 25.3194 17.9408H26.827C27.0964 17.9371 27.3573 18.0354 27.557 18.216C27.7568 18.3965 27.8807 18.6458 27.9038 18.9139C27.9127 19.0553 27.8923 19.197 27.8442 19.3303C27.796 19.4636 27.721 19.5856 27.6238 19.6889C27.5266 19.7921 27.4092 19.8744 27.2789 19.9306C27.1486 19.9868 27.0082 20.0157 26.8663 20.0156H16.4576C16.182 20.0156 15.9177 20.1249 15.7228 20.3195C15.528 20.514 15.4185 20.7779 15.4185 21.0531C15.4185 21.3282 15.528 21.5921 15.7228 21.7866C15.9177 21.9812 16.182 22.0905 16.4576 22.0905H22.9849C23.2566 22.0963 23.5151 22.2082 23.7051 22.4021C23.8951 22.5959 24.0015 22.8564 24.0015 23.1277C24.0015 23.3989 23.8951 23.6594 23.7051 23.8533C23.5151 24.0471 23.2566 24.159 22.9849 24.1648H14.3805C14.1049 24.1648 13.8406 24.2741 13.6458 24.4687C13.4509 24.6632 13.3414 24.9271 13.3414 25.2023C13.3414 25.4774 13.4509 25.7413 13.6458 25.9358C13.8406 26.1304 14.1049 26.2397 14.3805 26.2397H18.869C19.1446 26.2397 19.4089 26.349 19.6037 26.5435C19.7986 26.7381 19.9081 27.002 19.9081 27.2771C19.9081 27.5522 19.7986 27.8161 19.6037 28.0107C19.4089 28.2052 19.1446 28.3145 18.869 28.3145H16.4576C16.1819 28.3145 15.9175 28.4239 15.7225 28.6185C15.5276 28.8131 15.418 29.0771 15.418 29.3524C15.418 29.6277 15.5276 29.8917 15.7225 30.0863C15.9175 30.281 16.1819 30.3903 16.4576 30.3903H26.8668C27.0087 30.3901 27.1491 30.4189 27.2794 30.4751C27.4097 30.5312 27.527 30.6134 27.6243 30.7166C27.7215 30.8199 27.7964 30.9419 27.8445 31.0752C27.8926 31.2085 27.9128 31.3502 27.9038 31.4916C27.8807 31.7598 27.7567 32.0093 27.5567 32.1899C27.3567 32.3704 27.0956 32.4686 26.826 32.4647H19.1206C18.8449 32.4647 18.5805 32.574 18.3855 32.7687C18.1906 32.9633 18.081 33.2273 18.081 33.5026C18.081 33.7778 18.1906 34.0418 18.3855 34.2365C18.5805 34.4311 18.8449 34.5405 19.1206 34.5405H31.0592C31.4399 34.5404 31.8139 34.4403 32.1436 34.2504C32.4733 34.0604 32.7471 33.7871 32.9376 33.4581L37.0845 26.2856C37.2749 25.9566 37.3751 25.5832 37.3751 25.2032C37.3751 24.8232 37.2749 24.4499 37.0845 24.1208M30.3032 23.0635C30.3122 23.2049 30.2921 23.3466 30.2441 23.4799C30.1961 23.6132 30.1212 23.7352 30.0241 23.8385C29.927 23.9417 29.8097 24.024 29.6795 24.0802C29.5493 24.1364 29.409 24.1654 29.2671 24.1653H26.2934C26.0218 24.159 25.7635 24.0468 25.5738 23.8526C25.384 23.6584 25.278 23.3978 25.2785 23.1265C25.2789 22.8552 25.3858 22.5949 25.5761 22.4013C25.7665 22.2078 26.0252 22.0964 26.2968 22.091H29.2254C29.4949 22.087 29.7559 22.1852 29.9559 22.3656C30.1559 22.5461 30.28 22.7954 30.3032 23.0635ZM30.3032 27.3419C30.2801 27.6101 30.156 27.8596 29.9561 28.0402C29.7561 28.2207 29.495 28.3189 29.2254 28.315H22.1809C21.9054 28.315 21.6411 28.2057 21.4462 28.0111C21.2514 27.8166 21.1419 27.5527 21.1419 27.2776C21.1419 27.0024 21.2514 26.7386 21.4462 26.544C21.6411 26.3495 21.9054 26.2402 22.1809 26.2402H29.2676C29.4094 26.2401 29.5498 26.269 29.68 26.3252C29.8102 26.3815 29.9275 26.4637 30.0246 26.567C30.1217 26.6703 30.1966 26.7923 30.2446 26.9256C30.2926 27.0589 30.3122 27.2006 30.3032 27.3419Z" fill="#D71920"/>
<path d="M19.1234 15.866H22.0117C22.2873 15.866 22.5516 15.9753 22.7464 16.1698C22.9413 16.3644 23.0508 16.6282 23.0508 16.9034C23.0508 17.1785 22.9413 17.4424 22.7464 17.637C22.5516 17.8315 22.2873 17.9408 22.0117 17.9408H19.1234C18.8478 17.9408 18.5835 17.8315 18.3887 17.637C18.1938 17.4424 18.0844 17.1785 18.0844 16.9034C18.0844 16.6282 18.1938 16.3644 18.3887 16.1698C18.5835 15.9753 18.8478 15.866 19.1234 15.866Z" fill="#D71920"/>
<path d="M15.7768 17.9408C15.5713 17.9407 15.3705 17.8798 15.1997 17.7657C15.0288 17.6516 14.8957 17.4895 14.8172 17.2999C14.7386 17.1103 14.7182 16.9017 14.7583 16.7005C14.7985 16.4993 14.8976 16.3145 15.0429 16.1695C15.1883 16.0245 15.3735 15.9257 15.5751 15.8858C15.7767 15.8459 15.9856 15.8665 16.1754 15.9451C16.3652 16.0237 16.5274 16.1568 16.6415 16.3274C16.7556 16.4981 16.8164 16.6987 16.8163 16.9039C16.8163 17.0402 16.7895 17.1751 16.7372 17.3011C16.685 17.427 16.6084 17.5414 16.5119 17.6378C16.4153 17.7342 16.3008 17.8106 16.1746 17.8628C16.0485 17.9149 15.9133 17.9418 15.7768 17.9418" fill="#D71920"/>
<path d="M15.7778 32.4656C15.9834 32.4656 16.1844 32.5264 16.3553 32.6405C16.5263 32.7545 16.6595 32.9166 16.7382 33.1063C16.8169 33.2959 16.8374 33.5046 16.7973 33.706C16.7572 33.9073 16.6582 34.0922 16.5128 34.2374C16.3675 34.3825 16.1822 34.4814 15.9806 34.5214C15.7789 34.5615 15.5699 34.5409 15.38 34.4624C15.19 34.3838 15.0277 34.2508 14.9135 34.0801C14.7992 33.9094 14.7383 33.7088 14.7383 33.5035C14.7383 33.2282 14.8478 32.9642 15.0427 32.7696C15.2377 32.5749 15.5021 32.4656 15.7778 32.4656Z" fill="#D71920"/>
<path d="M13.1136 22.0839C12.9081 22.0838 12.7072 22.0228 12.5364 21.9088C12.3656 21.7947 12.2325 21.6326 12.1539 21.443C12.0754 21.2534 12.0549 21.0448 12.0951 20.8436C12.1353 20.6424 12.2343 20.4576 12.3797 20.3125C12.5251 20.1675 12.7102 20.0688 12.9118 20.0289C13.1134 19.9889 13.3223 20.0096 13.5121 20.0882C13.7019 20.1668 13.8641 20.2998 13.9782 20.4705C14.0923 20.6412 14.1532 20.8418 14.1531 21.0469C14.1532 21.1832 14.1264 21.3182 14.0742 21.4441C14.022 21.5701 13.9454 21.6845 13.8488 21.7808C13.7523 21.8771 13.6376 21.9535 13.5114 22.0055C13.3853 22.0575 13.2501 22.0841 13.1136 22.0839Z" fill="#D71920"/>
<path d="M13.1126 28.3147C13.3183 28.3143 13.5194 28.3749 13.6906 28.4887C13.8618 28.6025 13.9954 28.7645 14.0744 28.9541C14.1533 29.1437 14.1742 29.3524 14.1343 29.5539C14.0944 29.7554 13.9956 29.9405 13.8503 30.0858C13.705 30.2312 13.5197 30.3302 13.318 30.3704C13.1163 30.4106 12.9072 30.3902 12.7172 30.3117C12.5271 30.2332 12.3646 30.1002 12.2503 29.9294C12.136 29.7587 12.075 29.558 12.075 29.3526C12.075 29.0777 12.1843 28.814 12.3788 28.6194C12.5733 28.4248 12.8372 28.3152 13.1126 28.3147Z" fill="#D71920"/>
<path d="M11.0385 26.2394C10.8331 26.2393 10.6323 26.1784 10.4615 26.0644C10.2907 25.9503 10.1576 25.7883 10.079 25.5987C10.0004 25.4092 9.97988 25.2007 10.02 24.9995C10.0601 24.7983 10.159 24.6135 10.3043 24.4684C10.4496 24.3233 10.6347 24.2246 10.8362 24.1845C11.0377 24.1445 11.2466 24.165 11.4364 24.2434C11.6263 24.3219 11.7885 24.4548 11.9028 24.6253C12.017 24.7958 12.078 24.9963 12.0781 25.2015C12.0781 25.4768 11.9685 25.7408 11.7736 25.9354C11.5786 26.13 11.3142 26.2394 11.0385 26.2394Z" fill="#D71920"/>
</g>
</svg>
